<?xml version="1.0" encoding="utf-8"?>
<!-- Generator: Adobe Illustrator 24.1.0, SVG Export Plug-In . SVG Version: 6.00 Build 0)  -->
<svg version="1.1" id="Layer_1" xmlns="http://www.w3.org/2000/svg" xmlns:xlink="http://www.w3.org/1999/xlink" x="0px" y="0px"
	 viewBox="0 0 500 600" style="enable-background:new 0 0 500 600;" xml:space="preserve">
<g>
	<path d="M118.4,426.2c6.4-5.3,13.3-10,20.4-14.4c3.2-2,6.5-4,9.8-5.8c9.9-5.3,18.5-12.3,26.1-20.5c5.8-6.3,9.1-6.3,15.4-0.4
		c4.2,3.8,7.7,8.2,11.3,12.5c0.7,0.8,1.1,1.8,2.3,2.2c1.5-4.4,4.8-7.4,8.9-9.2c16.8-7.6,33.2-7,48.4,3.8c8,5.6,12.9,14.2,17.5,22.7
		c10.4,19.2,17.4,39.8,23.7,60.7c3.3,10.9,6.2,21.9,9.3,32.9c0.3,0.9,0.6,1.9,1.4,2.7c0.5-2.6,1.1-5.3,1.6-7.9c0.1,0,0.3,0,0.4,0.1
		c-0.5,2.8-0.8,5.6-1.4,8.3c-0.4,1.7-0.2,3.2,0.2,4.8c2.5,10,5.4,20,5.2,30.5c-0.1,4-0.9,7.8-4.2,10.5c-1.2,0.9-2.5,2.1-4.1,1.5
		c-1.7-0.7-1.9-2.5-1.9-4.1c-0.3-6.6,0.7-13.1,1.4-19.6c0.6-6.1,1.3-12.3,2-18.4c0.1-1.1,0.1-2.1-0.2-3.1
		c-7.1-24.6-13.5-49.5-23.2-73.4c-5.4-13.3-11.4-26.1-19.7-37.9c-14-19.8-39.7-20.1-54.3-13.3c-3.5,1.6-6.6,3.7-8.6,7.2
		c-1.1,1.9-1.1,3.5,0.4,5.5c6.1,7.8,11.8,15.9,16.4,24.7c1.1,2,1.9,4.2,2.7,6.3c0.4,1.1,0.7,2.5-0.4,3.5c-1.1,1.1-2.5,0.7-3.7,0.2
		c-3.2-1.3-5.2-3.8-6.9-6.6c-5.4-8.8-8.4-18.5-10.9-28.4c-0.2-0.7-0.1-1.5-0.6-2.1c-4.8-6-9.5-12.2-15.5-17.2
		c-3.7-3.1-6.8-3.3-9.6-0.1c-11.1,12.9-25.7,21-40.1,29.4C131.1,417.5,124.9,422.1,118.4,426.2z M312.8,519.5
		c-0.4,1.5-0.6,2.4-0.7,3.2c-0.8,8.4-1.7,16.8-2.4,25.3c-0.3,3.3-0.9,6.6-0.2,9.9c0.5,2.7,1.6,3.1,3.9,1.6c2.9-2,4.1-4.9,4.4-8.3
		C318.6,540.5,315.5,530.4,312.8,519.5z M206,406c0.9,4.7,2.4,9.2,4.1,13.6c2.2,5.6,4.5,11.1,8.8,15.5c1.2,1.3,3.1,3,4.6,2
		c1.6-1.1,0.1-3.1-0.5-4.6C218.6,422.9,212.4,414.4,206,406z"/>
	<path d="M261.7,239.6c1.4-3.9,0.7-7.4-0.2-10.8c-0.5-2.1-1.8-3.6-4.1-3.7c-2.1-0.1-2.7,1.6-3.9,3c-3.1,3.7-4.3,8.1-6,12.3
		c-1.1,2.7-0.2,4,2.6,4.9c2.7,0.9,5.3,0.3,7.9-0.3c4-0.9,7.9-2.1,11.6-3.9c3.1-1.6,6.2-1.5,9.4-0.7c8.4,1.9,15.5,6.1,21.6,12.2
		c2,2,4,4.1,6.4,5.7c1.1,0.7,2,1.4,3-0.2c0.5-0.9,1.5-1.5,2.4-0.6c1,1,1.4,2.3,1,3.7c-0.4,1.3-1.6,0.9-2.4,0.6
		c-0.9-0.3-1.7-0.9-2.4,0.3c-0.8,1.6,0.7,1.5,1.3,1.9c1.9,1.1,2,2.6,1.1,4.4c-1.1,2.4-3,4.2-5,5.8c-9.5,7.7-20.6,11.6-32.6,13.3
		c-12.6,1.9-25.3,3-38,1.9c-3.3-0.3-6.6-0.7-9.8-1.8c-3.1-1-5.8-2.5-6.2-6.1c-1.3-1.2-2.1,2.6-3.7-0.1c-2.1-3.6-2.3-3.6,1.7-5
		c0.9-0.3,1.4-0.8,1.6-1.7c0.5-2.5,2.1-4.4,4-6.2c-0.9,1.5-1.8,3-2.6,4.6c-0.3,0.7-1,1.6-0.4,2.3c0.6,0.6,1.4-0.1,2.1-0.3
		c5.4-1.5,9.6-4.9,13.8-8.3c4.5-3.5,8.8-7.3,14.8-8.1c2.6-0.3,5.1-0.3,7.7,0c3.2,0.4,6.3,0.1,9.1-1.4c4.1-2.3,8.4-2.3,12.7-0.9
		c8.3,2.6,16.9,3.8,25.2,5.9c1,0.3,1.9,0.3,2.4-0.8c0.4-0.7,0.2-1.3-0.5-1.7c-4.9-3-8.5-7.6-13.1-11c-5.6-4.1-11.7-6.6-18.6-7.5
		c-1.7-0.2-3.2,0.1-4.7,0.7c-4.8,2.1-9.7,3.9-14.9,4.7c-1.2,0.2-2.5,0.3-3.7,0.2c-5.6-0.3-7.5-3-5.5-8.2c1.7-4.4,3.3-8.9,6.4-12.7
		c1.8-2.1,4.1-2.6,6.5-1.3C263.2,226.7,264.6,236.1,261.7,239.6z M296.9,262.4c-6.2-1.8-12.3-3.3-18.3-5.1c-3.5-1.1-7-0.8-10.2,1
		c-2.7,1.4-5.5,1.9-8.6,1.7c-2.5-0.1-4.9-0.4-7.4-0.3c-5.9,0.2-10.4,3.4-14.7,6.9c-4.8,3.8-9.6,7.6-15.5,9.4c-2.3,0.7-2.3,0.7-1.3,3
		c0.1,0.2-0.1,0.4-0.2,0.6c-1,2.4,0.4,4,2.1,5.3c1.5,1.2,3.4,1.7,5.3,2c20.1,3.1,39.8,1.2,59.2-4.5c7.8-2.3,14.9-6.2,20.6-12.3
		c1.1-1.1,2.7-2.4,1.9-4.1c-0.7-1.5-2.6-1.7-4.2-2c-0.4-0.1-0.8-0.1-1.1-0.1c-7-0.8-14-1.3-21.1-1c-1.3,0.1-2.6,0-3.9,0
		c0-0.1,0-0.3,0-0.4C285.1,262.4,291,262.4,296.9,262.4z M217,281.2c0.8-0.8,2-1,1.7-2.4c-0.2-0.8,0-1.9-1.3-1.6
		c-0.9,0.2-2.5,0.1-2.5,1.2C214.9,279.4,216,280.4,217,281.2z"/>
	<path d="M342.2,323.2c-3.9,3.5-7.4,6.7-11.5,9.2c-11.2,7.2-23.4,11.9-36.7,12.9c-18.1,1.4-29.2-7.6-35.7-23.5
		c-1.6-3.9-1.1-8.5,0.8-11.7c-5.2,12.9,10.9,32.5,25.7,33.9c13.6,1.3,25.8-2.6,37.6-8.3c6.8-3.3,12.9-7.7,18.3-13.1
		c1.3-1.2,1.9-2.6,2.2-4.4c1.8-11.7,3.8-23.3,8.4-34.2c2.3-5.4,5.6-10.2,9.8-14.2c0.9-0.9,1.9-2.2,3.4-1.4c1.5,0.7,1.2,2.3,1,3.6
		c-1,7.6-3.6,14.7-6.2,21.9c-3.5,9.6-8,18.7-14.9,26.4c-1.5,1.7-1.3,3.7-1.6,5.6c-2.1,15.4-3.2,30.8-4.8,46.3
		c-0.9,9.2-2.3,18.3-3.7,27.4c1.3-12.7,2.8-25.3,3.8-38C339.4,349,340.4,336.4,342.2,323.2z M344,318.9c0.7-0.7,1-0.9,1.3-1.2
		c5.2-6.5,9-13.8,12-21.6c3-7.8,5.9-15.6,7.1-23.9c0.1-0.8,0.5-1.9-0.5-2.3c-0.8-0.3-1.3,0.6-1.9,1.1c-4.1,4-7.2,8.5-9.5,13.8
		C348,295.5,346,306.9,344,318.9z"/>
	<path d="M246.3,155.4c-2.4-6.8-2.9-13.9-2.1-21c0.1-1.2,0.1-2-0.7-3c-3-3.6-2.8-6.3,0.1-10c5.8-7.3,14-10.3,22.7-12
		c9.8-2,19.7-3.4,29.2-6.6c2.9-1,6.1-1.1,9.2,0.1c-7.3-1.4-13.5,2.5-20.2,4.1c-8.4,2-17.1,2.9-25.3,5.8c-6,2.1-11.2,5.2-15,10.4
		c-1,1.4-1.6,2.8-1.1,4.5c0.3,1.1,0.7,2.5,1.8,2.8c1,0.2,1.1-1.3,1.7-2c4.4-4.9,9.8-8.6,15.9-10.9c15.3-5.8,31.2-8.3,47.5-7.8
		c1.5,0,3,0.2,4.4,1c-5.7-0.7-11.3-0.7-17,0.1c-12,1.7-24,3.2-35.2,8.1c-5.1,2.3-9.8,5.1-13.7,9.1c-1,1-2.5,2.4-1.9,3.5
		c0.8,1.4,2.9,1.6,4.7,1.2c7.5-1.8,14.6-4.9,21.7-7.9c8.5-3.6,16.9-7.4,26-9.2c8.4-1.6,16.8-1.6,25.1,1.3c0.6,0.2,1.3,0.3,1.6,1.2
		c-3.1-0.8-6.1-1.9-9.2-2.3c-10.6-1.3-20.6,1.1-30.4,5c-10.3,4.1-20.2,9.2-31,12.4c-2.8,0.8-5.5,1.7-8.3,0.5
		c-1.4-0.6-1.5,0.5-1.7,1.5c-0.8,6.2-0.1,12.3,0.9,18.5C246.1,154.3,246.2,154.8,246.3,155.4z"/>
	<path d="M237.5,222.7c-1.1,1.6-2.4,1.5-3.9,0.5c-5.4-3.2-5.5-4.7-1.1-9.2c2.3-2.4,4.9-3.8,8.5-3.8c-1.9-3-5.1-3.7-7.9-5.5
		c4.8,0.2,7.2,4.4,11.9,6c-1.8-2.9-3.3-5-4.4-7.3c-1.9-3.7-1.1-5.3,2.5-7.3c6.7-3.7,13.3-1.8,20-0.2c1.6,0.4,1.9,1.5,1.3,2.9
		c-0.9,2.2-2.4,3.9-4.3,5.4c1-1.6,2.1-3.3,3.1-5c0.5-0.9,1-2.2-0.6-2.5c-6.4-1.3-12.8-3-19.1,0.7c-2.2,1.3-2.7,2.7-1.7,4.9
		c1.3,2.8,3.1,5.3,5,7.6c1.3,1.6,3.4,0.6,5.1,0.9c0.5,0.1,0.9,0,1.5,0c-0.4,0.9-1.3,0.1-1.7,0.8c0.9,1.1,2,2.3,2.1,3.8
		c0.1,2.5,1.5,1.7,2.6,1c0.5-0.3,0.9-1,1.1-1.6c1.4-5.7,6.2-7.9,10.8-10.3c1.8-1,3.4-0.6,4.8,1.1c0.7,1,1.6,1.8,2.6,2.7
		c2.4,2.1,2.8,3.9,1.5,6.2c-1.5,2.5-4.2,3.6-6.8,2.7c-2.6-1-4.7-2.8-6.6-4.9c0.7,0,1.2,0.4,1.8,0.8c1.5,1.1,2.9,2.2,4.5,3
		c2.3,1.2,4.8,0.2,6.1-2c1.3-2.2,0.3-3.7-1.5-5.1c-1-0.8-1.8-1.7-2.6-2.6c-0.6-0.7-1.3-1.2-2.2-0.9c-2.9,1.2-6,2.3-7.6,5.4
		c-2,0.3-2.3,2-2.8,3.5c-1.4,3.8-2.2,3.7-6.2,4.3c-4.9,0.8-6.8-2.6-9.6-5c-0.2-1.9-1.4-2.4-3.2-2.3c-4.5,0.3-7.1,3.1-9.4,6.4
		c-0.4,0.6-0.6,1.3-0.1,2.1C231.6,221.6,235.5,223.1,237.5,222.7z M250,217.6c-1.2-1.8-2.2-3.3-3.2-4.7c-0.3-0.4-0.6-1-1.3-0.6
		c-0.9,0.5-0.5,1.1-0.1,1.6C246.6,215.4,247.7,217.1,250,217.6z M248.4,212.4c1.2,1.9,1.9,3.5,4,4.1
		C252.3,214.1,251.3,212.8,248.4,212.4z"/>
	<path d="M255.9,178.4c-1.3-3.4-1.7-6.1-1.7-9c0-5.2,1.6-8.9,5.8-12.4c0.9-0.7,2.7-0.4,4.2-0.1c7.8,1.5,15.6,2.7,23.5,2.8
		c8.2,0,16.1-0.9,23.5-4.9c0.5-0.3,0.9-0.6,1.3-1.1c-12.7,1-25.4,4.1-37.8-1c2.5,0.5,5.1,1.2,7.6,1.6c9.8,1.5,19.3-1,28.9-1.8
		c4.4-0.4,7.1-2.6,9.4-5.9c1.1-1.6,2.1-3.2,3.1-4.8c2.5,3.4,2.3,6-1.3,8.4c-12,8.1-25,12.5-39.7,10.8c-5.8-0.7-11.5-1.4-17.2-2.6
		c-4.9-1-9.1,2.1-10,7.1c-0.7,3.8-0.7,7.5,0.4,11.2C256,176.9,255.9,177.3,255.9,178.4z"/>
	<path d="M296.9,41.9c24.8,23,37.3,52.2,41.9,85.2c-0.3,0-0.8-0.5-1-1.3c-4.9-24.2-11.3-47.8-27.5-67.5
		C305.8,52.9,301.9,46.9,296.9,41.9z"/>
	<path d="M223.2,277.8c2-2.1,4.6-3,7.3-3.7C228,275.3,225.6,276.6,223.2,277.8z"/>
</g>
</svg>
