<?xml version="1.0" encoding="utf-8"?>
<!-- Generator: Adobe Illustrator 24.1.0, SVG Export Plug-In . SVG Version: 6.00 Build 0)  -->
<svg version="1.1" id="_x2014_ÎÓÈ_x5F_1" xmlns="http://www.w3.org/2000/svg" xmlns:xlink="http://www.w3.org/1999/xlink"
	 x="0px" y="0px" viewBox="0 0 5000 5000" style="enable-background:new 0 0 5000 5000;" xml:space="preserve">
<style type="text/css">
	.st0{fill:#FFFFFF;}
</style>
<path class="st0" d="M3120.1,2220.1c0-0.7-0.2-1.3-0.4-1.9c-35.8-89-155.8-82-243.4-76.9c-13.5,0.8-26.2,1.5-37.7,1.9
	c-48.4,1.5-120.4,14-183.5,32c-55.4,15.8-128.9,42.5-164.5,80.6c-1.9,2-2.2,5.1-0.6,7.4c1.6,2.3,4.5,3.3,7.1,2.3
	c124.9-47.8,396.7-52.3,478.9-46c7.8,0.6,35.3,3.8,60.5,19.5c25.2,15.7,38.9,38.4,40.8,67.3c0.1,1.5,0.8,2.9,1.8,3.9
	c-10.4,18.9-22.5,37.9-33.9,55.9c-15,23.7-29,45.7-38.1,65.2c-5.3-14.6-11.8-27.9-19.3-39.7c-21.1-33.2-50.7-55.1-88.1-65.3
	c-56.5-15.4-211.8,7.7-265.9,72.1c-5.6,6.7-10,13.7-13.1,20.9c-10.7,4-21.3,7.9-31.8,11.8c-24.7,9.1-50.3,18.6-75.6,28.4
	c-2.2,0.8-3.7,2.9-3.8,5.2s1.1,4.5,3.1,5.7c18.9,10.3,41.6,15.9,65.5,16.1c15.1,0.2,30.2-1.7,44.6-5.6c0.2,0.6,0.5,1.1,0.8,1.7
	c11.8,25.1,42.3,45,88.1,57.6c32.2,8.9,70.7,13.5,109.5,13.5c12.6,0,25.2-0.5,37.6-1.5c53.7-4.3,99.3-17.5,128.3-37
	c0.6-0.4,1-0.8,1.4-1.3c0.9,0,1.8-0.2,2.7-0.7c2.9-1.5,4.1-5.1,2.6-8.1c-2-3.9-4-7.6-5.9-11.2c-4.4-32-14.5-66.4-43.3-95
	c-30.7-30.3-78.6-37-113.4-37.3c-40.5-0.3-84.7,7.9-118.4,21.9c-24.8,10.3-49.8,20-74.7,29.4c1.5-2.3,3.3-4.5,5.1-6.8
	c50.4-60.1,201-82.6,253.6-68.3c51.1,13.9,85.8,51.1,103.7,110.7c-3.6,11-4.8,21-2.7,29.6c2,8.5,7.2,15.3,15.3,20.1
	c2,1.2,4.5,1.1,6.4-0.2c1.9-1.3,2.9-3.5,2.6-5.8c-2.2-15.4-5.2-29.9-9.1-43.4c7.7-21.3,24.8-48.2,42.6-76.2
	C3086.8,2322.8,3122.5,2266.5,3120.1,2220.1z M3042.8,2228.7c-27.4-17.1-57.4-20.6-65.9-21.3c-18.8-1.5-47.1-2.4-81.1-2.4
	c-41.4,0-91.4,1.4-143.4,4.8c-69.1,4.6-160.8,14.2-230,34.4c77.4-54,241.9-86.9,316.4-89.2c11.7-0.4,24.5-1.1,38.1-1.9
	c43.8-2.6,93.5-5.5,137.1,2.7c48.8,9.1,79.6,30.7,94.1,65.7c0.8,21.7-7.8,46.5-20.4,71.9C3082.9,2266.4,3067.5,2244.1,3042.8,2228.7
	z M2530.8,2465.4c20.9-8,41.9-15.7,62.3-23.2c7.7-2.8,15.4-5.7,23.1-8.5c-2.2,11.5-1.5,23.5,2.2,35.8
	C2588.8,2477,2557,2475.6,2530.8,2465.4z M2634.3,2477.3C2634.3,2477.2,2634.3,2477.2,2634.3,2477.3c3.3-1.3,6.7-2.5,9.9-3.9
	c12.8-5.4,25-11.9,36.7-18.8c-0.7,10.5,1.5,22.3,6.5,35.7c6.2,16.6,14,28.8,24,37.2C2671.5,2516,2644.2,2498.2,2634.3,2477.3z
	 M2698.7,2486.1c-6-15.9-7.4-28.8-4.2-39.6c3.7-2.3,7.4-4.6,11.1-6.8c24.8-15.3,48.8-30.2,75.6-38.4c2.5-0.2,4.9-0.3,7.4-0.3
	c25.2,0,40.9,9.5,46.7,28.3c6.6,21.2,1.5,46.1-13.6,66.5c-15.9,21.5-39.7,34.3-63.7,34.3C2727.3,2530.1,2710.7,2517.8,2698.7,2486.1
	z M2977.2,2507c-43.5,27.5-124.4,39.6-199.2,32.6c20.5-5.2,39.6-18.1,53.3-36.7c17.3-23.5,23.1-52.3,15.4-77.2
	c-4.5-14.6-13.8-25.1-27.2-31c4.5-0.2,9.1-0.1,13.8,0.2c72.6,4.4,109.8,42.2,142.8,102.5C2976.5,2500.6,2976.9,2503.8,2977.2,2507z
	 M2717.2,2394.4c60.8-25.3,170.6-34.9,218.8,12.8c16.6,16.5,26.5,35.3,32.5,54.4c-11.6-17.1-23.2-30.4-35.8-41.2
	c-26.6-22.8-58.9-35.1-98.6-37.5c-19.8-1.2-37.8,1.4-54.6,6.4c-23.5,1.8-47,10-62.4,17.8c-16.5,8.4-27.2,18.6-32.4,31.3
	c-14.5,8.8-29.4,17.2-45.1,23.9c-3.2,1.3-6.4,2.6-9.6,3.7c-4-13.1-4-25.6,0-37.4C2658.9,2417.7,2688.2,2406.5,2717.2,2394.4z
	 M3958.7,2582.2c-5.9-75.7-25.4-151.6-57.8-225.7c-28.5-65-67-128.8-114.5-189.8c-32.7-42-66.4-78.6-98.8-110c0-2.4,0.1-4.8,0.1-7.2
	c0.1-35.9-3.6-69.6-7.2-102.2c-0.9-7.9-1.8-16-2.6-24c-0.2-2.3-0.5-6.5-0.8-12.4c-1.5-26.4-4.7-81.3-16.6-143.9
	c-14.8-78-38-140.5-68.9-185.9c-91.3-133.8-248.7-261.8-421.2-342.2c-0.6-0.3-1.2-0.4-1.8-0.5c-0.8-1.5-2.3-2.6-4.1-3
	c-3.3-0.7-6.4,1.4-7.1,4.7c-5.8,27.7-11.2,55.7-16.5,82.7c-30.4,155.3-59.1,302.1-146,438.8c-110.2,173.3-295,217-461.2,236.9
	c-64.5,7.7-119.9,18.5-170.1,33.4c27.5-10.6,50.2-24.9,65.7-42.2c19.3-21.6,26.2-47,19.8-73.4c-10.8-44.3-5.8-77.8-1.4-107.3
	c1.7-11.6,3.4-22.7,4-33.8c11-12.9,20.7-26.6,28.5-40.4c17.3-30.6,33.9-60.8,46.7-91.3c14.1,17.6,29.1,34.4,44.1,49.6
	c46.4,46.6,92.4,75.7,132.9,84c9.5,2,18.6,2.9,27.4,2.9c32.9,0,60.9-13.8,85.2-41.6c26.2-30,43.7-71.1,60.6-110.7
	c8.3-19.4,16.1-37.8,24.5-53.5c16.7-31.5,35.8-67.2,45.3-101.8c9.3-0.9,18-1.9,25.9-2.8c29.6-3.4,62.6-9.8,79.6-43.9
	c6-11.9,10-25.5,12.9-39.8c15.4-8.9,27.9-19.2,37.9-31.3c16.5-20,25.5-44.8,26.6-73.6c2.3-57.4-13-106-46.8-148.8
	c-29.4-37.3-69.5-65.7-108.1-91.7c-51.4-34.6-98.1-52.1-142.6-53.5c-5.3-0.2-10.6-0.1-15.8,0.2c9.2-15.4,20.5-28.2,34.2-38.3
	c17.5-8.6,35-16.6,52.4-23.9c9.5-2.4,19.7-4.1,30.5-5.2c48.1-4.8,98.5,4.1,135.3,10.7c14.3,2.5,25.8,4.6,34.8,5.5
	c-0.9,0.7-1.8,1.4-2.7,2.2c-16.7,14.1-21.6,34.9-14.5,61.8c5.8,22,18.7,45,29.1,63.6c4.6,8.2,8.9,15.9,11.9,22.2
	c2.7,5.8,5.3,11.4,7.8,16.8c22.6,49,40.4,87.7,95.6,117c0.9,0.5,1.9,0.7,2.8,0.7c1.8,0,3.6-0.8,4.8-2.4c1.8-2.3,1.6-5.6-0.4-7.8
	c-9.8-10.4-14.9-34.8-18.6-52.6c-1.2-5.6-2.3-10.9-3.4-15.4c-2.4-9.4-4.1-18.9-5.8-28c-0.3-1.7-0.6-3.4-0.9-5.1
	c26.4,16.1,54.3,29.8,79.4,41.2c84.4,38.4,185.3,28,272.9,12.7c1.7-0.3,3.1-1.3,4-2.6c0.5,0.2,0.9,0.3,1.4,0.5
	c2.1,0.7,4.4,0.2,6-1.3c1.6-1.5,2.3-3.8,1.7-6c-20.7-75.8-58.8-144-107.4-192.2c-24.8-24.5-52.1-44-81.4-57.8
	c20.5-6.5,35.7-18.5,40.8-39.3c0.5-2,0-4-1.4-5.5c-1.4-1.5-3.4-2.2-5.4-1.9c-35.6,5.8-73.1-0.6-109.3-6.9
	c-45.4-7.8-88.3-15.2-123.4,2.2c-48.9,24.3-53.7,44.1-56.9,57.3c-2,8.1-2.8,11.5-13.3,14.5c-6.2,1.8-24.7-1.5-46.1-5.3
	c-33.3-5.9-77.6-13.8-121.9-12c28.3-10.7,55.9-20.1,82-29.1c77.9-26.7,145.1-49.7,185.6-87.4c13.5-12.6,35.8-40.4,52.8-71.6
	c13.7-25.3,27.9-60.4,17.2-83.3c-1.1-2.4-3.7-3.8-6.3-3.4c-2.6,0.4-4.7,2.4-5.1,5c-7.5,47.7-69.6,71.9-115,89.6l-4.7,1.8
	c-263.9,103.3-312.1,178.9-334.6,221.8c-6.1,3.2-12.1,6.6-18.2,10c-6.1-28.7-18.8-56.3-37.8-81.4c-23.7-31.3-57.1-58.6-93.9-76.7
	c-68.4-33.7-158.5-49.2-224.2-38.5c-42,6.8-70.2,28.7-83.8,64.9c-5.3,14.2-8.2,29.9-9.5,45.8c-59.2-12.1-121.5-8.2-155.8-4.3
	c-71.1,8-134,43.3-172.6,96.8c-16.6,23-28,48.5-33.8,75.7c-2.4,11.1-3.8,22.4-4.3,33.8c-25.3,21.4-46.1,46.7-62,75.8
	c-3.2,5.8-6.2,11.7-8.9,17.8c-30-40.4-68.5-80.5-110.4-114.5c-30.7-25-133-39.1-213.8-19.2c-49.9,12.3-83.7,35.8-97.8,68.1
	c-9.5,15.2-28.8,27.8-49.4,41.2c-38.3,25-81.6,53.3-77.6,108.9c3.7,50,21.5,100.5,53.2,150.6c-31.8,0.4-63.6,3.4-95.3,8.8
	c-84.9,14.7-130.8,64.8-194.3,134c-9.7,10.5-19.6,21.4-30.3,32.8c-53,56.5,6.3,143.5,53.9,213.4c13.3,19.5,25.8,37.9,34.6,53.7
	c23,41.5,59.5,73.8,105.6,93.3c42.2,17.8,91.6,24.8,143.5,20.3c-6.9,13.8-12.8,26.7-18.1,38.3c-45.7,17.1-79,27.4-92.3,30.5
	c-9.3,2.1-25.3,2.5-42.4,2.9c-7.2-5.4-14.4-10.8-21.6-16.1c-44.9-33.5-91.3-68.1-130-109.3c-44.8-47.7-96.7-83-146.1-99.3
	c-29.4-9.7-57.8-12.9-84.6-9.3c-28.1,3.7-54.3,14.8-78.1,33c-7.9,2.1-12.5,6.2-13.5,12.4c-1.7,9.5,6.4,22,25.5,39.1
	c14.4,12.9,34.7,28.3,60.5,45.6c4.5,3.1,9.1,6.1,13.7,9.1c-97.9-11.4-179.8,3.8-243.5,45.2c-37.9,24.7-61.4,61.6-62.7,98.7
	c-0.8,22.1,6,54.3,42.6,82.1c46,34.8,112.1,50.8,201.1,48.4c-18,9-35.8,19-52.8,30c-64.8,42.1-108.7,93.4-134.2,156.9
	c-16.9,42.1-18.8,84.4-5.2,116.2c10.6,24.8,30,42.9,57.4,53.8c19.6,7.8,39.9,11,60.3,11c51.9,0,103.7-21.2,142.7-42.4
	c45.9-25,83.7-49.5,115.4-75c-3.1,12.2-5.8,24.7-8.4,37.8c-10.1,52.2-28.9,180,14.6,237.5c13.3,17.5,31.3,27.4,53.5,29.3
	c2.6,0.2,5.3,0.3,8,0.3c45,0,94-31.5,139-89.6c27.9-36,51.8-80.1,64.8-117.6c2.1,9.6,4.4,18.8,7.1,27.8
	c1.4,4.6,33.9,112.7,79.4,118.6c13.3,1.7,25.6-5.2,36.9-20.5c1,6.4,2.3,12.4,3.8,17.9c0,0.1,0.1,0.3,0.1,0.4
	c2.7,7.5,6.6,11.4,11.6,11.5c5,0.1,9.2-3.7,12.3-11.4c0.1-0.1,0.1-0.3,0.2-0.5c25.9-81.6,37.4-183.7,30.6-273.2
	c-2.9-38.7-9.9-84.1-25.3-127.2c2.6-2.4,4.5-5.5,5.6-9.4c8.4,21,19.5,40.3,33.9,53.6c1.5,1.4,3,2.7,4.6,3.9
	c38.6,44.8,81.6,72.6,128.3,82.7c12.9,2.8,26,4.2,39.3,4.2c39.9,0,81-12.5,121-37c45.9-28.2,90-71.9,127.4-126.6
	c37.3-54.4,67.3-118.6,86.8-185.7c4.8-16.5,8.9-32.9,12.4-49.4c4.5-8.1,8.8-16.1,12.7-24.1c46.8,20,103.1,27.2,155.3,33.9
	c17.5,2.2,34.9,3.3,52.1,3.3c33.2,0,65.2-4,93.9-11.6c-8.1,2.8-16,5.7-23.9,8.7c-1.7-1-3.8-1.2-5.6-0.3
	c-14.2,6.7-27.9,13.5-41.1,20.4c-0.8,0.4-1.6,0.8-2.4,1.1c-1,0.5-98.3,46.8-188.1,140.3c-52.8,55-92.8,115.4-118.9,179.5
	c-32.6,80.2-43.4,166.3-32.1,255.9c11.2,88.3,51.4,173.9,119.6,254.3c55.3,65.3,127.9,127,221.9,188.7c7.7,5,15.3,10,22.6,14.7
	c68.8,44.4,123.1,79.6,155.6,159.6c0.9,2.3,3.2,3.7,5.6,3.7c0.5,0,0.9-0.1,1.4-0.2c2.9-0.7,4.8-3.4,4.6-6.4
	c-1.4-15.1,1.2-38.7,4.2-66.1c5.4-49.4,12.7-117.1,2.1-184c-5.8-36.6-16.6-70-32.1-99.2c-18-34-42.9-63.6-74.1-87.9
	c-225.4-176.2-331.8-336.1-316.1-475.2c11.7-103.1,89.2-193.1,230.7-267.9c75.6-36.1,158.3-58.1,267.8-71.2
	c109.9-13.2,193.9-34.2,264.3-66.1c88.5-40.2,155.8-97.8,205.6-176.3c88.1-138.7,117.1-286.5,147.7-443c2.9-15,5.9-30.3,9-45.7
	c-0.3,15-0.7,30.1-1.2,45.7c-3,93.3-6,189.8,36.6,291c23.1,54.7,57.1,105.3,104,154.6c52.8,55.5,120.1,107.6,205.8,159.5
	c48.6,29.4,108.7,74.1,168.7,131.8c-0.7,27.7-3.2,53.7-5.9,80.9c-1.2,11.9-2.4,24.2-3.4,36.8c-1.7,20.1-1.9,30.6,2.4,50.6
	c-14.8-17.8-34.5-28.1-58.6-30.7c-26.2-2.9-57.6,3.6-90.9,18.7c-26.9,12.2-54,29.7-74.5,48c-34.3,30.7-54.1,72.9-71.5,110.1
	c-1.2,2.5-0.5,5.5,1.7,7.2c2.2,1.7,5.3,1.7,7.4,0c51.1-40.2,94.3-64.6,132.2-74.8c79.9-21.5,136.8-24,160.3-7
	c0.2,0.1,0.3,0.2,0.5,0.3c-4.7,29.3-20.8,60.2-35.7,88.9c-0.8,1.5-1.6,3-2.4,4.5c-6.5-1.2-13.1-2-19.7-2.4
	c-6-9.2-13.4-16.7-22.2-22.5c-28.6-19-72.2-20.2-129.5-3.7c-30.6,8.8-127.4,41.5-148.1,104.8c-1.4,0.9-2.5,2.3-2.8,4.1
	c-9.7,55.7-3,109.2,4.9,154.1c1.4,8.2,2.8,16.5,4.2,24.6c8.1,47.9,16.5,97.4,34,144.1c6.4,17.1,14.6,33.3,22.6,49
	c21.7,42.7,42.1,83,20.2,132.6c-22.9,51.7-84.7,52.2-140.3,51.5c-9.3-20.7-29.9-40.4-73.4-45.8c-13.3-1.6-66.1-0.5-85,21.6
	c-6.4,7.4-8.2,16.5-5.4,26.4c8.9,31.2,61.8,20.4,93.4,14c7.1-1.4,13.1-2.7,17-3.1c13.2-1.4,28.7-1.4,45.1-1.2
	c1.1,3.7,2,7.6,2.6,11.7c4.7,34-10.6,81.3-42.1,129.8c-8.1,12.5-16.9,24.4-26,35.3c-39.3-0.5-77,26.9-102.8,45.6
	c-8.1,5.9-15.1,11-20.7,14.2c-33.5,19.5-79.7,29.8-124.3,39.7c-15.5,3.5-30.4,6.8-44.2,10.4c-1.2,0-2.4,0.1-3.6,0.1
	c-1.8,0-3.4,0.8-4.5,2.1c-0.6,0.2-1.2,0.3-1.8,0.5c-3.2,0.9-5,4.2-4.1,7.4c0.9,3.2,4.2,5,7.4,4.1c2.7-0.8,5.5-1.5,8.3-2.2
	c71.9-1.5,142.5-18.4,228-54.3c20.4-8.6,44.8-28.8,67.7-55.3c2.1,0.2,4.3,0.5,6.4,0.9c8.7,1.7,16.8,4.4,24.6,6.9
	c16.5,5.5,33.5,11.1,54.7,6.6c9.6-2,18.4-6.5,27-10.9c14.4-7.3,26.8-13.6,40-8.2c11.8,4.8,17.2,14.6,16.2,29.4
	c-1,14.9-9,33.3-21.2,49.2c-12.6,16.3-27.8,27.7-41.6,31.2c-4.1,1-7.9,1.7-11.5,2.1c-31.8-12.9-76.9-16.5-106.2-17.4
	c-57.8-1.8-117.3,4.8-141.3,15.6c-2.5,1.1-3.9,3.8-3.5,6.5c0.5,2.7,2.7,4.7,5.4,5c38,3.2,134.1,1.9,171.3-2.3
	c16.5-1.9,28.3,0.3,39.7,2.3c9.9,1.8,20,3.6,32.5,2.6c10.5,4.5,18.2,9.8,22.6,15.7c3.1,4.2,12.6,16.8-9.8,43
	c-46.7,54.8-91.2,71.2-140,66.1c-19.8-18.5-41.3-33.2-58.1-39.4l-4.3-1.6c-121.4-44.4-158.7-65.5-168.6-75.3
	c-2.2-2.2-5.8-2.4-8.2-0.3c-2.4,2.1-2.7,5.7-0.8,8.2c38.2,49.4,97.8,73.5,145.7,92.9c4,1.6,8,3.2,11.8,4.8
	c28.6,11.7,53.8,18.9,76.7,21.8c1.5,1.4,3,2.9,4.4,4.3c-3.7-0.1-7.3-0.2-10.8-0.3c-74.2-2-128.2-3.5-181.4,98.3
	c-1.9,1.7-3.7,3.5-5.5,5.3c-2.3,2.3-2.3,6.1,0,8.5c1.2,1.2,2.7,1.8,4.2,1.8c0.6,0,1.1-0.1,1.6-0.3c2.7,0.7,5.6-0.5,6.9-3.1
	c0.8-1.6,1.6-3.2,2.4-4.8c64.3-58.8,152.7-64.5,232.8-14.1c1.8,1.2,4.1,1.2,6,0.2c1.9-1,3.1-3,3.1-5.2c0.5-27.1-17-54.9-32.2-74
	c37.6-0.2,80.7-3.5,131.7-19.4c-0.4,0.8-0.9,1.7-1.3,2.5c-31.5,59.8-56.1,117.3-77.2,181.1c-24.4,73.4-67.5,123.4-128.2,148.7
	c-82.8,34.5-201,20.9-316.2-36.3c-12.7-6.3-30-14.3-51.9-24.5c-132.8-61.4-409.1-189.2-598.6-373.3
	c-103.6-100.7-185.2-338.5-220-440c-7.2-21.1-12.5-36.4-15.6-43.5c-3.8-8.8-9.5-22.8-14.6-38.9c3.2-1.3,6.4-2.8,9.5-4.5
	c20-10.9,33.1-27.7,37.1-47.3c3.9-19.4-3.9-55.6-22.6-65.8c-7-3.8-18.3-5.6-32,7.7c-22.4,21.8-17.3,65-6.7,102.3
	c-17.8,5-37,4.8-52-1.1c-34.2-13.5-63.7-45-78.8-84.3c-11.6-30.1-8.6-70.9,9-124.8c2.5-7.6,5.2-15.3,8.1-23
	c45.6-41.3,73.3-90.3,67.7-149.6c0-0.1,0-0.1,0-0.2c0-0.1,0-0.2,0-0.3c0-0.1,0-0.2-0.1-0.3c0-0.1,0-0.2-0.1-0.3
	c0-0.1-0.1-0.2-0.1-0.3c0-0.1-0.1-0.2-0.1-0.2c0-0.1-0.1-0.2-0.1-0.3c0-0.1-0.1-0.2-0.1-0.2c0-0.1-0.1-0.2-0.1-0.3
	c0-0.1-0.1-0.2-0.2-0.3c0-0.1-0.1-0.1-0.1-0.2c-0.1-0.1-0.1-0.2-0.2-0.3c0-0.1-0.1-0.1-0.1-0.2c-0.1-0.1-0.2-0.2-0.2-0.3
	c0,0-0.1-0.1-0.1-0.1c-0.1-0.1-0.2-0.2-0.3-0.3c-0.1,0-0.1-0.1-0.2-0.1c-0.1-0.1-0.2-0.1-0.3-0.2c-0.1,0-0.1-0.1-0.2-0.1
	c-0.1-0.1-0.2-0.1-0.3-0.2c-0.1-0.1-0.2-0.1-0.3-0.1c-0.1,0-0.1-0.1-0.2-0.1c0,0-0.1,0-0.1,0c-0.1,0-0.2-0.1-0.3-0.1
	c-0.1,0-0.2-0.1-0.2-0.1c-0.1,0-0.2-0.1-0.3-0.1c-0.1,0-0.2-0.1-0.3-0.1c-0.1,0-0.2,0-0.3-0.1c-0.1,0-0.2,0-0.3,0
	c-0.1,0-0.2,0-0.3,0c-0.1,0-0.2,0-0.3,0c-0.1,0-0.2,0-0.2,0c-0.1,0-0.2,0-0.4,0c0,0-0.1,0-0.1,0c-0.1,0-0.1,0-0.2,0
	c-0.1,0-0.2,0-0.3,0c-0.1,0-0.2,0-0.3,0.1c-0.1,0-0.2,0-0.3,0.1c-0.1,0-0.2,0.1-0.3,0.1c-0.1,0-0.2,0.1-0.2,0.1
	c-0.1,0-0.2,0.1-0.3,0.1c-0.1,0-0.1,0.1-0.2,0.1c-0.1,0-0.2,0.1-0.3,0.2c-0.1,0-0.2,0.1-0.2,0.1c-0.1,0.1-0.2,0.1-0.2,0.2
	c-0.1,0.1-0.2,0.1-0.2,0.2c-0.1,0.1-0.1,0.1-0.2,0.2c-0.1,0.1-0.2,0.1-0.3,0.2c-0.1,0.1-0.1,0.1-0.2,0.2c-0.1,0.1-0.2,0.2-0.2,0.3
	c-0.1,0.1-0.1,0.1-0.2,0.2c-0.1,0.1-0.1,0.2-0.2,0.3c-0.1,0.1-0.1,0.2-0.2,0.2c-0.1,0.1-0.1,0.2-0.2,0.2c-0.1,0.1-0.1,0.2-0.2,0.3
	c0,0-0.1,0.1-0.1,0.1c-4.9,10.5-10.7,22.3-16.9,34.8c-16.3,33.2-35.1,71.4-49.8,110c-83.1,73.8-227.3,122.5-335.5,159.1
	c-57.4,19.4-102.8,34.7-126.3,49.2c-84.8,52.4-150.4,118.5-194.8,196.4c-37.5,65.8-60.1,140.2-67.2,221.1
	c-5.7,65.4-1.3,133.2,13.1,201.6c10.9,51.8,27.7,102.6,46.1,139.4c1,2,3.1,3.3,5.4,3.3h0c2.3,0,4.4-1.3,5.4-3.4
	c42.1-86.3,82.8-121.7,126-159.2c47.3-41.1,96.1-83.5,144.8-197.2c7.4-17.2,15.5-40.3,23.8-66.7c-0.5,8.2-0.7,15-0.6,20.2
	c0.4,31,3.6,60.9,8.9,90.8c-8.3,35.4-13.1,71.4-17.7,106.5c-3.1,23.5-6.4,47.8-10.6,71.5c-15.9,88.9-14.1,158,6,231
	c20.2,73.4,58.5,130.1,116.9,173.1c56.3,41.4,125.1,66.3,191.1,87c79.7,25,112.8,58,136.2,135.9c0.8,2.6,3.2,4.3,5.7,4.3
	c0.6,0,1.2-0.1,1.7-0.3c2.9-0.9,4.6-3.7,4.2-6.6c25.5-29.3,44.1-62.8,55.4-99.5c10.6-34.5,14.7-71.9,12.2-111.1
	c-4.5-70.7-31-146.9-74.6-214.5c-39.3-60.9-101-93.2-160.7-124.3c-52.9-27.6-107.6-56.2-145.9-104.7c-39.9-50.6-64-106.8-89.5-166.3
	c-2.9-6.8-5.9-13.7-8.8-20.6c-1-2.3-3.3-3.7-5.8-3.6c-2.5,0.1-4.7,1.8-5.4,4.1c-1,3-1.9,6.1-2.9,9.1c-2.7-20.4-4.3-41-4.6-62.1
	c-0.2-14.6,1.9-42.9,5.8-78c2.9-10.4,5.8-21,8.7-31.6c10.6,121.4,70.7,217.9,179,287.2c58.6,37.5,135.7,29.7,203.8,22.8
	c6.2-0.6,12.3-1.2,18.2-1.8c66.9-6.4,122.3,10.4,191.2,57.9c1,0.7,2.2,1.1,3.4,1.1c1,0,2.1-0.3,3-0.8c2-1.2,3.2-3.4,3-5.7
	c-4.8-58.3-12.9-123-22.7-182.2c-11.5-69.4-46.2-143-90.7-191.8c-74.9-82.3-162.6-111.6-220.6-130.9c-19.5-6.5-36.3-12.1-47-18
	c-52-28.9-91.4-55-117-77.5c-15.8-13.9-26.5-26.5-31.9-37.6c-0.8-8.7-0.9-17.6-0.3-26.9c3-1.9,6.1-3.9,9.5-5.9
	c0.6-0.4,1.2-0.9,1.6-1.4c85.4-30.6,177.5-69,242.6-120.2c-16.7,49.6-24.6,98.4-9.9,136.6c16.3,42.3,48.2,76.4,85.5,91.1
	c17.3,6.8,39.5,7.1,59.8,1.4c5,15.7,10.6,29.8,14.9,39.7c2.9,6.7,8.1,21.8,15.2,42.7c35.1,102.4,117.3,342,223,444.7
	c191,185.6,468.6,313.9,602,375.6c21.9,10.1,39.1,18.1,51.6,24.3c53.3,26.5,109.5,44.5,162.4,52.3c19.7,2.9,38.6,4.3,56.8,4.3
	c39.3,0,75.1-6.7,107-19.9c64.1-26.7,109.5-79.2,135-156c20.9-63.1,45.2-120.1,76.5-179.2c2.4-4.5,4.8-9.1,7.1-13.6
	c61.4-21.7,133.8-61.8,220.7-135c153.7-129.4,265.5-263.9,332.5-399.8C3943.1,2825.4,3968.2,2703.4,3958.7,2582.2z M3560,1145.8
	c-4.2-1.5-8.4-3-12.5-4.5c-10-6.5-20.3-13-31-19.7c-37.1-23.3-75.4-47.5-105.2-74.8c-45.6-41.8-101.1-66.1-150-87.4
	c-3.9-1.7-8.1-3.6-12.6-5.6c-2.8-1.3-5.8-2.6-8.8-4c-10.7-6.1-22.8-11.4-37-15.6c-0.7-0.2-1.4-0.3-2.1-0.2
	c-17.3-6-35.4-10.5-52.4-10.8c4-2.8,8.2-5.6,12.7-8.4c12.3-6.5,26.1-11.5,40-15.2c12.8,0,31.2,2.2,50.2,4.4
	c36.2,4.2,79.5,9.3,114.3,4.3C3467.1,948.7,3531.6,1051.5,3560,1145.8z M3485.8,1116.4c-40.2-17.7-80.3-38.4-122.4-62.9
	c-27.9-16.3-46.6-35.5-64.6-54.2c-6-6.2-12-12.4-18.2-18.3c42.6,19.1,85.4,40.6,122.5,74.6
	C3427.2,1077.7,3456.3,1097.5,3485.8,1116.4z M3247.6,891.4c7-0.6,13.4-1,19.1-1.1c24.4-0.4,47.3,2.4,68.8,8
	c-27,0.2-56.8-3.3-82.7-6.3C3251,891.8,3249.3,891.6,3247.6,891.4z M3192.5,863.1c13.9-6.9,29.6-9.4,46.5-9.4
	c21.6,0,45.2,4.1,69.5,8.3c33.9,5.8,68.8,11.9,103.2,8.3c-7.6,14.5-23.8,22.1-44.3,25.6c-31.8-12.2-65.7-18.1-100.9-17.5
	c-20.4,0.3-44.5,3.2-67.6,9.2c-7,0.1-12.7,0.9-16.8,2.6c-9.7,4.1-18.7,9-26.9,14.1c-4.6,2.5-9,5.2-13.2,8.1
	C3144.8,900.7,3148.8,884.8,3192.5,863.1z M3133,936.3c30.8-5.7,70.2,10.2,101,23.9c22.9,13,39.3,29.9,56.2,47.4
	c18.6,19.2,37.9,39.1,67.2,56.2c63.5,37.1,122.8,65.4,184.6,88.2c0.9,0.6,1.8,1.1,2.6,1.7c-82.1,13.4-174.2,20.5-251-14.4
	c-23.9-10.9-57-26.7-87.6-46.5c-2.1-9.1-4.7-18.3-8.5-27.3c-5.2-12.4-19.4-43.5-35.8-72.4c-15.1-26.6-26.2-41.2-34.5-49.1
	C3128.9,941.4,3130.8,938.8,3133,936.3z M3121.6,955.5c6.8,7.3,16.5,20.3,29.7,43.6c16.1,28.4,30.1,59,35.2,71.1
	c1.7,4.1,3.2,8.2,4.5,12.4c-1.8-1.3-3.5-2.6-5.3-3.9c-40.7-30.4-63.2-62.1-67.1-94.2C3117.3,974.2,3118.3,964.4,3121.6,955.5z
	 M3108.4,947.6c1,0.4,2,0.6,3.1,0.6c-4.8,11.5-6.5,24.2-4.8,37.8c5.6,46.4,43.4,84.2,88.7,114.3c1.1,5.3,2.1,10.7,3.1,16.1
	c1.7,9.3,3.5,19,6,28.8c1.1,4.2,2.1,9.4,3.3,14.9c2.5,12,5.3,25.6,9.7,37.5c-37.1-25.6-51.9-57.7-71.3-99.9
	c-2.5-5.5-5.1-11.1-7.9-16.9c-3.1-6.7-7.6-14.6-12.3-23C3106,1022.1,3078.6,973.1,3108.4,947.6z M3159.9,739.8l4.7-1.8
	c39.5-15.4,90.9-35.4,112.8-72.2c-7,38.9-46.8,95.4-68.9,115.9c-38.7,35.9-104.8,58.6-181.4,84.8c-41.4,14.2-85.2,29.2-129.5,47.8
	c-19.3,5.1-36.3,12.8-51,23.1c-2.1,1-4.2,2-6.3,3.1C2866.9,897.2,2930.1,829.7,3159.9,739.8z M2024.6,2348.3
	c-16.2,143.6,91.6,307.1,320.6,486c127.8,99.9,110.1,262.9,99.5,360.4c-1.7,15.4-3.2,29.2-4,41.1c-34.8-66.9-88.1-101.3-148.9-140.6
	c-7.3-4.7-14.9-9.6-22.6-14.7c-206.3-135.4-316.3-277.5-336.2-434.5c-23.4-184.5,54.2-320.7,130.5-406.9
	C2041.9,2273.9,2028.9,2310.4,2024.6,2348.3z M2439.7,1770.7c-12.2,13.9-25.9,26.8-40.4,37.6c-30.8,23.1-61.7,34.4-87,31.9
	c-31.2-3.1-54.1-26.5-68.2-69.5c-4-12.2-7.1-24.2-10-35.8c-9.2-36-18-70-50-99.4c-15.8-14.6-34.4-26.4-52.3-37.8c-1.6-1-3.1-2-4.7-3
	c32.6-17.9,63.6-37.5,93.4-59.1c82.6,22.3,139.1,89.2,194.3,161.8C2435.6,1724.5,2440.5,1747.1,2439.7,1770.7z M2012.9,1585.6
	c9.2-22.1,17.9-42.9,22.6-49.8c2-2.9,3.8-5.8,5.4-8.8c1,2.1,2,4.1,3.1,6.1c5.1,9.4,11.2,17.8,18,25.4
	c-25.8,20.8-48.3,47.1-69.2,73.8C1998.1,1620.7,2004.6,1605.4,2012.9,1585.6z M1981.5,1628c-7-22.9-9.9-45.3-10.8-67.9
	c8.9-11.2,18.7-22.5,28.5-33.8c10.4-11.9,20.8-24,30.5-36.4c1,7.5,2.7,14.8,5,22.1c-2.5,5.8-5.5,11.5-9.3,17
	c-5.4,7.9-13.9,28.3-23.7,52C1995,1597.3,1988,1614.3,1981.5,1628z M2314.8,1323.4c3.5,18.6,17.4,30,42.6,34.8
	c-1.3,0.3-2.5,0.5-3.8,0.8c-32,7.4-61.8,22.3-90.6,36.8c-34.4,17.2-69.9,35-108.3,39.3c-43.6,4.9-68.1-13.8-84.3-47.4
	c33.1-48.5,88.8-86.8,141.1-94.9c11.3-1.8,22.6-2.6,34-2.6c50,0,101.1,17.1,153.9,51.7c-27.9-1.7-54.7-6.5-74.7-24
	c-1.9-1.7-4.7-2-6.9-0.7C2315.5,1318.4,2314.3,1320.9,2314.8,1323.4z M2071.1,1412.5c1.5,2.1,3.1,4.1,4.7,6.1
	c19.5,23,45.7,32.4,80.1,28.5c40.5-4.5,77.1-22.8,112.4-40.5c28.2-14.1,57.4-28.8,88-35.8c9.3-2.1,17.9-3.5,26-4.1
	c-12.1,15.5-25.9,31.4-41.6,47.6c-39.5,41-79.9,76.8-122.7,108.2c-2-0.5-4.1-1-6.1-1.4c-49.4-10.6-93.5-2-135.1,26.4
	c-1.8,1.2-3.6,2.5-5.4,3.8c-6.4-7.1-12.2-15-17-23.8c-2.7-5.1-5-10.1-6.9-15.2c6.3-16.6,8.8-33.8,11.2-50.6
	c1.2-8.3,2.4-16.3,3.9-24.2C2066.3,1429.4,2069.2,1421,2071.1,1412.5z M2060.9,1403c-4.5,10-7.4,20.3-9.6,30.7
	c-2.4,5.3-5.1,10.5-8.1,15.7c2.9-14.3,7.9-27.3,13.2-38.1c2-4,4.1-8,6.4-11.9c0.2,0.3,0.3,0.6,0.5,0.9
	C2062.3,1400.9,2061.4,1401.8,2060.9,1403z M2045.8,1468c-1.1,7.3-2.3,14.5-3.9,21.6c-0.7-4.8-1.1-9.6-1.1-14.3
	C2042.5,1472.9,2044.2,1470.4,2045.8,1468z M2002.9,1638.9c21.7-27.6,43.5-52.6,67.4-71.8c10.3,9.9,21.7,18.4,33.4,26.4
	C2071.8,1610.1,2038.4,1625.2,2002.9,1638.9z M2045.6,1656c25.1,10.4,42,37,54.9,66.4c-6-8.2-12.7-16-20.1-23.2
	c-15.8-15.3-34.1-21.1-50.2-26.3c-13.9-4.4-26.4-8.4-36.2-17.7C2013.5,1649.5,2030.5,1649.7,2045.6,1656z M2079.9,1559.8
	c27-19.4,56.7-31.2,92-31.2c10.5,0,21.5,1.1,33.1,3.3c-28.5,20.2-58.1,38.5-89.3,55.3C2102.9,1578.7,2090.7,1569.9,2079.9,1559.8z
	 M2469.6,1729.1c-5.2,9.2-11.3,18.4-18.1,27.3c-1.5-20.7-8.5-42-27-66.4c-26.9-35.4-56-72.5-90.1-103.1
	c-32.7-29.4-66.1-49.2-101.6-60.4c40.5-30.5,79-64.9,116.7-104c18.5-19.2,34.7-38.1,48.4-56.4c15.1,0.3,29,2.8,43.2,6.3
	c4.2,3.4,8.4,7,12.7,10.6c-6,2.8-11.6,5.7-17.1,8.8c-6.4,3.1-12.6,6.6-18.3,11.1c-24.3,19-42,40.8-61,65.2c0,0,0,0,0,0c0,0,0,0,0,0
	c-2,2.6-1.6,6.4,1,8.4c2.6,2,6.4,1.6,8.4-1c28.4-36.2,48.9-57.5,74.9-72.9c0.3-0.2,0.7-0.3,1-0.5c-1.3,1.4-2.5,3-3.8,4.7
	c-4.2,5.9-6.9,12.8-8.3,20.3c-1.7,2.3-3.4,4.6-4.9,7c-16.9,25.5-22,50.1-15.6,75.2c0.6,2.2,2.4,3.9,4.6,4.4c2.3,0.5,4.6-0.4,6-2.2
	c6-7.8,11.3-16.6,16.2-25.8c9.7,31.9,26.7,63.5,37.2,81.5c12.8,21.8,28,44.2,44.5,65.7C2504.7,1666.9,2486.4,1699.4,2469.6,1729.1z
	 M2466.7,1309.9c7.8,21.4,13.8,30.7,22.5,38.3c-1.9-0.2-3.9-0.3-5.9-0.4c-3.5-0.7-7-1.3-10.6-1.8c-14.2-13.2-26.7-26.5-37.5-41
	c8.3-17.7,13.6-34.6,16.1-50.4C2457.1,1283.4,2466.5,1309.4,2466.7,1309.9z M2459.2,1215.2c0.9,7.3,1.7,15.3,2.4,23.5
	c0.3,3.6,0.7,7.3,1,10.9c-0.2-0.9-0.3-1.8-0.5-2.6C2460,1234.6,2459,1223.9,2459.2,1215.2z M2486.1,1389c-0.3,2.1-0.5,4.3-0.7,6.4
	c-0.8-0.7-1.5-1.4-2.3-2.1C2484.1,1391.8,2485,1390.4,2486.1,1389z M2483.1,1371.2c-0.1,0.1-0.2,0.1-0.3,0.2
	c-5-1.4-9.9-2.7-14.7-4.1c-7.2-2-14.3-4-21.2-5.8c-0.7-0.6-1.4-1.2-2.1-1.7c8.5-0.3,16.9-0.5,24.9-0.4
	C2473.9,1363.3,2478.4,1367.2,2483.1,1371.2z M2427.3,1293.4c-16.9-26-28.9-56.4-36-97.3c-2.5-14.4-4.7-28.9-6.6-43.6
	c29.5,14.8,47.6,35.2,53.8,61C2444,1236.5,2440.1,1263.5,2427.3,1293.4z M2429.3,1317c7.3,9.4,15.4,18.3,24.1,27
	c-9.2-0.6-18.5-0.9-27.7-1.1c-1.1,0-2.3-0.1-3.4-0.1c-1.9-1.4-3.8-2.7-5.7-4C2421.3,1331.4,2425.5,1324.2,2429.3,1317z
	 M2457.1,1414.5c-4.8,9.7-9.3,19.7-13.8,29.6c-0.6,1.4-1.2,2.8-1.9,4.2c-0.4-5.7-0.3-11.1,0.4-16.1
	C2446.6,1426,2451.7,1420.2,2457.1,1414.5z M2432.2,1468.3c-4,8.3-8.2,16.3-12.7,23.7c-0.6-14.5,3.4-28.2,10.1-41
	C2430.1,1456.7,2431,1462.5,2432.2,1468.3z M2523.5,1619.7c-16.3-21.7-29.7-42.1-39.2-58.5c-17.1-29.3-32.6-62.8-39.4-91.7
	c3.2-6.8,6.3-13.8,9.4-20.6c6.7-14.9,13.5-30,21.4-43.8c2.1,1,4.3,2.2,6.5,3.7c0.9,0.9,1.9,1.8,2.8,2.7c0.6,12.1,3.3,24.8,9.7,40.6
	c0.6,1.5,1.3,3.1,2,4.6c3.8,17.6,9.9,35,15.3,50.2c2.5,6.9,4.8,13.5,6.6,19.3c0.8,2.5,3.1,4.2,5.7,4.2c0.1,0,0.2,0,0.3,0
	c2.7-0.1,5-2.1,5.6-4.7c4.7-21.9-5.8-41.7-15.1-59.2c-2.5-4.6-4.8-9.1-6.9-13.5c-1.4-6.8-2.4-13.7-2.8-20.3
	c5.4,7.2,10.3,15.1,14.4,22.7C2549.2,1510.3,2542.9,1566.6,2523.5,1619.7z M2497,1401.2c0.2-4.4,0.7-8.8,1.3-13.5
	c0.7,0.2,1.5,0.3,2.2,0.5c0.4,0.6,0.9,1.2,1.3,1.8C2499.9,1393.6,2498.3,1397.3,2497,1401.2z M2890.9,1568.8
	c-8.6,16.2-16.5,34.7-24.9,54.4c-32.2,75.5-68.8,161.1-159.7,142.3c-64.1-13.2-128.6-76.5-174.3-134.8c4.2-10.9,7.9-21.9,10.9-32.9
	c15.2-55.5,11.2-104-12.4-148.1c-2.7-5.1-11.8-21.2-24.2-35.2c0.8-5.3,2.3-10.4,4.4-15.2c0.8,0.7,1.6,1.4,2.4,2.1
	c0.5,0.9,1,1.9,1.6,2.8c11.2,19.8,28.9,34.6,52.5,44c20.3,8,44.6,12.1,74.3,12.6c1.2,0,2.4,0,3.6,0c16.3,5,32,9,47.2,11.9
	c33.9,6.5,68.8,6.3,102.6,6.1c11.1-0.1,22.6-0.2,33.8,0c3.4,0.1,6.9,0.1,10.3,0.1c32.8,0,66.2-2.3,95-4.9
	C2925.2,1502.8,2909.1,1534.7,2890.9,1568.8z M2512,1303.7c0.1-3.2,0.1-6.4,0.2-9.7c1.3-4.8,2.7-9.7,4.3-14.8
	c0.1,2.3,0.1,4.7,0.2,7.1c0.1,2.5,0.3,5.1,0.6,7.8C2515.5,1297.2,2513.7,1300.4,2512,1303.7z M2520.1,1314.4
	c0.2,1.3,0.4,2.6,0.5,3.9c-2.8,9.3-5.5,18.8-8.1,28.4c-0.2-4.1-0.4-8.1-0.5-12.1C2514.2,1327.8,2516.9,1321.1,2520.1,1314.4z
	 M2546.1,1383c13.4-0.1,26.4-0.4,39.2-1c23.4-1.1,40.9,3.6,59.4,8.5c8.5,2.3,17.2,4.6,26.9,6.5c3,0.6,6-1.2,6.9-4.1
	c0.9-2.9-0.6-6.1-3.4-7.3c-18.6-7.8-64.6-25.1-105.5-26.3c6-8,11.3-16.5,16-24.8c69.1-24,160.4-19.8,271.5,12.4
	c42,12.2,67.6,30.3,78.2,55.5c1.1,2.6,2,5.2,2.8,7.9c-17.1,2.3-34,4-49.8,5.7c-20,2.1-38.8,4-54.1,6.7c-10.5,1.8-21.9,4.1-34.1,6.4
	c-45.8,8.9-102.4,19.8-153.2,19.8c-24.3-7.6-50-17.6-77.6-30.1c-1.6-0.7-3.2-1.4-4.7-2.2c-16.1-7.3-30.5-13.9-41.8-22.6
	C2531.3,1391.8,2539,1388,2546.1,1383z M2529.4,1362.8c0.5-1.1,0.9-2.2,1.3-3.3c12-6.4,24.2-12.6,36.6-17.9
	c-4.1,6.4-8.6,12.6-13.4,18.1c-8.2,0.7-16,2.4-23.1,5.1c-0.3-0.7-0.7-1.3-1.2-1.8C2529.5,1362.9,2529.4,1362.8,2529.4,1362.8z
	 M2600.6,1445.1c-24.9-4.5-44.4-13.1-58.7-25.9c5.7,2.8,11.7,5.5,17.7,8.2c1.6,0.7,3.1,1.4,4.7,2.1
	C2576.7,1435.2,2588.8,1440.4,2600.6,1445.1z M2937.3,1461.5c-32.4,3.1-71.3,5.8-108.5,5.2c-11.3-0.2-22.9-0.1-34.1,0
	c-33.2,0.2-67.5,0.5-100.2-5.9c-3-0.6-6.1-1.2-9.1-1.9c40.6-3.5,81.9-11.5,117-18.3c12.1-2.3,23.5-4.6,33.9-6.4
	c14.8-2.6,33.5-4.5,53.2-6.6c16-1.6,33.3-3.4,51-5.8C2941.8,1434.2,2940.6,1447.5,2937.3,1461.5z M3041.5,1420.5
	c-12.9,25.9-36.5,33.5-70.2,37.4c-6.6,0.8-13.8,1.6-21.5,2.4c2.8-13.8,3.9-27.2,2.4-40c31-4.7,62.8-11.5,90.4-23.1
	c3-1.2,5.9-2.5,8.7-3.9C3048.8,1403.1,3045.6,1412.3,3041.5,1420.5z M2968.1,1050.6c84.6,57,154.2,113.6,149.6,230.1
	c-1.7,42.2-21.2,70.3-49.9,89.6c2.9-20.5,3.8-41.4,4.6-60.1l0.2-5.2c2.5-54.9-15.1-100.9-57.1-149c-38.4-44-97.9-91.3-197.7-156.9
	C2864,996.6,2913.5,1013.9,2968.1,1050.6z M2810,970.5c-1.5,2.3-3,4.4-4.6,6.2c-0.1-1.1-0.3-2.2-0.4-3.3
	C2806.7,972.5,2808.4,971.5,2810,970.5z M2806.5,1006c101.7,66.6,161.8,114,200,157.8c39.8,45.6,56.5,89,54.1,140.6l-0.2,5.3
	c-1,21.4-2,45.9-6.1,68.7c-30,16.1-67.4,24.6-104.4,30.2c-1-3.7-2.2-7.3-3.7-10.9c-12.1-28.7-40.2-49.1-85.9-62.3
	c-107.2-31.1-196.7-36.4-266.5-16.1c0.7-1.3,1.4-2.6,2-3.9c2.3-4.3,4.4-8.4,6.4-12c19-34.2,54.1-83.3,84.5-111.1
	c33.7-30.9,57.5-57.2,79.3-100.6c2-4,5.4-10,9.3-17C2787.8,1052.6,2804.5,1022.9,2806.5,1006z M2794.7,1003
	c-0.3,13.3-18.8,46.1-29.9,65.7c-4,7.1-7.5,13.2-9.6,17.5c-20.9,41.8-43.9,67.2-76.6,97.2c-31.4,28.7-67.5,79.1-86.9,114.2
	c-2.1,3.7-4.2,7.9-6.5,12.2c-2.5,4.7-5.1,9.8-7.9,14.9c-2,0.7-4,1.5-5.9,2.3c-12.6,5-24.8,10.8-36.8,17c1.3-4.5,2.6-9.1,3.8-13.5
	c6-22.1,11.7-43,26.8-59.6c15.2-16.7,40.7-33.9,76-51.2c2.5-1.2,3.9-4.1,3.2-6.9c-0.7-2.8-3.2-4.6-6.1-4.5
	c-25.4,1-51.8,12.3-75.5,32c18-40.1,38.8-75.5,61.7-106.8c20.1-24.6,43.5-49.7,70.3-75.2c32.1-30.6,65.2-49.3,100.1-56.3
	C2794.8,1002.3,2794.8,1002.6,2794.7,1003z M2550,1270.3c0.3-0.7,0.5-1.4,0.8-2c3.2-3.5,6.4-6.9,9.7-10.1c-1.5,1.5-3,3-4.3,4.5
	C2554,1265.2,2551.9,1267.7,2550,1270.3z M2794.6,990c-9.7,1.8-19.3,4.5-28.8,8c9.3-6.3,18.6-12.2,28-18
	C2794.1,983.4,2794.4,986.7,2794.6,990z M2448.7,775.7c63.4-10.3,150.6,4.7,217,37.4c55,27.1,112.7,80.3,126.2,153.7
	c-20.5,12.2-40.8,25.6-60.6,40.6c-47.7,36-88.3,77.8-122.1,125.9c-11.4,14.4-21.6,28.8-30.9,43.1c-20.6,31.9-35.9,63.7-45.6,95
	c-1.4,1.8-2.8,3.7-4.2,5.6c-0.6-27.7,2.4-47.4,16.5-70.9c24.8-41.6,38.7-81,46.3-116.1c20.5-43.7,39.8-86.6,44.5-112.7
	c3.2-17.7,5-37.4-5.2-48.9c-5.7-6.4-14.3-9.3-25.8-8.8c-5.6-0.6-9.1,1.3-11.2,3.2c-7.5,6.7-6.9,21.5-6,46.1
	c0.3,8.3,0.7,17.8,0.7,28.1c0.2,24.1-1,54.5-8.5,89.3c-2.5,5.4-5,10.7-7.5,16c-15.7,33.3-30.5,64.8-36.8,84.4
	c-6,18.7-12,35.6-17.3,50.6c-1.9,5.3-3.7,10.5-5.5,15.5c-0.1-17.3-0.8-35.4-3.1-54.9c-3.4-28.6-3.8-58.3-4.2-87
	c-0.5-36.2-1.1-73.7-7.5-109.9c-5.6-31.5-19.8-58-42.4-78.9c-19.6-18.1-45.6-32-77.4-41.3c-4.3-1.3-8.6-2.4-12.9-3.5
	C2368.9,826.4,2388.4,785.5,2448.7,775.7z M2600.3,996.8c-0.1-10.5-0.4-20-0.7-28.4c-0.6-15.8-1.2-33.7,2.1-36.7
	c0.2-0.2,0.6-0.2,1-0.2c0.4,0,0.8,0,1,0.1c0.4,0.1,0.8,0.1,1.2,0.1c8-0.4,13.5,1.1,16.7,4.8c6.9,7.8,4.6,25.9,2.3,38.8
	c-3,16.9-13.3,42.8-25.7,70.9C2600,1027.7,2600.4,1011.2,2600.3,996.8z M2364.6,889.4c3.4,0.9,6.8,1.8,10.1,2.8
	c64.2,18.9,101.7,56.2,111.3,110.8c6.2,35.2,6.8,72.2,7.3,107.9c0.4,29,0.9,59,4.3,88.2c3.8,32.4,3.2,61.2,2.6,89
	c0,1.4-0.1,2.9-0.1,4.3c-2.5,9.9-4.4,19.4-5.3,28.7c-3.3-9-6.2-16.7-9.3-22.3c-7.7-13.7-9.9-37.9-12-61.2
	c-1.8-19.5-3.5-37.9-8.4-49.9c-0.8-2-2.6-3.4-4.8-3.7c-2.1-0.3-4.3,0.6-5.6,2.3c-3.5,4.5-5.6,10.6-6.7,17.6
	c-9.1-28.2-31-50.2-65.3-65.5c-5.5-45.6-8.7-92.3-12-137.8c-1.5-20.9-3-42.4-4.7-63.3C2364.9,920.9,2364.2,904.8,2364.6,889.4z
	 M2034.8,974c36.6-50.8,96.4-84.3,164.2-91.9c16.7-1.9,40-3.8,66.3-3.8c27.3,0,57.9,2,87.5,8.3c-0.7,18,0.3,35.9,1.6,51.6
	c1.7,20.8,3.2,42.3,4.7,63.2c3.1,43.5,6.2,88.1,11.2,131.8c-1.8-0.7-3.6-1.3-5.5-2c-39.5-13.5-63.6-39.7-87-65
	c-43.8-47.6-85.1-92.5-214.5-36.4c-23.5,10.2-44.8,22.4-63.7,36.7C2002.7,1033.4,2014.5,1002.1,2034.8,974z M2068,1040.8
	c55.9-24.2,97.4-30.7,130.4-20.4c29.3,9.2,49.3,30.9,70.5,53.9c24.4,26.5,49.6,53.8,91.9,68.3c3.8,1.3,7.4,2.7,11,4.1
	c2.2,17.3,4.6,34.5,7.6,51.5c8.1,46.3,22,79.7,41.9,108.1c-4.2,8.4-9.1,17-14.6,25.8c-11-7.3-22-13.8-33-19.6
	c-55.3-29.3-110.5-39.9-164.1-31.5c-53,8.3-109.4,45.8-144.8,93.9c-4.5-11.6-8.3-24.7-11.7-38.8c-4.4-18.2-9.1-36.8-13.5-54.7
	c-12.4-50.1-25.3-101.8-36.2-152.6c-3.4-15.7-4.9-31.3-4.7-46.5C2018,1066.6,2040.9,1052.5,2068,1040.8z M1986.8,1092.4
	c0.4,12.8,2,25.8,4.8,38.9c10.9,51,23.8,102.8,36.3,153c4.5,17.9,9.1,36.5,13.5,54.7c3.6,14.8,8.3,31.8,15.3,47.7
	c-4,6.3-7.7,12.8-11,19.3c-11,22.2-16.6,44.2-17,65.5c-11.7,16-25.2,31.6-38.5,47c-6.6,7.6-13.3,15.3-19.7,23.1
	c0.1-19.1,1.4-38.3,2.7-57.9c1.4-20.8,2.8-42.4,2.9-64.5c0-7.3,0.1-14.8,0.2-22.1c0.7-61.9,1.4-126-30-180.9
	c-6.6-11.5-14.1-23.2-22.3-34.9C1937.5,1149.5,1957.6,1119,1986.8,1092.4z M1943.4,1611.8c7.9,9,16.8,17.7,27,25.8
	c-2.9,3.4-5.6,6.9-8.2,10.4c-3-2.5-6.1-5-9.1-7.5C1949.7,1630.9,1946.4,1621.4,1943.4,1611.8z M1944.8,1653.1
	c-2.7-0.3-5.4-0.6-8.1-0.8c0.2-2.1,0.4-4.3,0.6-6.5c2.2,1.5,4.4,3,6.6,4.5c0.1,0.4,0.3,0.8,0.4,1.2
	C1944.4,1652,1944.6,1652.5,1944.8,1653.1z M1945.8,1596.1c4.1-7.1,8.7-14.2,13.7-21.2c1.2,14.4,3.3,28.9,6.9,43.6
	C1958.7,1611.3,1951.9,1603.8,1945.8,1596.1z M1918.6,1194.6c6.3,9.2,12,18.4,17.2,27.5c29.8,52,29.1,114.4,28.4,174.8
	c-0.1,7.3-0.2,14.8-0.2,22.2c-0.1,21.8-1.5,43.1-2.9,63.8c-1.7,24.9-3.3,49.2-2.6,73.4c-6.5,8.4-12.6,16.9-18.1,25.6
	c0.3-46.5-4.6-93.5-22.7-116c-5.3-6.6-11.5-10.9-18.6-13c-1.9-29.3-1.5-59.9-1.1-91c0.2-14.2,0.4-28.9,0.3-43.3
	C1898.2,1280.2,1903,1236.7,1918.6,1194.6z M1927.3,1542.9c-4.2-14.9-9.4-29.1-14.9-43.8c-3.9-10.5-7.9-21.3-11.5-32.5
	c2.7,1.6,5.2,3.9,7.5,6.7C1918.4,1485.7,1924.8,1509.5,1927.3,1542.9z M1378.8,1253.5c-3.6-48.5,34.9-73.6,72.2-97.9
	c21.8-14.3,42.5-27.7,53.2-45.4c0.1-0.2,0.3-0.5,0.4-0.8c15.7-36.5,57.5-53.6,89.8-61.6c81.3-20,178-3.8,203.4,16.9
	c43.2,35,82.5,76.5,112.5,118c-16.2,40.2-24.3,85.7-24,135.8c0.1,14.3-0.1,29-0.3,43.1c-0.4,30.7-0.8,61.7,1.3,91.9c0,0,0,0-0.1,0.1
	c-1.3,1.5-1.7,3.6-1.1,5.5c0.7,2.5,1.5,4.9,2.2,7.3c4,42.5,13.6,83.2,35.8,119.1c1.2,5.5,2.4,10.8,3.9,16.1c0,1.1-0.1,2.3-0.1,3.4
	c-1.6,3.6-3,7.2-4.3,10.9c-11.8-9.8-24-19.9-36-29.8c-2.6-2.2-5.3-4.3-7.9-6.5c-0.3-0.6-0.6-1.3-0.9-2c-2.6-11-5-22.2-7.2-33
	c-5.4-26-10.6-50.6-18.7-68.4c-1.3-2.8-4.5-4.2-7.4-3.2c-2.9,1-4.6,4-3.9,7c1.6,6.8,3.3,14.9,5,23.5c4.2,20.1,8.9,42.8,14.9,61.8
	c-52.3-40.2-106.5-73.2-161.8-98.7c-4.1-10.6-7.5-21.4-10.1-32.9c6.4-18.3,17.8-37.1,28.9-55.5c13.3-22,27-44.8,32.1-66.6
	c6-25.6-0.5-46.9-19.9-64.9c-1.9-1.8-4.7-2.1-6.9-0.9c-49.7,26.9-53.6,104.5-51.5,148.4c0.6,13.7,2.4,26.5,5,38.7
	c-2.4,7.3-4,14.5-4.6,21.8c-12.9-5.3-25.8-10.2-38.8-14.7c-65.9-22.8-132.5-34.6-199-35.3
	C1401.2,1354.2,1382.5,1303.6,1378.8,1253.5z M1882.5,1734.7c-1.8,1.1-3.4,2.1-4.9,3.1c-28.7,18-60.5,33.3-91.2,48.2
	c-20.3,9.8-41.3,19.9-61.3,30.8c-23.9,13-47.7,27.6-70.7,41.8c-49.5,30.5-100.3,61.7-155.7,78.7c26-57.6,59.7-110.1,108.5-148.1
	c38.4-29.9,87.4-51.6,149.9-66.5c9-2.1,24.1-7.3,43.2-13.9c13-4.5,27.7-9.5,42.6-14.3c7.1-0.1,14.1-0.3,21.2-0.6
	c-41.3,14.2-95.9,52.2-150.1,92.7c-2.4,1.8-3.1,5.2-1.6,7.8c1.5,2.6,4.8,3.7,7.6,2.5c7-3,16.9-7.2,28.4-12
	c51.9-21.8,134.3-56.4,176.8-78.9C1911.2,1716.7,1894.6,1727.1,1882.5,1734.7z M1924.2,1729.3c-8.7,33-11.6,66.3-14.2,97.5
	c-1.2,14.4-2.4,28.3-4.1,41.7c-10.5-28.8-11.8-61.8-3.3-93.4C1906.9,1759.1,1914.4,1743.5,1924.2,1729.3z M1893.8,1700
	c0.7,0,1.4,0,2.1,0.1c6,0.3,11.2,0.1,15.8-0.6c-38.7,19.6-103.2,47.1-149.3,66.5C1806.1,1735,1861.5,1700,1893.8,1700z
	 M1866.9,1663.4c2.3,0,4.6-0.1,7-0.1c10.2-0.2,21.4-0.4,32.7-0.2c0.7,0.5,1.3,1.1,2,1.6c-6.4,1.1-13.3,2.6-20.6,4.3
	C1880.9,1667.3,1873.8,1665.4,1866.9,1663.4z M1911.3,1651.1c-10.5-10.1-18.2-25.6-24.2-43.5c11.2,9.1,21.6,17.4,31.9,25
	c-1.2,6.1-2,12.3-2.1,18.6C1915,1651.2,1913.1,1651.1,1911.3,1651.1z M1895.2,1651c-7.5,0-14.7,0.2-21.5,0.3
	c-7.7,0.1-14.9,0.3-21.1,0.2c-5.3,0-11.1-0.8-17.4-2.1c-1-0.6-1.9-1.3-2.9-1.9c-33.4-22.2-65.7-59.2-96.1-109.9
	c-11.1-18.6-21.2-36.1-29.6-54.1c62.2,30,116.6,66.8,161.7,102.8C1874.6,1610.9,1882.7,1634.4,1895.2,1651z M1861.9,1676
	c-0.3,0.1-0.6,0.2-0.8,0.2c-9-1.6-18.2-3.2-27.4-4.1c-22-2.1-43.7-11.2-64.7-20.1c-11-4.6-22.1-9.3-33.4-13.1
	c18.1-1.1,40.7,5.8,62.8,12.5c7.6,2.3,15.1,4.6,22.3,6.6c3.1,1.6,6.2,3.1,9.2,4.4c4.8,2.1,9.9,4.2,15.1,6.1
	C1850.6,1671.5,1856.2,1674,1861.9,1676z M1725.9,1543.7c16.3,27.2,33.3,50.7,50.7,70.2c-15.6-13-30.6-28-43.7-43.8
	c-28.2-34-44.9-67.8-48.2-96.8c1.9,0.8,3.8,1.7,5.6,2.5C1699.9,1499.2,1712.4,1521,1725.9,1543.7z M1684.1,1393.9
	c-0.9-19.6-0.7-48.6,5.7-75.7c6.7-28.5,18.8-48.5,35.8-59.4c13.7,14.3,17.9,30.4,13.3,50.3c-4.7,20-17.3,40.9-30.7,63.1
	c-7.9,13.1-16,26.5-22.4,39.9C1684.9,1406.3,1684.4,1400.2,1684.1,1393.9z M1684.5,1460.1c-0.1,0-0.2-0.1-0.3-0.1c0-0.3,0-0.5,0-0.8
	C1684.3,1459.5,1684.4,1459.8,1684.5,1460.1z M1723.7,1577.7c17.6,21.2,38.6,41,59.9,57c-27.2-7.7-53.8-12.6-73.3-0.3
	c-2.1,1.3-3.2,3.8-2.7,6.2s2.4,4.3,4.8,4.8c17.1,3.1,34,10.3,51.9,17.8c17.3,7.3,35,14.7,53.4,18.7c-0.4,0.1-0.9,0.1-1.3,0.2
	c-21.1-1-41.7-3.9-61.1-10.2c-53.7-17.3-98.1-52.4-141-86.4c-6.3-5-12.9-10.2-19.3-15.2c-65.4-51-116.2-102.1-152.1-153.1
	c83.8,2.1,160.8,21.9,229.4,50.7C1673.9,1500.8,1691.9,1539.4,1723.7,1577.7z M1492.4,1951.5c60.6-16.6,115.2-50.2,168.2-82.8
	c22.9-14.1,46.6-28.7,70.2-41.5c19.7-10.7,40.6-20.8,60.8-30.5c25.1-12.1,51-24.6,75.4-38.6c-104.5,81.9-224.9,145-311.8,184.9
	c-25.3,11.6-49.5,22.2-72.1,31.6C1486,1966.8,1489.1,1959.1,1492.4,1951.5z M1458.9,1946.6c51.1-95.3,145.8-218.7,339.9-250.1
	c-0.8,0.3-1.6,0.6-2.5,0.8c-18.1,6.2-33.6,11.5-42.1,13.5c-64.2,15.3-114.7,37.8-154.5,68.7c-53.3,41.5-89,99-116.1,161.8
	C1475.5,1943.5,1467.2,1945.2,1458.9,1946.6z M1199.2,1841.9c-9-16.2-21.7-34.9-35.2-54.6c-45.2-66.4-101.5-148.9-55.1-198.4
	c10.7-11.4,20.7-22.3,30.4-32.9c64.2-70,106.7-116.3,187.6-130.3c34.6-6,68.3-8.8,101-8.8c4.8,7,9.8,14.1,15.1,21.1
	c35.9,47.5,83.2,93.8,144.6,141.6c6.4,5,12.9,10.1,19.2,15.1c43.7,34.6,89,70.5,144.8,88.4c7.4,2.4,14.9,4.3,22.5,5.8
	c-84.2,17.4-156.8,53.9-217.1,109.1c-53,48.5-88.1,103.5-112.7,150.5C1334.4,1960.6,1242.8,1920.7,1199.2,1841.9z M1452,1959.7
	c8.8-1.2,17.4-2.7,25.9-4.6c-3.5,8.5-6.8,17.1-10,25.7c-11.2,4.5-22,8.8-32.2,12.7C1440.5,1983,1445.9,1971.7,1452,1959.7z
	 M1424.7,2017.9c1.3-2.8,2.6-5.8,3.9-8.8c10.6-4,21.9-8.4,33.7-13.1c-5.4,15.2-10.5,30.4-15.4,45.7c-11.2,35.2-13.1,97.4-4.7,158.5
	c0.7,5,1.5,10.5,2.5,16.4c-17.3-33.9-42.9-70.9-65.1-98.6c10.7-26.3,21.9-51.2,33.2-74.1C1416.3,2036.8,1420.2,2028,1424.7,2017.9z
	 M1308.9,2205.8c-15.3-12.7-26.4-21.8-32.2-25.5l-1-0.7c-16.9-10.8-39.4-25.3-58.3-42.3c47.5,4.5,90,17.9,127.2,40
	c-5.2,15.3-10,30.6-14.5,45.9C1322.5,2217.1,1315.4,2211.2,1308.9,2205.8z M1326.5,2235.8c-2,7.3-4,14.6-5.9,21.8
	c-2.3-9.4-5.1-18.6-8.4-27.5c-1.2-3.1-2.4-6.1-3.7-9C1314.2,2225.8,1320.3,2230.7,1326.5,2235.8z M1176.2,2227.6c-2.1,2-4.2,4-6.2,6
	c-2.1-0.9-4.6-0.4-6.3,1.1c-20.6,18.9-38.8,38.8-54.8,60.1c0.9-2.3,1.8-4.6,2.7-6.9c2.6-6.6,5-12.8,7.2-17.7
	c7-15.6,16.1-30.6,25.6-45.2c10.3-8,21.2-15.4,32-22.6c11.5-7.8,22.7-15.3,32.9-23.4c-1.2,4.2-2.3,8.6-3.4,13
	c-1.2,4.6-2.3,9.2-3.6,13.8C1192.6,2212.8,1183.8,2220.4,1176.2,2227.6z M1194.6,2227.2c-1.3,2.8-2.8,5.3-4.4,7.6
	c-6.3,9-13.8,18.6-21.9,27.5c1.2-4.4,2.3-8.8,3.4-13.2C1178.9,2241.5,1186.6,2234,1194.6,2227.2z M1112.3,2256
	c-1.6,3.1-3.1,6.3-4.5,9.5c-2.3,5.1-4.8,11.5-7.4,18.2c-11,28.3-27.1,69.4-52.7,78.9c3.6-7.4,6.4-15,9.2-22.3
	c3.8-10.2,7.8-20.8,13.8-30.8C1082.5,2289.8,1097,2273.3,1112.3,2256z M1027.4,2303.6c-2.5-21.9,35.3-49,58.3-65.5
	c1.4-1,2.7-1.9,3.9-2.8C1077.6,2265.5,1057.2,2305.7,1027.4,2303.6z M1147.7,2149.9c3.3-4,6.8-8.2,10.1-12.5c1.2-0.5,2.4-1,3.5-1.5
	c6.2-0.3,12.4-0.4,18.5-0.4c-8.7,8.4-17.3,16.9-25.6,25.1c-11.9,11.8-24,23.9-36.7,35.6c5.4-11.7,11.7-22.8,20.7-34.7
	C1141,2158,1144.3,2154.1,1147.7,2149.9z M1133.2,2125.8c-1.6,0.2-3.2,0.3-4.8,0.5c5.1-3,10.3-5.6,15.4-7.6
	C1139.3,2121.4,1135.6,2124.1,1133.2,2125.8z M1162.8,2169.2c2.2-2.2,4.5-4.5,6.7-6.7c-8,14.6-17.2,28.7-26.3,42.5
	c-2.6,3.9-5.2,7.9-7.8,11.9c-8.8,7-17.2,14.5-24.6,22.8c-1.8,2-3.6,4-5.4,6c-5,5.6-10,11.2-14.8,16.8c7.6-15.1,13.2-30.5,17.1-41.3
	C1127.5,2204.4,1145.4,2186.5,1162.8,2169.2z M1121.1,2298.6c-0.3,1.6,0.1,3.3,1.2,4.6c1.4,1.8,3.6,2.7,5.9,2.2
	c4.9-0.9,9.9-2.9,14.9-5.7c-20.9,51.3-52.1,92.8-88.4,127.5C1070.6,2378.1,1092.4,2336,1121.1,2298.6z M1141.5,2286.6
	c3.5-5.2,7.5-10.8,12.1-16.6c-1,3.3-2.1,6.6-3.2,9.8C1147.4,2282.4,1144.4,2284.7,1141.5,2286.6z M1169.6,2192.5
	c-2.4,1.6-4.7,3.2-7.1,4.8c12.1-18.8,23.8-38.4,31.5-59.6c0.2-0.6,0.3-1.3,0.4-1.9c1.5,0.1,3,0.1,4.4,0.2c6.2,6.5,13,12.6,20,18.4
	C1205.5,2168.4,1188,2180.1,1169.6,2192.5z M1186.9,2123.6c0.2-0.3,0.3-0.7,0.4-1.1c0.3,0.4,0.6,0.7,0.8,1.1
	C1187.7,2123.6,1187.3,2123.6,1186.9,2123.6z M1217.5,2195.1c3.3-13,6.4-25.4,11.2-33.1c10.7,8.1,21.5,15.3,31.2,21.6
	c-14.2-0.4-28.9,4.9-42.7,12.7C1217.2,2195.9,1217.3,2195.5,1217.5,2195.1z M1355.2,2183.9c6.6,4.3,13,9,19.3,13.9
	c32.6,25.6,54.8,60.9,69.9,98.9c-7.8-0.8-22.9-6.2-51.8-25.9c-17.1-11.6-35.3-25.7-52.3-39.3C1345,2215.4,1350,2199.5,1355.2,2183.9
	z M1381.9,2188.4c-7.3-5.8-14.9-11.2-22.7-16.2c4.9-14.1,10-28,15.3-41.5c7.2,9.1,14.5,19.1,21.6,29.2c25.2,36.1,43.7,69.8,52,94.6
	c6.3,18.8,7.1,29.1,6.2,34.7C1438.6,2250.7,1415.5,2214.8,1381.9,2188.4z M1330.1,2041.7c12.4-2.9,42-11.9,82.7-26.8
	c-4.1,9.2-7.7,17.2-10.8,23.6c-11,22.3-21.5,45.3-31.2,68.8c-9.8-11.6-18.6-20.8-25.1-26.4c-14.7-12.5-30-24.6-45.4-36.4
	C1312.4,2044.2,1322.6,2043.5,1330.1,2041.7z M1338,2090.1c7.2,6.1,17.1,16.8,27.8,29.8c-6,15.1-11.8,30.4-17.2,45.8
	c-42-24.5-90.2-38.3-144.4-41.5c-12.1-13.4-20.9-27.9-22.6-43.2c-0.8-6.9,0.8-12.5,4.8-17.1c14.8-16.9,58.5-18.1,94.7-18.9
	C1300.4,2059.5,1319.7,2074.5,1338,2090.1z M654.4,2154.5c-25.8-19.5-38.9-44.4-37.9-72.1c1.2-33.2,22.6-66.6,57.3-89.1
	c53.3-34.6,114.8-47.3,176.4-47.3c28.3,0,56.7,2.7,84.2,7.2c33.7,21,64.2,38,76.9,43.8c28.5,13.1,60.5,17.3,91.5,21.4
	c21.3,2.8,43.4,5.7,63.6,11.5c3,0.9,6.1-0.7,7.2-3.6s-0.1-6.2-2.9-7.5c-75.8-37.6-157.3-64.6-231.5-76.8
	c-11.7-7.3-23.7-15.1-35.5-23.1c-81.4-54.9-81.1-71-80.8-72.7c0-0.1,0.1-0.3,0.1-0.4c0.4,0.1,0.8,0.1,1.2,0.1
	c10.3-0.5,20.9-1.9,32.1-3.3c1-0.1,2-0.3,3-0.4c33.6,1.6,78.7,9.3,116.3,20c8.6,5.2,17,10.7,25,15.9l4.5,3
	c17.6,11.5,34.3,25.4,50.5,38.9c4.3,3.6,8.6,7.2,13,10.8c18.2,14.8,33.9,20.8,50.5,27.1c6.4,2.4,13.1,4.9,20,8
	c2.1,1.1,4.3,2.1,6.5,3.1c3,1.3,6.5,0,7.9-2.9s0.2-6.5-2.8-7.9c-2.2-1.1-4.4-2.1-6.6-3.1c-22.5-11.2-40.3-27-59.1-43.7
	c-13.7-12.1-27.9-24.7-44.1-35.3c-13.1-8.6-34.2-17.2-60.4-24.8c-16.6-9.9-34.3-18.5-52.7-22.1c-22.7-4.4-46.4-1.8-69.4,1.1
	c-3.4-0.2-6.6-0.2-9.7-0.3c39.8-23.4,85-27,134.8-10.5c47.6,15.8,97.7,49.9,141.2,96.2c39.4,42,86.3,76.9,131.6,110.7
	c3.1,2.3,6.2,4.6,9.3,7c-35.8,1.1-72.2,4.4-88.2,22.6c-6.3,7.2-8.9,16-7.7,26.4c1.2,10.7,5.2,20.9,11,30.6c-2.4-1.3-4.9-2.1-7.4-2.5
	c0.3-1,0.5-1.9,0.7-2.9c0.4-1.9-0.1-3.8-1.4-5.3s-3.2-2.2-5.1-2c-21.4,2.2-43.1,12-65,29.4c-36.9,5.7-76,15.2-117.1,28.6
	c-34.3,11.2-71.8,24.3-108.8,40.8C775.9,2206,702.9,2191.3,654.4,2154.5z M968,1959.6c59.1,12.8,112.6,32.4,151.8,49.1
	c-5.2-0.7-10.3-1.4-15.4-2.1c-30.1-4-61.2-8.1-88-20.4C1007.5,1982.1,989.6,1972.4,968,1959.6z M1026.4,1881.3
	c2.9,1.6,5.6,3.1,8,4.7c15.5,10.2,29.3,22.5,42.7,34.3c3.8,3.4,7.6,6.8,11.5,10.1c-4.1-2.6-8.2-5.5-12.4-9
	c-4.3-3.5-8.6-7.1-12.9-10.7C1051.4,1900.8,1039.2,1890.6,1026.4,1881.3z M1116.1,2139.9c-1,0.9-2,1.8-3,2.7
	c-4.4,1.7-8.9,3.4-13.4,5.1c2.6-2.3,5.2-4.6,7.7-6.7C1110.3,2140.7,1113.2,2140.3,1116.1,2139.9z M1079.8,2167.8
	c3.8-1.3,7.6-2.7,11.4-4.1c-4.1,4.1-8,8.2-11.8,12c-10.6,10.9-19.8,20.3-26.1,25.2C1062.2,2188.7,1071,2177.6,1079.8,2167.8z
	 M1073,2157.5c-49.5,17.4-101.3,31.5-155.9,37.9c23.6-9.3,47.8-17.7,72.1-25.6c33.5-11,65.6-19.3,96.2-25
	C1081.3,2148.7,1077.1,2153,1073,2157.5z M910.7,2527.4c-52,28.3-127.6,56.6-192.8,30.8c-24.3-9.7-41.4-25.6-50.8-47.4
	c-12.4-28.8-10.4-67.8,5.3-107c38.3-95.3,116.9-152.3,207.6-192.9c12-0.9,24.4-2,37.1-3.5c49-5.6,95.7-17.3,140.5-32
	c-6.9,8.6-13.9,18-20.8,28.1c-5.9,8.6-11.3,17.8-16.3,27.1c-8.9,9.1-18.2,19.5-26.5,30.4c-25.4,33.4-32.5,60-21.2,78.8
	c1.3,2.1,3.8,3.3,6.2,2.8c2.5-0.4,4.4-2.4,4.8-4.8c2.7-14.6,10.5-28.9,18.1-42.6c3.8-6.9,7.8-14,10.9-21c5.2-11.6,11-24.1,17.4-36.3
	c12.3-12.4,23.7-22.2,30-27.2c6.9-5.4,16.5-15.2,27.6-26.6c9.1-9.3,20.2-20.7,31.6-31.2c5-2,10-4,15-6c-2.1,2.6-4.1,5-5.9,7.4
	c-15.2,20.2-23.3,37.9-31.2,59.7c-0.9,0.8-1.8,1.5-2.7,2.2c-3.9,3.3-9.6,7.3-16.1,12c-28.7,20.6-72.2,51.7-62,82.6
	c0.7,2.1,2.4,3.6,4.6,4c2.9,0.6,5.8,0.8,8.5,0.8c11.3,0,21.3-4.4,30-11.5c-6.2,10.7-10.3,21.4-14.2,31.8c-4.1,11-8,21.4-14.3,31.4
	c-1.1,1.8-1.2,4.2-0.2,6.1c1.1,1.9,3.1,3.1,5.2,3.1c0.1,0,0.1,0,0.2,0c11.3,0,21-4.1,29.5-10.9c-11.4,23.8-21,49.4-29,77.3
	C997.8,2477,953.7,2504,910.7,2527.4z M1000.4,2272.6c-2.6,5.5-5.7,11-8.9,16.8c-3.5,6.3-7,12.7-10.1,19.2
	C984.7,2296.6,992.4,2283.7,1000.4,2272.6z M1298.5,2534.3c-9.1,39.7-36.4,93.8-69.5,136.6c-26.1,33.7-78.4,89.5-136.4,84.6
	c-18.9-1.6-33.6-9.6-44.9-24.5c-40.6-53.7-22.2-177.3-12.4-228c3.6-18.7,7.8-36.4,12.5-53.4c11.7-10.2,22.5-20.6,32.6-31.3
	c36.9-39.3,63.5-82.6,80.4-131.4c17.8-15.7,33.3-36.6,39.2-45.1c5.6-8,9.4-17.9,12.5-28.3c16.4-11.2,33.1-18.4,47.8-17.7
	c17.9,0.8,31.6,13.8,40.6,38.5c6,16.3,10.2,33.4,13,51c-1.6,7.1-3.1,14.2-4.6,21.3c-10.5,51.3-16,100.3-16.4,145.6
	C1292.8,2481,1294.6,2508.5,1298.5,2534.3z M1305.9,2486.7c-2.6-51.6,2.2-106.1,12.1-160.2
	C1320.4,2379.2,1313.4,2434.6,1305.9,2486.7z M1435.5,2641.3c-0.3-47.8,6.7-106.7,13.2-160.8c3.4-28.2,6.6-55.5,8.7-79.9
	C1464.8,2472.1,1457,2577.9,1435.5,2641.3z M1473.4,2432.2c6.6,88-4.6,188.3-30,268.4c-0.3,0.7-0.6,1.3-0.8,1.8
	c-0.2-0.4-0.4-0.9-0.6-1.4c-2.5-9.1-4.2-19.6-5.3-31.2c16.6-33.2,28.6-88.9,33.4-155.6c4.9-68.4,0.8-132.3-10.8-166.7
	c-0.9-2.8-3.8-4.5-6.7-4c-2.9,0.5-5,3.1-5,6.1c0.8,32.2-4.9,79.5-10.8,129.5c-7.7,64.5-16.2,135.7-12.3,188.3c-1,1.8-2,3.6-3,5.3
	c-9.9,16.2-20,23.8-30.2,22.5c-27.8-3.6-57.4-69.4-69.4-110.1c-4.8-16.2-8.5-33.1-11.2-50.4c0.8-3.6,1.4-7,1.9-10.3
	c0.9-6.1,1.8-12.2,2.7-18.5c10.3-70.5,21.6-148.5,11-219.4c3.2-14.2,6.8-28.3,10.6-42.3c16,12.7,33,25.7,49,36.6
	c29.6,20.1,49.8,29.2,63,27.9C1463.7,2350.5,1470.5,2394.6,1473.4,2432.2z M1995.2,2086.4c-38.7,133.1-118.8,250.1-208.9,305.4
	c-91.2,55.9-179.7,45.8-254.3-27.3c2.5,0.3,5,0.5,7.5,0.5c7.9,0,16.1-1.7,24.5-5.2c58.9-24.4,104-30.6,143.7-36.1
	c42.4-5.8,79-10.9,118.6-36.2c42.9-27.4,84.7-75.3,135.5-155.3c5.1-8,10.2-15.9,15.1-23.6c7.3-11.4,14.5-22.6,21.4-33.6
	C1997.3,2078.9,1996.3,2082.6,1995.2,2086.4z M2007.8,2036c-12,21.2-26,43-40.9,66.2c-4.9,7.7-10,15.6-15.1,23.6
	c-106,166.8-161.6,174.5-245.6,186.1c-40.5,5.6-86.4,11.9-146.7,36.9c-17.4,7.2-32.8,5.5-47-5.3c-8.3-9.7-16.4-20.3-24.3-31.7
	c-0.6-0.8-1.3-1.5-2.1-1.9c-37.2-69.9-46.3-205.8-27.5-264.6c5.9-18.5,12.1-37.1,18.9-55.4c25.7-10.5,53.6-22.5,82.9-36
	c94.9-43.7,229.5-114.6,340.4-207.7c-4.1,8.5-7.3,17.1-9.6,25.6c-11.2,41.4-6.6,85.3,12.5,120.4c1.1,1.9,3.1,3.1,5.3,3.1
	c0.3,0,0.6,0,1-0.1c2.5-0.4,4.5-2.4,4.9-4.9c3.6-20,5.4-40.7,7.2-62.7c2.2-25.7,4.4-51.7,9.6-77.4c-2.7,19.8-3.7,39.4-4.4,54
	c-0.2,3.8-0.4,7.1-0.5,10c-3.7,59.9,5.6,106,28.5,141.1c14.7,22.5,34.8,39.1,58.1,51.7C2011.6,2016.8,2009.8,2026.4,2007.8,2036z
	 M2015.1,1994.4c-20.1-11.5-37.3-26.2-50-45.6c-21.5-32.8-30.1-76.6-26.6-133.8c0.2-2.9,0.4-6.3,0.5-10.1
	c1.6-30.6,4.8-93,25.1-115.4c1.8,0,3.6-0.1,5.3-0.1c1.1,0,2.1-0.4,2.9-0.9C2016.2,1778.8,2030.7,1884.5,2015.1,1994.4z
	 M1982.2,1681.1c3.2,2.9,6,10.6,8.5,18.3C1988,1693.2,1985.1,1687.2,1982.2,1681.1z M2026.4,1999.5c6.1-41.5,8-82.7,5.6-123.4
	c-1.3-22.5-3.9-44.5-7.8-65.9c1.6,6.1,3.2,12.2,4.8,18.2c3.5,13.4,7.2,27.3,10.9,40.8C2052.8,1916.2,2045.1,1957.5,2026.4,1999.5z
	 M2325.7,2031.2c-42.2,10.4-90.8,12.8-137,6.9c-51.1-6.6-106.4-13.6-151.7-32.9c2.4-5.2,4.5-10.5,6.5-15.7
	c16.6-43.3,19.2-82.6,8-123.5c-3.7-13.5-7.3-27.3-10.8-40.7c-10.2-38.8-20.7-78.9-34.3-117c-1.1-3.2-2.2-6.5-3.2-9.6
	c-3.4-10.6-6.7-20.7-12.7-26.3c0.2-0.5,0.3-1.1,0.4-1.7c0.1-1-0.1-1.9-0.5-2.8c10.9,8.3,23.7,12.4,36.2,16.4
	c15.6,5,31.7,10.1,45.5,23.5c28.1,27.2,43.9,62.7,60.5,100.3l1,2.3c1.3,3,4.9,4.4,7.9,3.1c3-1.3,4.4-4.9,3.1-7.9
	c-4.7-10.7-9.3-23.8-14.1-37.7c-16.2-46.6-36.3-104.7-80.3-122.9c-5.7-2.4-11.7-4-17.9-4.9c28.9-12,56.4-24.9,82.8-38.9
	c3.4,2.2,6.9,4.4,10.3,6.6c17.5,11.2,35.6,22.7,50.6,36.6c29.4,27,37.3,57.9,46.5,93.6c3,11.8,6.2,24,10.3,36.6
	c19.5,59.7,53.4,75.2,78.4,77.7c2.9,0.3,5.7,0.4,8.6,0.4c33.2,0,65.1-18.5,86.8-34.7c11-8.2,21.6-17.6,31.5-27.8
	c-0.7,5.6-1.6,11.3-2.4,17.3c-4.6,30.6-9.7,65.3,1.6,111.9c5.5,22.7-0.2,43.7-17,62.5C2400.9,2003.4,2367.4,2021,2325.7,2031.2z
	 M3205.6,3032.6c-4.4,0.5-10.8,1.8-18.1,3.3c-25.7,5.2-73.6,15-79.4-5.5c-1.7-6-0.8-10.9,3-15.3c11.4-13.3,44.5-18,64.4-18
	c3.9,0,7.3,0.2,9.9,0.5c30.2,3.7,50.7,15.1,61.4,33.7C3232,3031.2,3218,3031.3,3205.6,3032.6z M3119.5,3276.7
	c-37.2,15.6-71.5,27.6-104.2,36.2c19.5-6.1,37.9-13.3,53.8-22.5c6.2-3.6,13.4-8.8,21.7-14.9c23.3-16.9,53.5-38.8,84.8-42.8
	C3156.2,3253.8,3136.3,3269.6,3119.5,3276.7z M3084.7,3338.9c27-3.9,61.6-5.7,95.1-4.7c8.8,0.3,17.2,0.7,25.3,1.4
	C3177,3338.1,3125.3,3339.4,3084.7,3338.9z M3079.2,3454.9c-3.8-1.6-7.8-3.2-11.8-4.8c-33.7-13.6-73.4-29.7-106.5-55.2
	c29.3,13.9,72.4,31.3,129.7,52.2l4.3,1.6c11.3,4.2,25.5,13,39.6,24.4C3116.8,3469.1,3098.5,3462.8,3079.2,3454.9z M1812.7,2508.7
	c1.9-3.9,3.8-7.8,5.7-11.6c-3,35.4-19.3,66.8-44.6,94.8C1786.3,2562.3,1800.5,2533.6,1812.7,2508.7z M1418.4,3249.3
	c0.8,1.8,1.6,3.6,2.3,5.5c25.8,60.3,50.2,117.2,91.1,169c39.9,50.5,95.8,79.7,149.8,107.9c61,31.8,118.6,61.9,156.1,120.2
	c70,108.6,114.5,276.7,16.1,400.9c-4.7-48.8-24-102.6-40.2-140.8c-22-51.9-51-104.4-77.5-140.3c-28.4-38.5-63-71.8-96.4-104.1
	c-17-16.4-34.6-33.4-51.1-50.8c-49.3-51.9-88.9-122.4-117.7-209.4c-16.3-49.2-29.4-94.2-37.5-139
	C1415,3262,1416.6,3255.6,1418.4,3249.3z M1407.2,3297.9c8.1,36.5,19.3,73.6,32.4,113.3c29.4,88.8,69.9,160.7,120.4,213.9
	c16.7,17.6,34.4,34.6,51.5,51.1c33.1,31.9,67.3,64.9,95.1,102.6c45.1,61,94.2,164.4,110.7,244.9c-24.5-50.5-61-77.5-126.7-98.1
	c-133.1-41.8-256.2-92.4-300.1-251.8c-19.6-71.2-21.3-138.7-5.8-225.7c4.3-24,7.5-48.4,10.7-72.1
	C1398.8,3350.3,1402.3,3323.9,1407.2,3297.9z M1417,2965.6c-7.9,45.5-14.4,92.3-18.7,131.1c-13.8,48.9-28,93.9-40.2,122.3
	c-47.6,111.1-95.4,152.6-141.7,192.8c-40.4,35.1-82,71.3-123.3,152c-27.4-60.5-64.8-185.7-52.8-323.6
	c15.3-175.3,101.5-312.7,256.3-408.4c22.3-13.8,69.3-29.7,123.8-48.1c12-4,24.4-8.2,37.1-12.6c-3.3,2.9-6.7,6.1-10.3,9.7
	c-4.4,3.9-8.7,7.9-13.4,12.3c-6.8,6.3-14.5,13.4-23.9,21.6c-40.9,35.7-66.6,84.9-91.3,132.4c-9.6,18.5-19.6,37.7-30.2,55.3
	c-4.7,7.9-9.3,15.9-13.8,24c-41.9,71.7-79.8,145.7-88,182.6c-0.7,3,1,5.9,3.8,7c2.9,1,6-0.2,7.4-3c12.6-25,24.4-50.7,35.8-75.5
	c16.3-35.5,33.1-72,52.4-107c10.7-18.2,22-36.9,33.9-55.9c53-84.7,101.7-151.1,134.7-184.4c4.3-3.9,8.7-7.6,13.3-11.3
	C1446.2,2818.1,1428.6,2899.3,1417,2965.6z M1454.7,2862.7c-5.5,27.6-12.4,59.4-20.4,93.7
	C1438.8,2924.6,1445.9,2893.1,1454.7,2862.7z M1547.9,2989.4l1.3,2c29.4,45.6,59.8,92.7,105.2,126.5c23.9,17.8,50.3,26,75.9,33.9
	c15.8,4.9,32.1,9.9,47.7,17.2c44.7,21,66.9,63,81.4,97.2c1.2,2.9,4.5,4.4,7.5,3.3c3-1.1,4.6-4.3,3.8-7.3
	c-14.4-49.9-37-85.1-67.2-104.7c-19.7-12.8-41.4-23.4-62.4-33.8c-17.6-8.7-35.9-17.6-52.8-27.8c-81.1-48.7-130.9-92.9-162.1-187.3
	c-4-12-8.2-23.5-12.3-34.5c-7.2-19.5-14-37.7-18.4-56.4c24.2,27.7,70,60.1,138.4,98.1c11.6,6.5,28.1,12,49,18.9
	c56.8,19,142.7,47.6,215.5,127.6c42.3,46.6,76.8,119.5,87.7,185.7c9,54.7,16.6,114.1,21.5,168.7c-29.8-19.6-56.6-33-83.3-41.8
	c-25.6-8.4-51.5-12.5-78.6-12.5c-8.8,0-17.7,0.4-26.8,1.3c-6,0.6-12.1,1.2-18.3,1.8c-66.1,6.7-141,14.3-196.1-21
	c-131.4-84.1-175.3-199.5-175.2-316.2c4.9-19.1,9.5-37.9,13.7-55.6c13.7-57.6,28.5-126.5,34.7-169.8
	C1488.5,2860.1,1523.1,2950.9,1547.9,2989.4z M1607,3053.8c19.8,16.9,43.7,33.5,74.9,52.3c17.4,10.4,35.9,19.5,53.7,28.3
	c13.1,6.4,26.4,13,39.3,20.1c-13.7-5.8-27.7-10.1-41.2-14.2c-25.7-7.9-50-15.4-72.2-32C1640.7,3092.6,1622.9,3074,1607,3053.8z
	 M1882.1,2827.2c-4.3-22.6-6.3-52.7,9-67.6c5.8-5.6,10.2-7.1,13.2-7.1c2.3,0,3.9,0.8,4.7,1.3c12.2,6.6,19.9,36.4,16.6,52.9
	c-4.1,20.6-19.2,32.6-31.1,39.1c-2.3,1.3-4.7,2.4-7.2,3.5C1885.4,2842.2,1883.5,2834.7,1882.1,2827.2z M3512.9,1920
	c-352.7-213.3-346.6-407-340.6-594.4c0.8-23.6,1.5-47.9,1.5-71.6c167.2,79.8,319.2,204.1,407.8,334c46.9,68.8,75,177.7,83.5,323.7
	c0.4,6.1,0.6,10.4,0.9,12.9c0.8,8,1.7,16.2,2.6,24c3.4,31,6.9,62.9,7.1,96.6C3605.6,1979.5,3543.4,1938.4,3512.9,1920z
	 M3674.8,2287.8c-36.7-18.5-108.2-5.5-163.5,9.4c-34.4,9.3-72.8,29.6-116.7,61.9c14.6-29.9,32.1-60.7,58-83.9
	c30.2-27,91.6-64.4,144.6-64.4c3.8,0,7.6,0.2,11.4,0.6c23,2.5,41.3,13.1,54.5,31.4c7.9,11,11.9,22.7,13.1,35
	C3676,2281.2,3675.5,2284.5,3674.8,2287.8z M3634.5,2444.6c-0.5-4.4-1.2-8.6-2-12.6c3.3-7.3,7-14.9,11.1-22.7
	c11.9,3.3,23.8,10,36.4,17c17.5,9.8,35.6,19.9,54.6,21.1c-13.6,17.8-39.7,41.5-76.5,30.7c-16-4.7-27.9-15.7-40.3-27.6
	c4.5,2.8,9.6,2.7,14.1-0.2C3633.7,2449.1,3634.7,2446.8,3634.5,2444.6z M3631.4,2406.7c-1.3,2.5-2.5,5-3.7,7.4
	c-1-2.9-2.1-5.7-3.3-8.4C3626.7,2406,3629,2406.3,3631.4,2406.7z M3610.4,2404.7c4.1,7.5,7.3,16.2,9.5,26c-1.8,4.3-3.5,8.5-5,12.6
	c-0.6,1.8-0.4,3.7,0.6,5.2c-10.8-10.3-22.1-20.9-36.5-27.6c-10.6-4.9-22.2-9.1-34.5-12.3c1-0.1,2-0.2,3.1-0.3
	C3568.6,2406.1,3590,2404,3610.4,2404.7z M3381.6,2416.5c32-20.5,68.5-32.7,87.4-38.2c25.7-7.4,48.3-11.1,67.7-11.1
	c21.2,0,38.5,4.4,51.9,13.3c5,3.3,9.5,7.4,13.5,12c-18.4,0-37.2,1.9-55.7,3.7c-14.2,1.4-27.7,2.8-40.8,3.3
	c-4.9,0.2-9.7,0.5-14.5,0.8c-23.3-1-47.1,1.2-69.5,7.5c-19.2,2.3-37.8,10.9-52.9,24.9c-1.8,1.6-3.5,3.3-5.1,5.1
	c-1.9,1.7-3.8,3.5-5.6,5.2c-7.8,5.3-15.3,11.1-22.3,17.3C3344.9,2444.9,3360.3,2430.2,3381.6,2416.5z M3476.5,2478.4
	c-4.7,34.6-30.3,68.3-70,66c-27.9-1.6-47.9-12.6-56.1-30.3c0-0.1,0-0.2-0.1-0.3c-3-22.5,3.7-45.4,18.3-63.3
	c21.5-13.9,45.8-24.1,73.2-30.6c1.9,0.3,3.9,0.6,5.8,1C3472.3,2426.2,3479.9,2453.6,3476.5,2478.4z M3202.1,3567.2
	c-72.5-41.2-150.4-39.8-212.9,2.4c44.6-68.7,90.3-67.5,155.3-65.7c7.3,0.2,14.8,0.4,22.6,0.5
	C3186.4,3526.5,3198.7,3548.6,3202.1,3567.2z M3322.6,3469.7c-59.5,20.3-108.3,23.1-150,22.7c-1-1.1-2-2.2-3-3.2
	c9.8,0.2,19.2-0.4,28.3-1.9c38.8-6.3,74.2-28.9,108.4-68.9c23.6-27.7,18.6-46.9,10.2-58c-3.4-4.5-7.8-8.5-13.1-12
	c32.9-10,66.8-53.8,69.3-90.4c1.4-19.9-7-34.6-23.7-41.3c-18.3-7.4-34.4,0.8-49.9,8.6c-8.3,4.2-16.1,8.1-24.1,9.8
	c-18,3.8-32.1-0.8-48.4-6.2c-8.1-2.7-16.5-5.5-25.8-7.3c7.6-9.5,14.9-19.7,21.8-30.2c33-50.9,49-101.2,43.9-138
	c-0.4-3.2-1.1-6.5-2-9.9c26.4,0.3,55.3,0,80.5-6.3c32.9-8.2,54.7-25.4,66.6-52.4c10.9-24.7,13.3-49.5,7.2-75.7
	c-5.3-23.1-16.2-44.5-27.7-67.1c-7.8-15.4-15.9-31.3-22.1-47.8c-17.1-45.6-25.4-94.6-33.4-141.9c-1.4-8.1-2.8-16.5-4.2-24.7
	c-7.2-41.1-13.4-89.4-6.5-139.7c0.1-0.1,0.1-0.1,0.2-0.2c4.1-4.6,8.4-9.1,12.9-13.3c-4.2,12-4.8,24.5-1.5,36.3
	c0.7,2.4,1.5,4.7,2.5,6.9c4.4,17.6,19.8,32.2,44.9,42.3c21.4,8.6,48.6,13.3,74.6,12.9c31.4-0.5,58.1-4,79.1-10.3
	c21.4-6.4,37.3-15.8,47.6-28.1c0.2,27.8,1.2,56.1,2.3,83.8c2.6,68,5.2,138.4-5,203.7c-26.2,166.3-84.9,335.4-161.3,463.9
	c-28.1,47.4-53.5,96.6-78.1,144.2C3336.4,3443.2,3329.5,3456.5,3322.6,3469.7z M3543.9,3335.5c-79.8,67.2-147,106-204.6,128.2
	c4.9-9.4,9.7-18.8,14.5-28c24.5-47.4,49.8-96.5,77.7-143.5c39.8-67,74.4-143.2,102.9-226.7c26.6-77.9,47.3-161.4,59.9-241.5
	c10.5-66.5,7.8-137.4,5.2-206c-1.3-35.7-2.7-72.7-2.2-107.8c0-3-2.2-5.6-5.2-6c-0.3,0-0.5-0.1-0.8-0.1c-2.7,0-5.1,1.8-5.8,4.5
	c-10.7,41.8-75.1,51.6-127.2,52.5c-15.2,0.2-30.8-1.3-45.4-4.5c43-1.3,70.3-38.5,75.5-76.4c4-29.1-5.1-53.2-23.1-64.7
	c8.7-1.3,17.6-2.3,26.9-3c29.7,1.5,58.6,8.6,81.9,19.4c12.9,6,23.2,15.8,34,26.1c13.4,12.8,27.2,26,46.6,31.7
	c19.6,5.7,38.6,3.7,56.6-5.9c15.3-8.2,29.1-21.9,40.2-39.6c1.2-2,1.2-4.5-0.1-6.5c-1.3-2-3.6-3-5.9-2.6
	c-19.7,3.1-39.1-7.7-59.6-19.2c-11.9-6.7-24.2-13.5-36.6-17.4c0.3-0.6,0.7-1.3,1-1.9c20-38.5,42.1-80.7,38.1-120
	c0.4-13.5-2.8-26.6-5.9-39.6c-0.3-1.5-0.7-2.9-1-4.4c-5.2-21.9-5-30.6-3.3-51.8c1-12.5,2.2-24.7,3.4-36.6
	c2.3-23.9,4.6-46.7,5.6-70.7c123.3,122.1,243.2,298.6,259.7,509.7C3966.8,2840.3,3831.3,3093.5,3543.9,3335.5z M2013.3,3452.8
	c-3.3,0.5-5.6,3.5-5.1,6.8c33.9,237.5,35.2,527.1-212.6,874.1c-1.9,2.7-1.3,6.4,1.4,8.4c1.1,0.8,2.3,1.1,3.5,1.1
	c1.9,0,3.7-0.9,4.9-2.5c110.8-155.2,179.9-307.8,211.1-466.5c24.9-126.7,26.1-259,3.6-416.3
	C2019.6,3454.6,2016.6,3452.4,2013.3,3452.8z"/>
</svg>
