<?xml version="1.0" encoding="UTF-8" standalone="no"?>
<!DOCTYPE svg PUBLIC "-//W3C//DTD SVG 1.1//EN" "http://www.w3.org/Graphics/SVG/1.1/DTD/svg11.dtd">
<svg xmlns="http://www.w3.org/2000/svg" version="1.1" viewBox="0 0 861 1217" width="861.0pt" height="1217.0pt">
<path d="M 0.00 0.00 L 861.00 0.00 L 861.00 1217.00 L 0.00 1217.00 L 0.00 0.00 Z" fill="#000000" />
<path d="M 78.73 31.26 C 80.64 34.80 79.70 38.48 77.76 41.76 C 70.06 54.30 64.65 67.50 57.96 81.06 C 54.43 88.20 51.84 95.90 47.75 102.72 C 45.42 107.13 39.65 109.01 35.17 106.80 C 30.36 104.75 28.12 98.35 30.80 93.82 C 32.75 90.57 34.32 87.27 35.72 83.75 C 41.30 71.18 47.31 58.74 53.36 46.39 C 56.11 40.65 59.40 35.12 62.64 29.62 C 66.75 24.21 75.88 24.99 78.73 31.26 Z" fill="#d8acd0" />
<path d="M 103.23 34.76 C 106.39 36.55 108.12 40.52 108.50 43.99 C 108.67 47.41 106.90 49.58 105.35 52.37 C 102.14 57.43 99.84 62.75 97.11 68.10 C 89.41 83.53 81.58 98.99 72.82 113.85 C 71.22 116.94 69.82 120.14 68.23 123.23 C 65.81 127.86 59.64 129.40 55.16 126.85 C 51.02 124.67 49.20 119.24 51.00 114.96 C 53.22 110.24 55.40 105.54 58.06 101.05 C 63.62 91.99 68.05 82.46 73.20 73.19 C 78.12 63.24 82.83 53.14 88.29 43.47 C 88.85 41.30 88.88 39.25 90.36 37.38 C 93.03 33.16 99.10 32.20 103.23 34.76 Z" fill="#d8acd0" />
<path d="M 135.65 48.33 C 140.04 52.67 139.58 59.98 134.87 63.92 C 129.66 72.35 124.64 80.86 119.19 89.17 C 111.30 101.71 103.99 114.69 96.26 127.27 C 94.37 130.69 89.88 132.41 86.15 131.47 C 80.70 130.49 77.49 124.23 79.22 119.12 C 79.70 117.76 80.53 116.51 81.25 115.27 C 91.52 97.65 102.02 80.20 113.01 63.01 C 115.80 58.46 118.36 53.77 121.26 49.30 C 124.66 44.84 131.71 44.29 135.65 48.33 Z" fill="#d8acd0" />
<path d="M 504.64 50.39 C 508.04 54.75 507.38 61.60 503.37 65.37 C 498.44 69.41 495.89 76.07 492.41 81.40 C 490.74 84.60 488.52 87.68 487.12 90.95 C 487.46 92.03 489.00 92.50 489.83 93.18 C 496.59 97.31 503.16 101.39 510.43 104.58 C 516.02 107.42 522.77 110.29 527.01 114.99 C 529.96 118.16 530.36 123.27 527.81 126.80 C 525.46 130.32 521.21 131.83 517.14 130.63 C 513.84 129.66 512.42 127.01 509.43 125.57 C 502.85 122.10 496.00 119.25 489.61 115.41 C 485.33 113.28 481.39 110.05 477.11 108.08 C 471.96 115.53 466.81 122.94 460.43 129.45 C 456.99 132.98 453.73 137.58 448.51 138.35 C 442.95 139.19 437.51 134.67 437.57 129.00 C 437.41 125.15 439.59 122.65 442.41 120.39 C 449.39 113.70 455.57 106.23 460.60 97.96 C 460.12 96.73 458.43 96.38 457.41 95.59 C 444.20 87.75 429.84 82.28 416.62 74.41 C 411.79 72.74 409.17 69.11 409.28 63.98 C 409.22 56.89 417.25 52.01 423.47 55.64 C 429.67 60.26 436.95 63.76 443.95 67.06 C 451.94 70.91 460.02 74.77 467.60 79.39 C 468.53 79.86 469.64 80.91 470.71 80.74 C 476.15 71.67 480.83 61.78 487.59 53.62 C 488.75 51.08 489.94 48.82 492.63 47.62 C 496.64 45.41 501.99 46.72 504.64 50.39 Z" fill="#a0c217" />
<path d="M 727.05 58.56 C 731.39 60.08 735.82 61.47 738.98 65.02 C 746.13 71.92 748.85 81.04 751.58 90.28 C 753.32 96.82 754.23 103.40 755.51 110.01 C 755.69 111.65 755.51 113.16 756.38 114.64 C 762.14 114.83 768.18 114.87 773.50 112.37 C 783.58 107.68 792.92 101.67 801.58 94.71 C 806.57 91.49 810.57 87.04 815.54 83.75 C 818.53 83.64 821.44 83.00 823.89 85.09 C 827.20 87.49 829.10 91.93 827.73 95.91 C 827.26 98.77 824.09 101.18 822.03 103.02 C 815.37 108.74 808.32 114.13 800.97 118.94 C 795.12 122.56 789.86 126.53 783.21 128.66 C 779.08 130.40 774.84 132.28 770.50 133.31 C 765.79 134.09 760.95 133.45 756.27 134.23 C 755.70 137.30 755.69 140.41 755.33 143.50 C 753.22 152.61 750.88 162.11 748.06 171.03 C 747.03 174.75 744.17 177.85 740.85 179.69 C 734.68 182.57 727.11 177.91 727.41 171.00 C 727.12 166.77 730.16 164.90 731.11 161.05 C 733.48 151.36 737.92 139.51 736.41 129.56 C 726.64 125.99 718.98 119.50 711.92 112.05 C 705.22 103.88 698.66 95.19 699.45 84.00 C 698.87 74.61 703.30 65.37 711.11 60.12 C 715.58 57.37 721.96 58.30 727.05 58.56 Z" fill="#df0635" />
<path d="M 720.05 77.87 C 721.71 76.72 724.60 77.76 726.00 79.00 C 729.63 83.13 731.12 89.45 733.24 94.53 C 733.63 98.46 734.95 102.00 734.78 106.01 L 734.02 106.25 C 728.02 101.95 723.00 96.07 719.57 89.53 C 717.94 86.37 717.75 80.76 720.05 77.87 Z" fill="#030101" />
<path d="M 138.57 120.79 C 142.23 119.56 146.26 120.14 149.00 122.99 C 152.47 126.08 152.83 132.26 149.74 135.71 C 146.97 139.25 141.98 139.46 139.53 143.53 C 131.81 156.78 126.24 170.56 128.66 186.23 C 131.37 193.28 137.27 197.56 144.00 200.44 C 146.06 198.51 146.45 194.44 147.99 191.93 C 153.85 179.42 162.95 168.27 174.15 160.18 C 183.18 153.21 199.15 156.44 203.39 167.48 C 205.18 175.94 202.85 184.11 198.27 191.26 C 189.62 204.45 176.37 215.51 161.24 220.30 L 160.74 221.01 C 160.70 229.52 160.14 237.82 163.00 245.98 C 166.42 256.01 171.66 265.29 179.14 272.86 C 184.73 278.03 190.71 282.74 197.13 286.84 C 199.78 288.51 202.26 290.70 202.67 293.99 C 203.58 298.68 200.74 303.81 196.02 304.99 C 193.16 306.08 189.96 305.16 187.53 303.47 C 177.07 296.57 166.18 288.53 158.58 278.46 C 151.22 268.37 145.52 256.69 142.68 244.51 C 141.18 236.38 141.75 228.46 141.60 220.27 C 140.82 219.34 139.25 219.11 138.18 218.59 C 130.07 215.86 122.41 210.64 116.96 204.03 C 113.36 199.13 110.33 194.16 109.48 188.01 C 109.22 183.63 108.36 179.56 109.21 175.17 C 109.21 170.64 110.00 166.38 110.92 161.98 C 113.99 150.83 118.72 139.88 125.40 130.41 C 128.37 125.81 133.99 123.48 138.57 120.79 Z" fill="#2497d6" />
<path d="M 183.88 177.18 C 182.27 181.95 178.21 186.18 174.90 189.91 C 172.96 191.54 170.73 194.30 168.21 194.81 C 168.51 193.27 169.82 191.95 170.67 190.65 C 174.31 185.82 178.67 180.33 183.88 177.18 Z" fill="#000611" />
<path d="M 344.02 179.95 C 347.58 182.19 350.97 183.99 353.71 187.30 C 355.05 188.80 355.81 190.51 357.72 191.38 C 358.09 195.44 361.53 198.68 361.62 202.98 C 362.07 208.75 362.10 215.11 361.41 220.85 C 359.35 230.18 355.61 238.91 348.71 245.70 C 343.05 251.15 335.58 254.91 328.16 257.30 C 322.91 259.41 316.53 258.17 310.92 258.37 C 306.80 257.62 303.16 255.85 300.30 252.71 C 298.98 251.25 297.23 249.54 297.38 247.44 C 297.16 247.59 296.94 247.83 296.73 248.14 C 294.06 241.56 294.48 234.93 294.73 227.99 C 295.27 219.75 298.33 212.32 302.33 205.19 C 306.64 197.30 312.79 191.33 319.50 185.48 C 323.13 182.35 327.21 179.94 332.00 179.15 C 335.78 178.26 340.67 177.51 344.02 179.95 Z" fill="#29b1ab" />
<path d="M 337.54 197.54 C 340.52 199.20 342.45 202.82 343.50 205.95 C 344.20 214.21 343.48 222.17 338.59 229.11 C 334.01 224.95 325.29 227.00 321.22 231.15 C 318.31 232.50 315.97 234.55 313.42 236.44 L 312.88 235.01 C 312.72 229.15 313.41 223.43 316.23 218.21 C 319.80 210.17 325.75 203.98 332.53 198.55 C 334.03 197.47 335.71 196.68 337.54 197.54 Z" fill="#010101" />
<path d="M 472.99 198.37 C 500.99 198.37 529.00 198.36 557.00 198.37 C 560.15 198.49 562.85 197.37 566.02 198.08 C 571.97 198.59 577.69 203.80 577.49 210.00 C 577.62 215.34 573.42 219.85 568.53 221.41 C 561.13 223.22 553.83 222.13 545.94 222.57 C 542.40 224.08 539.10 225.62 536.18 228.19 C 531.99 232.85 531.05 238.01 529.54 243.83 C 527.93 248.09 527.73 252.58 526.69 256.98 C 526.46 264.31 526.47 271.67 526.68 279.00 C 526.80 287.63 526.34 296.41 527.15 305.00 C 527.45 312.32 527.57 319.84 527.15 327.14 C 522.23 324.32 525.68 319.30 524.26 314.74 C 522.73 311.80 519.58 308.90 516.02 309.27 C 512.97 308.93 510.80 310.39 508.04 311.26 C 505.59 311.19 502.79 310.41 500.81 308.92 C 499.77 305.48 500.44 301.55 499.89 298.00 C 499.77 292.67 499.92 287.33 499.85 282.00 C 499.22 278.48 499.13 275.54 499.70 271.99 C 499.79 263.01 499.69 253.99 499.74 245.00 C 499.69 242.87 499.93 240.94 499.26 238.88 C 497.87 234.74 498.29 230.35 494.96 227.03 C 492.01 223.83 487.45 224.13 483.50 223.33 C 479.07 221.58 473.81 222.99 469.00 222.61 C 463.96 222.99 459.00 221.23 456.09 216.95 C 452.62 212.08 453.95 205.15 458.27 201.25 C 462.34 197.46 467.77 196.94 472.99 198.37 Z" fill="#ea6ea4" />
<path d="M 607.16 198.54 C 611.35 197.35 614.63 198.99 618.84 198.86 C 624.37 199.56 629.47 199.61 634.49 202.39 C 638.41 203.56 642.94 203.37 647.01 203.73 C 650.90 203.76 655.19 205.02 659.01 204.26 C 664.02 203.23 669.70 203.75 673.58 207.40 C 676.78 210.19 678.23 214.93 676.99 219.00 C 675.60 223.75 670.90 227.38 666.02 227.81 C 659.77 228.85 653.27 228.84 647.00 227.96 C 644.67 227.76 642.43 227.52 640.13 228.10 C 633.91 228.90 627.67 229.02 621.48 229.73 C 619.25 229.87 616.64 231.79 616.44 234.13 C 614.96 243.24 614.29 252.46 612.34 261.52 C 610.32 270.63 609.14 279.86 607.22 288.99 C 606.76 291.62 608.13 293.41 609.57 295.41 C 611.53 296.03 613.95 295.43 616.01 295.72 C 620.95 296.48 626.00 296.91 631.00 296.96 C 636.48 297.28 641.48 300.59 643.08 305.97 C 644.87 311.45 641.59 317.20 636.63 319.62 C 633.14 321.36 629.75 321.13 625.99 321.13 C 618.88 320.56 612.02 319.39 604.99 319.78 C 602.60 321.22 600.19 323.27 598.27 325.29 C 596.62 326.89 596.69 328.93 595.95 330.99 C 594.12 337.72 591.37 344.09 588.37 350.37 C 586.42 354.78 585.15 359.50 583.36 364.00 C 583.99 366.44 584.81 368.41 584.24 371.01 C 583.32 374.61 582.86 378.04 584.52 381.52 C 586.01 383.40 587.74 383.05 589.86 383.44 C 592.13 383.83 593.74 385.53 596.01 385.85 C 600.11 387.08 603.95 386.49 608.01 386.85 C 615.69 388.31 625.04 385.95 632.48 388.69 C 637.60 390.86 641.38 396.35 639.93 402.00 C 638.60 408.14 632.06 412.14 626.00 411.69 C 619.70 411.10 613.29 411.80 606.99 411.30 C 602.30 410.39 597.58 411.16 592.86 410.04 C 589.89 409.38 587.09 408.49 584.00 408.72 C 577.62 408.92 571.35 408.40 565.00 407.94 C 561.53 407.79 558.50 408.37 555.22 406.75 C 551.19 404.99 548.33 401.44 547.77 397.03 C 547.36 392.69 550.21 388.03 551.40 384.03 C 552.39 378.28 554.28 372.73 555.27 366.99 C 555.71 361.08 558.11 356.37 559.87 350.84 C 562.62 341.87 567.52 334.11 569.96 324.98 C 574.59 308.51 579.88 291.92 582.63 275.01 C 584.04 265.94 586.13 257.05 587.52 247.99 C 588.53 242.06 588.72 235.95 590.02 230.00 C 591.58 222.30 593.20 214.29 597.62 207.65 C 599.04 202.87 602.38 199.81 607.16 198.54 Z" fill="#d8acd0" />
<path d="M 417.55 206.77 C 421.87 205.67 426.61 205.42 431.02 206.02 C 437.40 207.13 443.55 210.64 445.53 217.15 C 446.87 222.05 445.99 226.80 446.30 231.99 C 446.29 242.82 450.61 253.41 451.69 264.20 C 453.41 270.42 454.09 276.70 455.40 282.99 C 455.74 288.42 455.97 294.13 457.56 299.34 C 460.52 310.36 460.95 321.78 465.22 332.87 C 469.85 348.11 471.82 364.22 476.22 379.53 C 477.01 383.95 479.64 387.69 480.48 392.03 C 481.58 395.88 484.73 400.95 483.98 405.02 C 482.90 413.53 472.62 417.99 465.18 414.61 C 460.64 413.13 457.83 408.69 456.63 404.28 C 454.19 396.66 450.64 389.71 449.29 381.78 C 447.41 376.27 446.52 371.00 445.55 365.31 C 443.02 355.44 442.02 346.58 438.55 336.48 C 437.67 333.62 434.97 332.90 433.59 330.41 C 432.11 328.21 431.49 325.33 428.73 324.38 C 426.27 323.67 424.53 322.28 422.03 322.48 C 416.56 322.16 411.46 324.27 406.63 326.58 C 405.96 331.84 404.72 336.82 403.74 342.01 C 403.06 349.44 400.20 356.19 399.22 363.47 C 397.09 369.20 396.13 375.08 395.34 381.12 C 393.39 387.81 391.63 394.68 389.34 401.25 C 387.86 405.73 385.13 409.42 384.18 414.09 C 381.30 421.37 371.99 424.24 365.16 420.78 C 360.68 418.99 357.59 413.80 358.14 408.99 C 358.21 402.72 363.18 396.72 364.55 391.19 C 366.33 384.41 368.97 378.96 369.66 372.01 C 370.42 365.55 372.84 359.52 373.96 353.00 C 374.54 349.75 375.82 346.78 376.38 343.52 C 377.51 336.43 378.93 329.99 380.20 323.02 C 380.98 316.85 381.06 309.83 383.22 304.02 C 384.63 295.09 385.51 285.35 387.47 276.56 C 388.12 271.91 389.94 267.79 389.67 262.99 C 390.77 257.57 391.43 252.19 392.64 246.86 C 394.71 240.12 396.03 233.04 398.65 226.49 C 401.64 220.42 405.98 215.44 410.94 210.90 C 412.93 209.03 415.23 208.11 417.55 206.77 Z" fill="#e20e7f" />
<path d="M 259.52 208.20 C 263.94 208.50 266.71 211.29 269.25 214.60 C 270.31 217.45 270.57 219.66 270.61 222.68 C 269.23 224.02 269.57 225.25 269.56 227.00 C 269.98 234.32 269.88 241.68 269.77 249.00 C 269.88 249.76 269.68 252.98 270.90 252.76 C 271.47 244.19 270.88 235.53 271.24 226.95 C 271.63 235.29 271.28 243.66 271.44 252.01 C 271.70 254.17 272.50 256.19 272.74 258.37 C 275.44 261.62 277.87 259.50 281.38 259.28 C 286.40 255.45 291.83 252.22 296.73 248.14 C 296.94 247.83 297.16 247.59 297.38 247.44 C 297.23 249.54 298.98 251.25 300.30 252.71 C 303.16 255.85 306.80 257.62 310.92 258.37 C 314.99 258.75 319.05 258.48 323.11 258.51 C 324.83 259.29 322.65 260.37 321.99 260.96 C 312.23 267.65 303.60 275.11 293.56 280.69 C 290.11 283.30 285.40 285.57 282.79 289.05 C 283.00 290.12 283.31 291.18 283.73 292.23 C 286.80 297.57 290.11 302.85 292.76 308.42 C 297.80 316.31 302.34 325.28 307.44 333.24 C 309.42 337.87 312.44 341.87 314.43 346.50 C 316.63 350.55 318.41 355.10 321.22 358.78 C 326.52 368.38 332.92 377.29 338.28 386.83 C 341.27 391.61 344.67 395.82 347.18 400.91 C 350.11 404.35 352.87 407.27 353.48 411.98 C 353.61 416.79 350.97 420.41 347.34 423.26 C 341.68 425.55 333.76 425.48 329.50 420.50 C 326.64 417.93 325.20 414.42 322.87 411.24 C 319.72 405.65 315.75 400.81 312.87 395.07 C 306.98 385.91 301.57 377.46 295.91 368.16 C 291.32 359.84 287.41 350.87 282.34 342.82 C 280.18 339.37 279.60 335.05 277.07 331.93 C 275.38 329.38 272.05 330.37 269.53 330.73 C 268.85 331.54 268.48 332.51 267.80 333.32 C 267.93 334.59 268.42 335.68 268.07 337.00 C 267.14 343.61 268.45 349.52 269.38 355.99 C 269.86 360.37 269.59 364.60 269.65 369.00 C 269.60 374.98 270.03 381.11 269.71 387.07 C 267.52 391.96 261.22 394.65 256.01 393.79 C 251.43 393.85 247.40 390.42 245.53 386.45 C 244.75 382.79 245.91 378.69 244.89 375.01 C 244.56 372.38 244.33 370.02 245.35 367.51 C 245.66 354.08 245.20 340.42 245.88 326.99 C 247.13 312.14 245.21 295.77 245.52 280.62 C 245.18 280.55 244.87 280.43 244.59 280.26 C 245.15 258.43 243.87 237.49 244.47 215.40 C 245.57 212.43 247.84 210.63 250.72 209.45 C 253.53 207.94 256.37 207.27 259.52 208.20 Z" fill="#df0535" />
<path d="M 270.61 222.68 C 270.95 224.10 271.16 225.52 271.24 226.95 C 270.88 235.53 271.47 244.19 270.90 252.76 C 269.68 252.98 269.88 249.76 269.77 249.00 C 269.88 241.68 269.98 234.32 269.56 227.00 C 269.57 225.25 269.23 224.02 270.61 222.68 Z" fill="#af1f3e" />
<path d="M 338.59 229.11 C 335.26 234.90 329.73 236.75 324.08 239.51 C 320.72 239.73 316.82 240.21 313.56 239.42 C 313.35 238.45 313.31 237.45 313.42 236.44 C 315.97 234.55 318.31 232.50 321.22 231.15 C 325.29 227.00 334.01 224.95 338.59 229.11 Z" fill="#dd0636" />
<path d="M 418.66 254.56 C 420.56 254.30 423.86 256.95 423.63 259.00 C 424.42 261.37 424.48 263.74 424.75 266.20 C 426.75 274.26 428.64 282.68 428.76 291.01 C 428.41 293.17 428.04 296.01 425.51 296.54 C 422.77 298.06 419.93 297.78 416.92 297.60 C 414.51 296.26 411.94 295.29 412.18 292.02 C 412.49 284.60 414.78 277.31 416.08 270.02 C 416.48 267.47 416.13 264.43 417.05 262.00 C 418.06 259.44 417.07 256.93 418.66 254.56 Z" fill="#010001" />
<path d="M 498.60 272.87 C 498.81 275.64 498.76 278.36 498.67 281.12 C 497.86 282.86 495.84 283.79 495.65 285.96 C 495.37 289.62 495.45 293.33 495.47 297.00 C 495.43 301.44 497.39 306.04 500.81 308.92 C 502.79 310.41 505.59 311.19 508.04 311.26 C 510.80 310.39 512.97 308.93 516.02 309.27 C 519.58 308.90 522.73 311.80 524.26 314.74 C 525.68 319.30 522.23 324.32 527.15 327.14 C 533.05 330.40 541.42 330.46 547.80 328.63 C 549.24 329.72 551.09 330.17 552.54 331.32 C 554.59 332.72 555.35 334.79 556.20 337.02 C 556.96 340.06 555.03 342.31 553.58 344.68 L 554.04 345.31 C 546.55 349.25 536.19 348.26 528.08 347.13 C 523.11 345.44 518.32 344.10 513.97 341.00 C 510.90 338.40 508.00 335.63 506.46 331.83 C 505.94 330.79 505.59 329.24 504.58 328.57 C 503.03 328.46 501.47 328.54 499.91 328.55 C 488.01 325.92 479.75 314.55 477.62 303.02 C 476.94 298.08 477.22 292.98 477.22 288.00 C 477.43 283.03 477.84 277.05 480.61 272.77 C 484.78 266.89 494.90 266.12 498.60 272.87 Z" fill="#ffd748" />
<path d="M 504.58 328.57 C 505.59 329.24 505.94 330.79 506.46 331.83 C 508.00 335.63 510.90 338.40 513.97 341.00 C 518.32 344.10 523.11 345.44 528.08 347.13 C 528.72 350.32 528.59 353.76 528.60 357.00 C 528.68 367.54 528.10 378.34 528.38 388.86 C 529.56 392.11 530.07 395.30 528.48 398.54 C 525.26 405.51 516.18 408.04 509.54 404.48 C 504.31 402.04 501.68 395.49 501.52 390.02 C 501.41 380.33 501.66 370.69 501.81 361.00 C 502.18 350.28 500.14 339.84 500.68 329.10 L 499.91 328.55 C 501.47 328.54 503.03 328.46 504.58 328.57 Z" fill="#ea6ea4" />
<path d="M 547.80 328.63 C 553.53 327.20 559.29 332.17 558.59 338.02 C 558.75 340.95 556.62 344.05 554.04 345.31 L 553.58 344.68 C 555.03 342.31 556.96 340.06 556.20 337.02 C 555.35 334.79 554.59 332.72 552.54 331.32 C 551.09 330.17 549.24 329.72 547.80 328.63 Z" fill="#ab963b" />
<path d="M 753.84 350.92 C 758.94 351.61 763.68 354.45 768.33 356.64 C 775.87 360.25 782.57 365.07 789.76 369.26 C 792.27 370.71 795.08 370.03 797.52 371.56 C 799.09 372.60 800.21 374.02 801.43 375.44 C 801.76 378.12 801.71 380.87 801.43 383.56 C 799.12 386.30 796.84 388.55 793.01 388.54 C 785.09 389.01 778.48 383.77 772.07 379.89 C 766.60 376.25 760.79 373.34 754.92 370.43 L 754.30 371.00 C 754.60 381.72 753.79 392.90 755.19 403.51 C 755.91 414.51 759.32 423.52 757.37 434.83 C 756.07 438.71 752.10 441.58 748.00 441.36 C 745.10 441.57 742.22 439.66 740.02 437.94 C 734.72 433.08 729.56 427.16 724.39 422.30 C 724.62 427.78 724.31 433.29 724.57 438.77 C 724.32 450.16 724.84 461.61 724.53 473.01 C 724.43 476.21 721.92 479.14 719.08 480.39 C 716.39 480.74 713.65 480.73 710.97 480.31 C 703.77 475.64 697.69 468.89 691.25 463.24 C 692.45 471.51 693.85 479.70 694.74 488.03 C 695.58 490.99 695.10 494.52 696.54 497.23 C 696.36 500.12 696.49 502.14 697.32 504.93 C 697.69 509.05 698.45 513.00 699.45 516.99 C 700.25 522.55 695.26 527.66 689.83 527.66 C 686.33 527.37 684.21 525.36 681.74 523.15 C 679.43 511.97 678.33 501.16 676.45 490.02 C 675.54 478.48 672.83 467.45 671.77 456.01 C 671.71 449.53 671.07 443.30 672.84 436.98 C 674.49 435.62 676.02 434.26 678.05 433.45 C 680.05 433.37 682.04 433.29 684.04 433.48 C 686.14 434.53 688.43 435.34 690.37 436.66 C 695.09 440.99 699.01 445.91 704.13 449.83 C 704.55 450.16 704.99 450.45 705.45 450.72 C 706.23 443.67 705.06 436.80 706.22 430.00 C 706.23 420.68 706.14 411.33 706.27 402.01 C 706.36 397.59 709.41 392.90 714.00 392.21 C 717.25 390.78 721.68 392.62 724.32 394.68 C 729.21 398.51 733.07 404.50 737.40 408.63 C 735.48 397.30 736.42 386.36 735.93 375.00 C 736.68 368.85 734.73 360.97 738.71 355.71 C 742.31 351.05 748.42 350.69 753.84 350.92 Z" fill="#ffd747" />
<path d="M 45.52 369.54 C 55.64 373.13 66.27 375.03 77.00 375.34 C 84.65 375.33 92.05 375.80 99.49 377.72 C 103.56 378.90 107.03 377.46 110.67 379.34 C 114.72 381.33 116.76 386.14 115.52 390.48 C 114.45 394.80 110.81 396.79 107.79 399.78 C 98.70 408.21 88.35 414.90 78.87 422.85 C 65.27 434.91 53.40 449.10 43.05 464.03 C 41.21 466.87 38.49 468.76 35.02 468.80 C 30.38 469.11 26.07 465.57 25.32 461.01 C 24.48 458.00 25.82 454.56 26.41 451.52 C 30.08 437.70 30.98 424.09 32.99 410.02 C 33.78 405.98 33.57 401.95 33.97 397.88 C 34.45 395.24 34.85 392.65 34.22 389.99 C 33.89 388.19 34.44 386.69 34.70 384.94 C 32.32 381.56 31.41 377.37 33.68 373.69 C 35.91 369.55 41.20 367.90 45.52 369.54 Z" fill="#f3a842" />
<path d="M 54.13 392.04 C 55.42 392.01 56.73 392.32 58.01 392.58 C 66.17 394.52 75.26 394.41 83.65 394.51 C 81.59 396.79 78.76 398.40 76.37 400.33 C 67.41 406.95 59.16 414.35 51.72 422.66 L 50.90 422.92 L 50.68 422.02 C 52.55 412.06 52.59 402.01 54.13 392.04 Z" fill="#010101" />
<path d="M 219.00 410.27 C 222.41 410.22 224.96 411.76 228.18 412.63 C 233.20 414.61 237.86 419.07 239.87 424.12 C 240.78 426.16 241.98 428.07 242.82 430.14 C 244.50 434.39 243.95 438.90 245.60 443.18 C 247.67 448.57 247.11 454.10 248.12 459.98 C 248.54 465.61 247.91 471.36 248.54 476.99 C 248.75 485.40 249.52 493.60 249.64 502.03 C 250.98 506.94 251.46 511.95 251.44 517.02 C 253.02 530.45 253.57 544.58 255.15 558.00 C 254.84 565.79 256.46 573.19 255.79 581.01 C 254.86 586.29 250.81 590.98 245.72 592.64 C 240.29 594.56 233.80 593.37 229.57 589.40 C 226.24 586.48 224.84 582.33 224.62 578.00 C 224.77 571.95 223.44 566.08 223.82 560.00 C 223.14 552.90 222.53 546.11 221.94 539.00 C 221.63 530.60 220.24 522.37 220.00 514.00 C 219.94 510.86 218.33 508.16 218.34 505.02 C 218.25 498.66 218.14 492.32 217.58 485.98 C 217.76 482.61 216.36 479.36 213.74 477.23 C 212.50 475.84 210.75 476.72 209.99 478.09 C 208.44 481.36 207.29 484.92 206.59 488.48 C 205.48 493.80 207.13 498.77 205.31 504.00 C 203.97 507.17 205.35 510.63 203.95 513.92 C 201.39 521.02 193.58 525.53 186.16 523.81 C 181.70 523.17 177.84 520.26 175.56 516.44 C 172.53 511.54 173.97 505.55 171.61 500.15 C 168.56 492.65 166.52 485.00 164.59 477.15 C 164.03 474.90 163.40 472.70 162.41 470.60 C 160.98 469.21 159.40 470.07 159.32 471.96 C 158.34 481.37 156.98 490.62 155.79 499.99 C 155.70 506.21 154.43 512.12 153.15 518.17 C 152.36 520.89 151.36 524.06 151.89 526.88 C 148.03 522.61 143.97 518.19 138.01 517.20 C 132.29 515.58 126.69 517.32 121.62 517.36 L 121.45 516.07 C 122.48 512.07 123.23 508.05 124.02 504.01 C 125.21 490.37 127.50 476.83 128.59 463.14 C 128.92 460.02 130.57 457.02 130.85 453.85 C 131.54 450.73 131.26 447.57 132.21 444.48 C 133.16 437.48 134.32 429.53 138.69 423.69 C 143.12 419.15 146.99 415.04 153.52 413.77 C 159.55 412.85 167.03 413.00 172.03 416.97 C 178.18 424.02 180.72 432.06 184.44 440.48 C 185.26 442.99 185.74 445.42 187.41 447.57 C 188.74 448.74 190.16 448.53 191.32 447.28 C 193.91 441.45 195.75 435.40 198.70 429.76 C 200.10 425.67 202.72 422.30 204.36 418.33 C 206.97 413.09 213.24 409.87 219.00 410.27 Z" fill="#7e7db9" />
<path d="M 305.00 415.33 C 311.01 415.41 316.35 417.51 321.49 420.45 C 327.37 422.92 331.90 426.13 336.39 430.63 C 340.14 433.35 342.85 436.71 345.70 440.30 C 354.34 448.76 361.54 460.71 362.27 473.00 C 362.39 485.85 362.50 499.28 360.57 512.01 C 359.34 520.71 355.98 528.62 354.31 537.19 C 351.87 547.49 346.06 555.50 339.72 563.73 C 334.91 569.43 329.04 572.83 323.07 577.10 C 319.04 579.94 314.69 582.66 309.80 583.67 C 305.46 584.85 300.53 584.41 296.00 584.48 C 291.25 584.46 287.52 582.20 283.17 580.69 C 280.41 579.70 277.99 578.11 275.73 576.28 C 272.24 573.26 270.92 569.61 268.07 565.97 C 264.41 561.12 262.94 555.80 260.77 550.20 C 259.40 544.53 257.08 538.76 257.35 533.00 C 257.36 528.67 257.36 524.33 257.34 520.00 C 257.15 515.13 256.76 509.98 257.54 505.15 C 258.05 503.14 258.68 501.18 259.12 499.15 C 259.29 492.69 260.26 486.42 261.04 480.02 C 261.66 473.52 263.25 467.24 265.14 461.00 C 266.48 456.50 268.87 452.56 269.89 447.96 C 271.16 443.20 273.44 438.99 275.38 434.52 C 276.30 431.32 277.80 428.54 280.44 426.44 C 283.21 424.28 285.81 421.74 288.83 419.92 C 293.84 417.76 299.44 414.92 305.00 415.33 Z" fill="#564392" />
<path d="M 614.02 428.40 C 617.55 429.32 620.99 431.96 623.99 434.03 C 627.26 436.24 628.72 439.96 631.97 442.06 C 636.40 445.38 640.07 450.18 639.64 456.00 C 640.09 460.23 638.30 463.65 635.93 466.98 C 633.76 470.19 628.84 470.58 626.17 467.81 C 622.67 464.75 618.78 464.90 615.03 462.62 C 611.00 462.34 606.99 460.73 603.40 463.35 C 600.83 469.81 602.57 476.82 607.18 481.80 C 610.36 484.05 612.45 487.09 615.20 489.77 C 619.66 494.15 623.34 499.17 626.61 504.48 C 629.82 510.61 632.19 517.06 634.47 523.59 C 636.48 527.13 636.86 530.97 638.35 534.70 C 641.42 540.38 641.58 547.68 642.10 554.00 C 642.04 563.27 642.69 572.12 640.12 581.16 C 638.31 584.95 637.05 588.87 635.90 592.89 C 633.72 597.81 629.89 601.56 624.87 603.45 C 618.33 603.83 611.68 603.74 605.14 603.44 C 601.49 602.38 599.03 600.14 596.16 597.81 C 591.15 595.12 586.18 594.34 582.62 589.41 C 580.09 586.92 578.87 583.86 577.11 580.86 C 574.76 576.64 574.53 572.06 572.78 567.48 C 572.10 561.86 572.23 555.81 572.68 550.17 C 574.31 544.87 575.69 540.02 580.51 536.71 C 585.27 535.63 589.08 539.21 590.58 543.42 C 592.83 548.52 591.69 554.39 592.91 560.02 C 593.76 564.24 596.38 568.74 600.03 571.10 C 602.94 571.11 606.10 572.67 608.85 571.81 C 613.57 569.77 616.16 564.73 616.74 559.82 C 618.43 554.20 618.52 548.72 616.59 543.14 C 615.90 538.66 612.86 535.72 611.54 531.46 C 609.17 524.55 606.37 517.79 602.28 511.70 C 600.10 509.18 598.41 506.28 596.22 503.78 C 589.91 498.60 584.40 493.19 581.65 485.29 C 578.30 479.26 576.59 472.86 576.09 466.00 C 576.25 457.24 576.39 449.19 580.01 441.04 C 581.18 438.66 582.85 436.55 584.91 434.89 C 587.50 432.86 589.18 430.57 592.44 429.48 C 599.21 427.52 606.97 428.46 614.02 428.40 Z" fill="#29b2ab" />
<path d="M 703.87 432.33 C 706.18 432.50 705.46 434.39 705.55 436.00 C 705.38 440.39 705.98 445.06 705.26 449.36 L 704.13 449.83 C 699.01 445.91 695.09 440.99 690.37 436.66 C 688.43 435.34 686.14 434.53 684.04 433.48 C 682.04 433.29 680.05 433.37 678.05 433.45 C 686.15 431.21 695.52 431.42 703.87 432.33 Z" fill="#7f7db8" />
<path d="M 672.84 436.98 C 671.07 443.30 671.71 449.53 671.77 456.01 C 672.83 467.45 675.54 478.48 676.45 490.02 C 678.33 501.16 679.43 511.97 681.74 523.15 C 678.28 521.61 675.08 519.21 672.09 516.90 C 668.04 512.89 663.06 509.95 659.25 505.74 C 654.34 501.48 650.16 495.42 648.71 489.03 C 647.66 475.17 650.79 459.71 659.72 448.71 C 663.38 444.43 667.62 439.35 672.84 436.98 Z" fill="#7e7db9" />
<path d="M 724.57 438.77 C 728.16 440.36 731.35 443.15 734.11 445.89 C 738.95 450.65 741.88 457.53 744.17 463.82 C 744.74 468.63 745.92 473.01 744.51 477.48 C 742.75 483.25 737.01 487.63 731.00 487.95 C 725.34 488.51 719.93 485.86 716.57 481.33 C 714.70 481.07 712.76 480.90 710.97 480.31 C 713.65 480.73 716.39 480.74 719.08 480.39 C 721.92 479.14 724.43 476.21 724.53 473.01 C 724.84 461.61 724.32 450.16 724.57 438.77 Z" fill="#7e7db8" />
<path d="M 387.98 448.12 C 393.36 447.12 398.59 447.84 404.00 447.77 C 409.29 447.79 414.64 449.65 419.52 451.57 C 425.47 454.99 431.01 459.29 436.01 463.99 C 440.59 469.28 445.78 474.72 449.13 480.88 C 451.00 485.24 452.26 489.73 452.80 494.45 C 453.85 496.52 454.02 498.72 454.12 501.00 C 454.13 506.17 454.49 510.89 452.68 515.85 C 451.11 520.21 450.06 524.84 448.03 529.02 C 446.69 531.46 445.21 534.86 442.62 536.16 C 442.33 534.55 441.61 533.09 441.23 531.50 C 438.94 528.52 434.84 525.84 430.95 526.51 C 427.86 527.54 424.42 529.25 424.31 532.98 C 424.34 537.59 423.53 541.90 425.48 546.07 C 426.33 547.65 426.32 549.01 426.50 550.76 C 424.98 551.17 424.35 552.33 423.37 553.42 C 422.40 554.52 421.16 555.17 420.35 556.43 C 417.68 559.16 412.17 559.97 408.86 561.55 C 404.36 562.44 399.84 563.26 397.75 567.94 C 397.25 570.85 397.05 574.30 398.36 577.03 C 398.60 579.32 398.32 581.72 398.07 584.00 C 397.30 589.51 397.68 595.52 397.56 601.02 C 396.94 605.94 394.16 610.24 389.87 612.76 C 386.31 614.94 381.78 614.92 377.79 614.29 C 371.81 612.52 366.90 607.37 366.32 601.02 C 365.97 593.48 366.38 585.70 366.67 578.18 C 367.91 572.91 368.59 567.41 368.79 561.99 C 370.30 548.53 369.12 535.45 370.17 522.00 C 370.42 518.29 370.28 514.51 370.81 510.83 C 371.72 507.21 371.40 503.74 371.46 500.00 C 371.40 488.66 371.58 477.31 371.33 465.98 C 371.15 460.66 375.33 456.35 378.72 452.73 C 381.25 450.55 384.54 448.24 387.98 448.12 Z" fill="#1b3d87" />
<path d="M 520.16 458.90 C 523.28 459.86 525.62 462.15 528.83 462.65 C 532.05 463.56 534.96 465.39 537.69 467.28 C 542.53 470.56 547.03 473.83 550.15 478.90 C 554.29 485.42 559.54 491.65 562.26 498.80 C 564.46 504.62 567.03 509.59 566.54 516.00 C 567.18 532.30 564.46 548.36 559.49 563.84 C 554.75 575.89 547.24 586.04 538.49 595.47 C 532.56 601.48 524.49 605.18 516.00 605.19 C 510.99 605.17 506.10 605.41 501.16 604.41 C 492.11 602.20 484.04 596.36 480.31 587.65 C 478.96 585.77 476.69 584.66 475.68 582.52 C 474.46 579.03 474.68 575.38 473.49 571.84 C 471.70 566.68 471.35 561.42 471.47 556.00 C 471.56 547.30 471.20 538.66 471.80 529.99 C 472.21 524.34 473.67 518.62 474.62 512.99 C 474.83 509.47 476.83 506.19 477.71 502.78 C 481.08 494.52 483.57 486.08 488.72 478.70 C 492.61 473.40 495.80 468.11 500.97 463.95 C 506.47 459.88 513.29 457.41 520.16 458.90 Z" fill="#2497d6" />
<path d="M 322.01 463.98 C 325.93 467.97 328.26 473.79 329.66 479.12 C 330.14 484.11 329.61 490.04 328.72 494.98 C 328.97 498.50 331.00 501.19 329.84 504.85 C 329.26 513.53 325.18 521.27 324.56 529.87 C 323.69 534.92 320.50 540.24 316.42 543.35 C 314.46 544.18 312.37 544.34 310.53 545.52 C 306.01 548.37 299.86 549.09 294.85 547.22 C 292.92 545.81 291.96 543.51 289.94 542.12 C 287.62 540.50 285.90 537.98 284.54 535.53 C 282.35 529.21 279.80 523.57 279.28 516.81 C 278.56 509.70 277.70 501.84 279.40 494.84 C 279.73 491.28 280.19 487.80 281.60 484.48 C 284.43 477.93 287.38 471.66 293.03 467.04 C 296.91 463.62 301.23 462.27 305.85 459.84 C 311.18 457.85 317.83 460.60 322.01 463.98 Z" fill="#000000" />
<path d="M 406.53 479.49 C 411.98 483.00 416.27 487.75 420.12 492.91 C 424.95 501.97 423.08 513.64 415.83 520.86 C 413.67 524.09 409.69 525.89 405.97 526.43 C 403.03 524.71 402.50 520.06 401.87 517.01 C 403.00 509.05 402.64 501.19 402.67 493.00 C 402.74 488.78 402.29 485.00 403.83 480.96 C 404.36 479.86 405.28 479.10 406.53 479.49 Z" fill="#000001" />
<path d="M 93.89 486.45 C 95.97 486.39 98.03 486.26 100.11 486.49 C 103.84 488.28 106.61 491.75 106.49 496.01 C 106.38 499.71 104.23 502.22 101.64 504.62 C 98.94 508.00 96.84 511.92 94.63 515.63 C 93.05 518.87 90.21 522.46 90.02 526.12 L 90.92 526.48 C 98.85 526.85 106.91 521.84 114.49 519.57 C 116.84 518.68 119.36 518.45 121.62 517.36 C 126.69 517.32 132.29 515.58 138.01 517.20 C 143.97 518.19 148.03 522.61 151.89 526.88 C 154.72 530.03 156.28 533.73 157.16 537.83 C 157.12 541.94 157.07 546.06 157.17 550.17 C 156.32 554.84 155.14 559.22 155.24 564.00 C 155.34 567.06 154.57 569.62 157.00 572.03 C 160.89 575.89 166.39 578.80 172.00 578.45 C 178.33 578.66 184.14 578.37 190.17 576.23 C 194.78 574.44 199.16 576.91 201.66 580.82 C 201.67 583.63 201.89 586.34 201.52 589.15 C 199.90 591.60 197.62 593.03 194.85 593.88 C 189.76 595.53 184.37 596.73 179.00 596.72 C 172.40 596.70 166.39 597.21 160.02 595.02 C 152.64 592.42 146.15 587.85 141.08 581.90 C 139.17 578.05 138.38 574.15 137.40 570.03 C 137.38 566.04 137.15 561.94 137.58 557.98 C 138.88 555.49 137.74 552.84 139.13 550.41 C 139.71 547.16 139.20 543.57 139.47 540.24 C 138.10 542.83 139.65 546.80 138.95 549.68 L 138.38 549.84 C 138.64 546.55 138.69 543.22 138.46 539.93 C 137.62 538.22 135.89 536.10 134.05 535.50 C 129.51 535.29 123.92 535.09 119.86 537.38 C 112.19 539.20 103.73 544.53 94.99 544.64 C 89.12 544.77 82.53 544.98 77.43 541.60 C 74.33 539.76 71.98 536.59 71.41 533.01 C 70.64 526.65 71.68 520.28 74.47 514.51 C 78.92 505.54 84.07 497.12 90.16 489.18 C 91.00 487.95 92.72 487.37 93.89 486.45 Z" fill="#fed748" />
<path d="M 696.54 497.23 C 698.85 497.73 700.70 499.45 702.98 500.12 C 709.29 502.32 715.26 505.35 720.62 509.35 C 725.50 512.90 731.15 516.52 734.18 521.89 C 736.98 527.08 738.92 532.55 740.64 538.17 C 742.72 543.53 743.83 549.24 743.54 555.00 C 743.27 560.04 744.29 565.73 742.57 570.48 C 740.33 578.29 736.69 585.53 732.32 592.35 C 728.82 597.07 724.59 601.35 720.00 605.01 C 712.80 611.70 703.40 617.88 693.54 619.41 C 686.41 619.61 679.97 620.86 673.16 619.45 C 666.31 617.66 661.53 613.08 657.48 607.50 C 652.14 600.54 650.63 592.53 649.85 584.00 C 649.83 578.54 648.77 571.96 650.70 566.78 C 654.34 557.74 666.78 553.98 674.95 559.06 C 680.25 562.23 683.43 568.91 681.83 574.97 C 680.35 579.57 681.30 585.02 682.47 589.61 C 684.75 589.96 687.25 589.66 689.53 589.43 C 694.23 587.17 698.16 583.54 702.02 580.03 C 707.05 575.76 710.19 569.19 712.25 563.04 C 712.56 557.90 712.89 551.96 710.73 547.16 C 709.53 544.00 708.82 539.93 706.83 537.21 C 701.72 533.20 696.28 529.15 689.83 527.66 C 695.26 527.66 700.25 522.55 699.45 516.99 C 698.45 513.00 697.69 509.05 697.32 504.93 C 696.49 502.14 696.36 500.12 696.54 497.23 Z" fill="#7e7db9" />
<path d="M 515.05 505.73 C 518.02 506.88 522.32 508.18 523.56 511.43 C 525.86 515.72 527.64 520.19 528.54 524.99 C 529.07 535.10 529.08 545.41 525.23 554.94 C 524.47 556.49 524.83 558.34 523.83 559.87 C 521.07 565.23 520.55 570.59 515.69 574.68 C 513.37 574.89 510.63 575.04 508.35 574.62 C 502.57 567.85 502.45 559.47 502.50 551.00 C 502.29 536.60 503.15 521.44 509.20 508.17 C 510.07 506.07 512.95 504.85 515.05 505.73 Z" fill="#000000" />
<path d="M 529.12 524.15 L 529.81 524.26 C 530.71 529.54 530.71 536.73 529.59 541.98 C 528.17 536.42 528.93 529.88 529.12 524.15 Z" fill="#3c8fbd" />
<path d="M 430.95 526.51 C 434.84 525.84 438.94 528.52 441.23 531.50 C 441.61 533.09 442.33 534.55 442.62 536.16 C 442.21 538.68 442.19 543.59 444.84 544.80 C 449.16 544.31 452.59 541.38 456.99 541.36 C 458.96 541.36 461.08 541.34 462.98 541.85 C 465.13 544.97 467.46 549.18 466.32 553.06 C 464.89 555.05 462.88 556.35 461.55 558.49 C 457.97 560.22 453.92 561.14 450.38 562.90 C 449.98 564.64 450.84 565.72 451.40 567.23 C 452.33 569.79 453.22 572.27 454.33 574.77 C 454.35 578.99 453.63 584.50 448.78 585.75 C 445.04 587.38 442.97 585.50 439.59 584.45 C 436.43 581.59 435.42 576.27 433.55 572.46 C 429.44 571.47 426.72 574.72 422.90 575.84 C 420.40 576.97 417.59 577.79 415.24 579.20 C 411.04 580.14 407.16 580.92 402.80 580.48 C 401.36 579.39 399.54 578.41 398.36 577.03 C 397.05 574.30 397.25 570.85 397.75 567.94 C 399.84 563.26 404.36 562.44 408.86 561.55 C 412.17 559.97 417.68 559.16 420.35 556.43 C 422.72 556.05 424.60 554.83 426.63 553.63 C 426.83 552.74 426.79 551.78 426.50 550.76 C 426.32 549.01 426.33 547.65 425.48 546.07 C 423.53 541.90 424.34 537.59 424.31 532.98 C 424.42 529.25 427.86 527.54 430.95 526.51 Z" fill="#de0635" />
<path d="M 134.05 535.50 C 135.89 536.10 137.62 538.22 138.46 539.93 C 138.69 543.22 138.64 546.55 138.38 549.84 L 138.95 549.68 C 139.65 546.80 138.10 542.83 139.47 540.24 C 139.20 543.57 139.71 547.16 139.13 550.41 C 137.74 552.84 138.88 555.49 137.58 557.98 C 137.15 561.94 137.38 566.04 137.40 570.03 C 138.38 574.15 139.17 578.05 141.08 581.90 C 133.95 585.37 124.02 581.26 121.18 573.86 C 119.86 571.00 119.94 568.07 120.23 565.00 C 119.47 555.85 119.60 546.56 119.86 537.38 C 123.92 535.09 129.51 535.29 134.05 535.50 Z" fill="#7e7db8" />
<path d="M 157.16 537.83 C 158.06 541.34 158.02 546.65 157.17 550.17 C 157.07 546.06 157.12 541.94 157.16 537.83 Z" fill="#463200" />
<path d="M 426.50 550.76 C 426.79 551.78 426.83 552.74 426.63 553.63 C 424.60 554.83 422.72 556.05 420.35 556.43 C 421.16 555.17 422.40 554.52 423.37 553.42 C 424.35 552.33 424.98 551.17 426.50 550.76 Z" fill="#481748" />
<path d="M 793.14 553.30 C 798.15 551.74 803.82 554.84 804.94 560.02 C 805.27 563.42 807.80 564.78 809.58 567.42 C 815.64 576.35 821.68 585.25 827.96 594.02 C 829.04 594.98 830.56 595.31 831.66 596.29 C 835.97 599.64 836.45 606.65 832.44 610.43 C 831.31 611.64 829.61 612.17 828.57 613.43 C 827.97 615.20 827.63 616.87 826.23 618.21 C 822.64 622.04 817.25 624.53 812.43 626.43 C 805.99 629.09 799.40 631.37 792.92 633.92 C 788.71 635.59 784.56 636.85 779.97 636.21 C 775.97 635.40 772.74 632.10 772.24 628.02 C 771.60 623.06 774.85 620.02 775.16 615.01 C 776.47 605.29 777.22 595.52 778.83 585.83 C 780.02 579.32 779.58 572.80 781.23 566.48 C 781.90 563.60 781.61 560.99 783.46 558.47 C 785.84 554.68 789.47 555.00 793.14 553.30 Z" fill="#6eb56f" />
<path d="M 154.38 557.38 L 154.80 557.21 C 155.12 561.41 155.35 565.69 154.93 569.90 L 154.05 569.82 C 153.12 565.74 153.29 561.42 154.38 557.38 Z" fill="#f3d362" />
<path d="M 433.55 572.46 C 435.42 576.27 436.43 581.59 439.59 584.45 C 440.04 585.31 440.47 586.18 440.86 587.08 C 442.49 591.10 443.95 595.23 445.86 599.13 C 448.52 604.69 447.20 611.56 442.85 615.87 C 439.64 618.84 435.43 620.68 431.00 620.39 C 425.38 620.39 419.74 616.70 417.34 611.63 C 413.64 604.70 411.63 595.78 406.96 589.04 C 405.09 586.36 403.86 583.55 402.80 580.48 C 407.16 580.92 411.04 580.14 415.24 579.20 C 417.59 577.79 420.40 576.97 422.90 575.84 C 426.72 574.72 429.44 571.47 433.55 572.46 Z" fill="#1b3d87" />
<path d="M 454.33 574.77 C 457.03 577.71 456.03 583.56 453.06 586.06 C 449.79 589.42 444.78 589.09 440.86 587.08 C 440.47 586.18 440.04 585.31 439.59 584.45 C 442.97 585.50 445.04 587.38 448.78 585.75 C 453.63 584.50 454.35 578.99 454.33 574.77 Z" fill="#880926" />
<path d="M 798.30 585.18 C 800.85 588.14 802.66 591.83 805.14 594.89 C 807.47 598.16 809.97 601.50 811.97 604.97 C 810.13 607.24 806.02 608.09 803.42 609.42 C 800.77 610.27 797.74 612.16 795.03 612.24 C 795.63 603.21 797.04 594.13 798.30 585.18 Z" fill="#010101" />
<path d="M 139.99 620.51 C 142.98 620.55 146.09 620.25 149.04 620.76 C 154.30 622.64 160.46 625.80 162.32 631.49 C 163.94 636.06 163.19 640.26 163.37 645.03 C 163.53 647.62 162.35 650.27 161.65 652.75 C 159.35 657.98 155.19 661.55 150.27 664.25 C 146.52 666.98 142.58 667.93 138.00 668.18 L 137.68 669.00 C 137.75 680.48 137.90 691.80 136.20 703.19 C 135.25 705.36 133.50 707.20 131.04 707.46 C 127.25 708.01 123.91 704.68 123.74 701.02 C 124.83 696.07 124.52 691.01 125.30 686.01 C 125.34 678.01 125.35 669.99 125.29 662.00 C 124.41 652.61 125.01 643.34 124.24 634.00 C 124.46 630.84 125.15 627.79 127.92 625.89 C 131.77 623.30 135.17 620.80 139.99 620.51 Z" fill="#2ab1ab" />
<path d="M 623.86 633.08 C 625.34 640.11 624.40 647.83 624.85 655.00 C 624.92 671.34 624.92 687.69 624.87 704.02 C 625.01 707.87 620.67 710.90 617.25 708.73 C 614.16 707.05 614.10 703.06 613.53 700.01 C 612.77 695.19 613.46 690.39 613.10 685.57 C 612.07 682.22 612.96 678.91 611.72 675.50 C 611.67 664.68 611.03 652.53 611.22 642.00 C 611.43 638.27 611.23 632.89 613.88 629.90 C 617.04 626.50 623.01 628.76 623.86 633.08 Z" fill="#7e7db8" />
<path d="M 244.98 629.27 C 251.25 629.67 257.70 630.35 264.00 630.18 C 270.07 630.30 275.95 631.55 282.01 631.85 C 284.70 632.25 287.37 632.50 289.96 633.39 C 292.59 634.35 294.70 633.11 296.98 635.06 C 301.16 637.89 300.31 644.76 295.54 646.47 C 290.78 647.65 287.42 645.66 282.97 645.11 C 281.22 644.65 279.77 646.64 278.66 647.72 C 277.48 650.14 279.03 653.66 279.55 656.16 C 281.24 661.97 282.15 667.91 283.06 673.87 C 283.75 683.18 284.64 693.32 282.49 702.55 C 281.01 706.87 275.28 708.35 272.26 704.72 C 268.48 700.78 271.41 696.73 271.45 692.01 C 271.53 682.31 270.66 672.41 268.42 662.97 C 266.97 658.20 266.35 653.12 264.44 648.54 C 263.30 646.52 261.42 644.83 259.70 643.30 C 255.44 643.07 251.26 642.41 246.98 642.65 C 243.87 642.87 241.07 640.77 240.07 637.89 C 238.74 634.15 240.85 629.77 244.98 629.27 Z" fill="#fed748" />
<path d="M 506.87 629.40 C 514.00 630.87 520.20 634.04 526.51 637.50 C 531.11 640.27 535.57 645.40 535.79 650.98 C 535.71 652.96 535.73 654.83 534.45 656.46 C 530.94 659.93 527.13 662.75 522.47 664.49 C 518.41 666.14 516.45 669.50 513.47 672.45 C 512.99 673.28 512.68 674.15 512.54 675.06 C 513.56 676.16 514.99 676.94 516.27 677.71 C 520.06 679.62 523.44 682.58 526.53 685.47 C 530.96 689.49 532.78 695.53 535.08 700.86 C 536.13 703.56 538.59 704.98 538.34 708.02 C 538.16 711.06 535.88 712.96 533.03 713.52 C 530.15 713.37 528.32 711.37 526.83 709.13 C 523.54 705.11 520.78 700.55 516.99 697.02 C 514.99 694.65 512.88 691.36 510.04 689.63 C 507.90 688.93 507.40 690.13 507.50 691.99 C 507.08 696.29 507.05 701.83 504.42 705.43 C 502.91 707.88 503.07 710.64 499.90 711.84 C 496.80 713.38 493.71 710.86 492.55 708.08 C 492.18 701.01 493.54 694.33 495.31 687.51 C 495.91 682.00 495.67 676.50 496.07 670.98 C 496.22 664.59 497.42 658.37 497.62 652.00 C 497.81 645.32 499.05 638.93 500.55 632.45 C 501.94 630.04 504.09 629.00 506.87 629.40 Z" fill="#ea6ea4" />
<path d="M 424.93 629.72 C 427.64 629.03 430.57 629.24 432.25 631.74 C 435.47 635.39 438.04 639.39 440.03 643.82 C 442.62 648.90 444.84 654.41 445.78 660.03 C 448.06 666.76 448.62 673.94 448.30 681.02 C 447.75 684.56 445.66 687.95 444.10 691.17 C 441.36 695.71 437.08 699.54 433.30 703.23 C 430.28 705.01 428.38 707.56 425.03 708.16 C 420.94 708.32 417.11 705.33 417.32 701.01 C 417.05 688.07 417.68 674.95 417.77 661.99 C 419.08 653.65 418.09 644.88 418.53 636.42 C 419.35 633.56 422.54 631.29 424.93 629.72 Z" fill="#df0635" />
<path d="M 467.50 630.77 C 472.13 632.80 476.96 632.18 482.02 632.57 C 485.81 632.58 489.52 634.63 488.81 639.01 C 488.76 643.83 483.88 644.74 480.00 644.04 C 475.34 642.88 471.31 644.61 468.67 648.49 C 468.40 650.67 468.17 652.83 467.81 655.00 C 468.15 657.76 467.68 660.39 470.97 661.22 C 472.59 661.31 474.44 660.13 475.97 661.04 C 480.12 662.06 481.35 667.55 478.56 670.56 C 476.73 673.17 472.19 672.39 469.41 672.51 C 465.25 673.64 463.37 678.82 465.27 682.54 C 465.76 685.42 464.78 688.56 467.04 690.94 C 470.43 694.08 474.61 694.12 479.00 694.09 C 481.92 693.01 485.42 694.95 486.07 697.97 C 486.98 701.72 484.46 704.83 480.88 705.56 C 477.61 705.68 474.28 705.55 470.99 705.90 C 467.56 706.57 464.36 705.91 461.03 707.33 C 457.37 707.68 452.34 708.08 450.48 704.11 C 450.06 700.49 450.32 696.51 451.30 692.99 C 451.76 688.99 452.51 684.96 453.34 681.02 C 453.68 677.65 453.55 674.34 454.17 671.01 C 454.40 667.46 454.06 663.40 455.26 660.03 C 455.80 654.40 455.71 648.65 455.86 643.00 C 456.57 638.85 455.93 635.30 458.94 631.95 C 461.06 628.89 464.40 630.86 467.50 630.77 Z" fill="#e10e7f" />
<path d="M 725.98 630.20 C 728.52 630.32 731.32 629.68 733.25 631.74 C 735.44 633.82 737.63 636.16 739.01 638.86 C 740.71 643.19 740.38 647.54 741.14 652.00 C 741.30 668.66 741.05 685.34 741.27 702.00 C 741.56 705.45 738.75 709.28 735.00 708.77 C 731.49 708.58 729.80 705.20 729.82 702.01 C 729.93 698.65 729.29 695.35 729.49 692.00 C 729.82 688.53 728.18 685.51 728.23 681.98 C 726.88 676.81 728.21 671.65 726.65 666.51 C 725.61 663.05 725.97 658.37 721.98 656.89 C 719.64 655.85 718.11 658.39 716.92 659.95 C 714.63 662.82 716.07 666.13 714.89 669.85 C 714.53 672.88 714.20 675.66 711.34 677.36 C 708.84 678.26 705.84 678.17 704.18 675.80 C 700.60 671.12 701.08 666.02 698.14 660.88 C 697.34 659.58 696.54 655.30 694.38 656.34 C 691.45 662.94 690.67 670.86 690.70 678.00 C 690.46 686.87 688.56 694.27 690.89 702.88 C 691.58 704.72 691.57 706.68 690.27 708.25 C 688.52 711.46 683.23 711.74 681.08 708.92 C 679.37 707.15 679.72 705.24 679.53 702.98 C 678.17 697.76 678.99 692.34 677.83 687.01 C 677.49 675.73 677.56 664.23 678.38 652.99 C 679.18 649.33 680.81 645.77 682.43 642.41 C 684.44 638.93 686.94 635.38 691.16 634.63 C 693.16 634.61 695.97 634.03 697.66 635.30 C 701.39 636.97 703.05 642.29 703.65 646.02 C 704.46 648.69 704.52 652.45 706.43 654.56 C 707.98 655.22 709.60 653.36 710.28 652.17 C 713.16 646.01 715.38 638.14 719.81 632.84 C 721.27 630.89 723.58 630.00 725.98 630.20 Z" fill="#2497d6" />
<path d="M 223.01 632.65 C 229.12 632.38 234.78 634.57 238.23 639.76 C 240.15 643.10 244.09 645.76 243.59 650.00 C 243.55 655.23 237.37 658.33 233.30 654.74 C 231.27 652.10 229.61 649.13 227.47 646.56 C 226.27 645.61 223.56 645.63 222.20 646.24 C 220.49 648.47 219.38 654.33 221.63 656.39 C 225.66 659.21 230.74 659.47 235.20 661.77 C 241.36 664.72 248.31 669.21 251.62 675.37 C 254.59 681.69 255.74 690.12 252.53 696.56 C 250.77 701.42 247.14 704.16 243.26 707.27 C 237.92 710.80 231.69 711.29 225.50 710.30 C 219.17 707.96 212.36 703.12 210.70 696.21 C 209.52 692.37 209.07 687.26 212.28 684.27 C 215.05 681.27 220.35 682.47 221.94 686.09 C 223.48 688.76 221.53 691.29 223.23 693.75 C 225.03 695.94 228.04 698.15 231.00 697.74 C 235.00 698.00 238.22 695.53 240.56 692.57 C 242.73 688.99 242.05 685.09 240.56 681.41 C 237.18 676.79 231.31 673.75 225.95 672.06 C 221.40 670.73 215.96 668.90 212.61 665.41 C 210.89 663.05 208.00 660.10 208.09 657.02 C 208.06 651.48 207.74 645.68 210.76 640.77 C 213.35 636.26 217.49 632.45 223.01 632.65 Z" fill="#a0c117" />
<path d="M 323.79 637.17 C 325.55 642.49 326.17 648.50 328.27 653.72 C 329.44 656.08 332.54 656.03 333.76 653.74 C 335.03 650.99 335.99 648.13 337.45 645.46 C 339.65 640.52 343.42 634.74 348.99 633.35 C 353.68 632.31 356.76 635.47 358.64 639.35 C 361.08 643.43 360.21 647.46 361.38 651.87 C 363.19 659.91 362.14 669.14 362.62 677.01 C 363.82 685.73 364.05 694.22 364.18 703.00 C 364.77 706.74 361.79 710.36 358.00 710.41 C 354.58 710.32 351.74 707.23 351.73 703.85 C 351.72 699.89 351.36 695.97 351.49 692.00 C 351.29 686.99 350.44 682.00 350.13 677.00 C 350.17 667.98 350.51 659.16 348.46 650.30 C 347.84 650.39 347.39 650.63 347.09 651.05 C 342.13 657.39 340.32 664.46 338.21 672.02 C 337.52 674.90 335.96 677.76 333.75 679.76 C 332.23 680.39 329.62 681.17 328.53 679.46 C 322.50 670.49 322.26 660.41 317.76 651.27 L 317.06 651.21 C 313.62 659.48 314.68 670.03 312.84 678.83 C 311.85 684.53 311.28 690.26 310.49 695.99 C 310.04 698.80 310.91 702.07 309.53 704.54 C 308.36 707.26 304.91 709.20 302.06 707.97 C 299.20 707.01 297.21 704.02 297.55 701.00 C 298.29 692.48 299.30 683.95 300.75 675.51 C 302.07 667.80 301.66 659.38 303.73 651.80 C 305.81 645.61 306.15 639.91 311.11 635.13 C 314.70 631.72 321.81 632.23 323.79 637.17 Z" fill="#f3a842" />
<path d="M 653.00 633.21 C 658.56 632.77 664.08 637.90 668.55 640.46 C 670.01 641.48 671.76 643.04 671.49 645.00 C 672.32 648.68 667.52 652.47 664.13 650.76 C 659.17 648.95 653.68 646.74 648.35 648.35 C 646.93 650.91 647.39 654.39 649.78 656.21 C 653.65 659.20 658.29 661.80 661.59 665.42 C 665.15 668.98 667.17 673.89 669.65 678.31 C 673.38 684.40 674.18 692.33 672.35 699.16 C 670.87 702.54 669.33 707.10 666.12 709.17 C 663.37 711.19 659.40 711.32 656.16 710.82 C 652.40 710.41 648.93 711.42 645.53 709.32 C 643.11 707.80 640.41 707.36 637.81 706.29 C 632.41 703.59 629.40 697.81 628.65 692.01 C 628.47 688.40 629.42 684.73 632.42 682.47 C 634.69 680.98 637.68 681.55 639.43 683.56 C 642.06 686.63 640.22 691.92 643.27 694.72 C 645.51 697.48 648.80 697.32 652.04 697.18 C 656.37 695.92 657.63 692.02 658.20 687.99 C 657.87 684.33 655.92 681.93 654.01 679.00 C 652.06 675.35 650.05 671.88 646.90 669.12 C 642.94 664.86 637.17 663.79 634.78 658.05 C 633.67 651.88 635.59 646.84 637.11 641.00 C 637.82 637.75 640.77 635.00 643.70 633.63 C 646.61 632.78 649.99 633.32 653.00 633.21 Z" fill="#564392" />
<path d="M 141.16 634.05 C 143.90 632.42 148.72 633.74 150.64 636.33 C 151.01 639.93 151.16 643.97 150.32 647.51 C 148.68 650.38 145.45 653.03 141.97 652.32 C 139.21 650.12 139.09 647.28 139.12 644.00 C 139.23 640.78 138.56 636.46 141.16 634.05 Z" fill="#010102" />
<path d="M 389.51 634.78 C 393.59 634.94 396.90 633.90 400.39 636.62 C 406.08 641.79 407.43 649.34 409.40 656.50 C 411.14 661.25 410.57 666.98 410.49 672.02 C 410.30 679.17 408.11 685.79 405.31 692.30 C 402.85 697.56 398.31 701.71 392.87 703.70 C 389.90 704.10 386.04 704.31 383.43 702.58 C 375.99 697.84 371.77 690.21 369.57 681.85 C 368.72 674.66 369.42 667.17 371.24 660.17 C 372.23 654.62 373.22 648.20 376.53 643.49 C 379.63 639.36 384.38 635.77 389.51 634.78 Z" fill="#ef9080" />
<path d="M 592.88 634.38 C 597.71 635.57 597.24 639.95 598.14 643.86 C 598.99 651.43 599.25 659.51 597.65 666.98 C 597.61 676.31 597.71 685.63 597.61 694.96 C 597.29 698.75 597.24 703.37 593.98 705.95 C 591.91 707.70 589.47 707.22 586.96 707.17 C 583.93 706.43 581.48 703.60 579.85 701.10 C 578.66 698.01 576.61 695.42 575.67 692.26 C 572.60 682.59 568.21 673.53 563.32 664.68 C 561.96 662.74 560.99 661.66 558.46 662.51 C 554.75 666.42 557.70 672.20 556.61 676.99 C 556.35 684.61 556.57 692.36 556.50 700.00 C 556.36 702.39 557.11 704.17 556.39 706.29 C 555.16 709.03 552.21 710.65 549.25 709.71 C 546.91 708.63 544.68 706.85 544.77 704.02 C 545.94 697.64 545.91 690.51 544.45 684.15 C 543.06 677.72 544.80 670.52 544.82 664.00 C 544.80 660.33 544.82 656.66 544.80 652.99 C 545.23 649.40 546.52 646.21 547.67 642.81 C 549.76 637.60 555.68 634.90 561.05 635.58 C 563.75 636.18 564.92 638.42 566.71 640.32 C 570.22 645.16 572.35 650.70 573.57 656.53 C 575.01 660.92 576.99 664.80 579.16 668.85 C 580.39 670.67 582.05 672.93 584.51 671.50 C 587.84 667.45 586.36 663.68 585.93 659.01 C 585.84 653.00 585.93 646.98 585.89 640.97 C 586.30 637.05 588.47 633.69 592.88 634.38 Z" fill="#d8acd0" />
<path d="M 181.01 634.64 C 186.22 635.96 191.40 637.78 194.40 642.57 C 202.14 652.64 203.47 665.74 204.21 678.00 C 204.06 684.96 204.89 691.13 202.62 697.85 C 201.05 703.65 196.00 708.32 190.54 710.46 C 184.73 711.13 178.08 710.26 173.19 706.82 C 169.42 704.49 167.48 700.10 165.73 696.21 C 164.36 692.66 163.05 688.85 163.27 685.00 C 163.36 680.00 163.03 675.08 163.66 670.16 C 164.17 663.17 166.17 656.34 167.55 649.48 C 169.23 644.14 170.44 637.21 176.83 635.76 C 178.16 635.27 179.59 634.50 181.01 634.64 Z" fill="#6eb56f" />
<path d="M 510.93 643.63 C 514.37 642.93 517.57 646.06 520.75 647.28 C 522.35 648.05 524.85 649.95 522.62 651.63 C 519.79 653.53 516.35 654.65 513.40 656.40 C 511.93 657.14 511.05 659.28 509.37 657.66 C 507.76 655.04 508.95 650.94 508.82 647.96 C 509.27 646.31 508.99 644.29 510.93 643.63 Z" fill="#020000" />
<path d="M 69.60 655.45 C 75.17 658.39 79.59 663.24 81.91 669.10 C 84.43 674.71 83.65 679.98 83.57 686.00 C 83.14 694.80 78.33 703.69 69.58 706.54 C 66.07 707.86 62.65 707.43 59.00 707.50 C 46.72 707.37 34.38 699.59 31.86 687.03 C 31.02 678.52 31.09 669.76 34.89 661.92 C 38.94 654.63 45.78 649.03 54.02 647.28 C 60.55 645.17 68.27 648.18 69.60 655.45 Z" fill="#ea6ea4" />
<path d="M 388.35 651.32 C 391.91 650.80 394.32 654.47 395.83 657.15 C 398.40 660.85 398.09 664.72 398.09 669.00 C 398.31 676.63 395.78 684.32 391.81 690.77 C 388.86 693.96 384.00 692.29 382.20 688.82 C 380.19 685.00 377.61 680.45 378.17 676.00 C 377.81 671.65 379.92 667.30 381.31 663.17 C 382.87 659.05 384.67 653.98 388.35 651.32 Z" fill="#010001" />
<path d="M 181.49 657.51 C 183.23 655.86 185.39 656.61 187.05 657.94 C 189.93 660.07 189.83 663.76 190.20 666.97 C 192.30 674.59 192.08 683.03 191.54 690.86 C 191.10 693.64 189.96 697.05 186.89 697.74 C 184.43 697.45 181.35 697.36 179.48 695.53 C 177.36 692.11 175.54 688.12 175.68 684.00 C 175.54 677.80 175.85 671.65 176.72 665.51 C 177.18 662.18 179.47 660.05 181.49 657.51 Z" fill="#000100" />
<path d="M 430.57 657.40 L 431.50 657.51 C 433.46 660.66 434.07 664.84 434.91 668.42 C 435.96 671.06 435.57 674.21 435.84 677.03 C 436.22 680.20 434.12 682.97 432.45 685.48 C 431.10 685.94 430.37 685.32 430.29 683.93 C 430.22 675.07 430.46 666.25 430.57 657.40 Z" fill="#100000" />
<path d="M 52.89 671.39 C 55.47 671.58 58.04 671.87 60.56 672.50 C 63.62 673.76 64.95 676.80 64.55 680.00 C 64.39 682.19 65.06 687.04 63.02 688.33 C 59.15 688.46 54.52 688.45 51.76 685.25 C 49.72 683.09 50.72 678.75 50.69 675.99 C 50.87 674.59 50.85 671.32 52.89 671.39 Z" fill="#010101" />
<path d="M 301.85 735.27 C 304.98 736.14 306.55 738.63 309.26 740.74 C 312.13 743.60 313.85 747.32 316.91 750.08 C 323.46 758.13 328.97 767.17 333.44 776.55 C 338.20 787.19 336.53 800.59 336.86 812.02 C 335.74 818.48 334.55 825.46 331.20 831.18 C 329.53 835.17 327.99 839.14 325.96 842.99 C 323.24 847.21 319.97 851.06 317.26 855.28 C 315.56 857.89 313.60 860.25 311.10 862.13 C 308.64 864.07 305.66 865.13 303.27 867.25 C 301.38 868.86 299.59 870.16 297.01 870.29 C 292.99 870.73 289.06 867.84 287.97 864.01 C 286.50 851.41 287.56 837.88 287.10 825.00 C 286.23 817.99 286.29 811.04 286.08 804.00 C 285.83 800.32 285.17 796.70 284.91 793.02 C 284.87 783.64 285.12 774.36 284.48 765.00 C 284.63 760.96 283.53 757.01 283.73 753.00 C 283.63 749.45 283.00 745.45 283.93 741.98 C 284.93 738.73 287.31 736.82 289.98 734.95 C 293.52 732.62 298.17 733.93 301.85 735.27 Z" fill="#d8acd0" />
<path d="M 795.80 735.18 C 798.59 736.67 800.53 739.80 800.43 742.98 C 800.30 748.36 800.84 753.74 802.16 758.97 C 802.56 771.30 802.25 783.67 802.35 796.00 C 802.13 804.97 801.11 813.83 801.16 822.85 C 800.95 827.54 799.78 832.29 799.44 837.00 C 799.24 843.94 796.66 851.71 791.59 856.62 C 787.86 860.02 783.64 859.58 778.95 859.29 C 773.16 858.08 769.42 851.64 767.49 846.52 C 765.15 841.55 765.91 836.26 763.79 831.18 C 762.52 828.03 762.33 824.72 761.45 821.47 C 759.95 816.48 758.37 811.45 756.81 806.48 C 755.76 801.27 754.33 796.17 753.20 790.98 C 752.01 787.46 749.83 784.19 747.90 781.03 C 747.63 780.47 747.10 780.21 746.31 780.26 C 743.46 782.85 742.54 787.30 742.65 791.00 C 742.83 794.98 741.87 798.63 741.31 802.51 C 739.99 806.89 740.38 811.47 739.70 815.99 C 738.85 822.02 739.89 828.03 738.71 833.99 C 738.45 837.32 738.65 840.70 738.59 844.04 C 739.02 846.52 741.01 848.20 740.64 851.00 C 740.90 856.13 736.11 860.54 731.00 859.87 C 725.23 859.80 721.27 854.49 721.10 849.01 C 721.28 842.35 720.71 835.59 721.62 828.99 C 721.99 824.69 721.42 820.32 722.07 816.00 C 722.74 810.32 722.49 804.47 723.99 799.00 C 725.28 793.06 725.49 787.06 725.35 781.00 C 726.12 772.25 726.51 763.53 727.89 754.84 C 729.22 749.99 732.64 745.62 736.45 742.42 C 739.03 740.08 742.42 738.30 746.00 738.55 C 750.77 738.30 754.48 741.33 756.63 745.37 C 758.54 749.95 761.91 753.00 762.94 758.00 C 763.68 762.06 765.24 765.83 766.22 769.82 C 767.39 775.97 769.60 781.82 770.60 788.00 C 771.77 794.02 773.88 800.66 777.20 805.82 C 778.39 806.76 781.40 808.11 782.53 806.55 C 783.58 802.14 784.98 798.37 784.87 794.00 C 784.87 784.34 784.88 774.67 784.87 765.00 C 784.84 762.04 784.30 759.38 783.61 756.53 C 783.34 751.38 782.07 745.33 783.37 740.30 C 784.87 735.09 791.06 732.61 795.80 735.18 Z" fill="#f3a842" />
<path d="M 158.51 736.71 C 163.64 736.47 168.78 735.28 172.57 739.44 C 176.29 743.25 176.02 747.63 177.34 752.48 C 177.31 759.36 178.68 765.98 178.61 772.86 C 180.82 782.32 182.07 792.79 185.18 802.18 C 185.28 805.92 186.29 809.42 186.86 813.10 C 187.64 812.93 188.32 812.62 188.91 812.18 C 187.30 815.23 184.07 816.28 182.36 819.22 C 178.65 824.22 174.97 829.31 173.39 835.44 L 171.86 836.52 C 171.20 832.98 170.35 829.63 170.40 826.00 C 170.40 823.00 169.86 818.43 167.05 816.66 C 163.71 816.32 160.33 816.33 156.98 816.19 C 153.47 815.72 150.41 819.10 148.78 821.81 C 146.96 832.25 145.99 843.58 144.01 853.98 C 142.78 858.02 144.67 862.88 142.37 866.36 C 140.26 870.70 135.20 871.75 130.95 870.14 C 128.28 868.80 126.07 866.13 126.19 863.01 C 126.24 858.24 125.78 852.72 127.30 848.19 C 127.70 844.58 128.29 841.07 128.64 837.46 C 129.84 834.07 129.33 830.53 130.19 827.02 C 130.60 819.92 133.17 813.70 134.47 806.85 C 136.06 800.57 136.78 793.49 138.15 787.02 C 138.91 782.37 140.39 777.83 141.39 773.23 C 141.88 767.38 143.48 761.93 145.10 756.07 C 147.30 748.75 151.41 740.35 158.51 736.71 Z" fill="#e20e7f" />
<path d="M 104.01 736.61 C 109.34 737.38 114.15 742.39 113.80 747.99 C 113.48 786.59 113.69 825.33 113.63 864.02 C 113.68 867.39 111.12 870.71 108.21 872.21 C 106.22 872.62 103.77 872.74 101.79 872.22 C 98.74 870.70 95.96 867.62 96.19 864.02 C 96.14 847.35 96.23 830.66 96.15 813.99 C 95.78 811.33 95.52 808.65 95.23 805.98 C 94.61 803.64 94.21 799.56 91.80 798.30 C 88.52 798.06 85.24 797.60 81.98 797.17 C 80.18 797.02 78.92 797.79 77.65 798.96 C 77.33 799.92 77.21 800.93 77.27 802.00 C 77.29 819.94 77.28 837.89 77.28 855.84 C 76.30 858.51 75.01 861.92 72.00 862.80 C 66.69 865.45 59.99 861.81 59.52 855.87 C 59.33 825.93 59.69 795.93 59.31 766.00 C 59.30 761.92 59.63 758.01 58.62 754.01 C 57.65 748.68 62.51 742.98 67.99 743.62 C 70.85 743.48 73.70 746.42 75.32 748.54 C 77.90 754.96 75.59 761.21 77.44 767.66 C 77.93 770.18 78.78 772.71 79.96 774.99 C 81.80 777.12 84.38 778.96 87.13 779.63 C 90.43 779.78 93.36 780.90 95.31 777.50 C 96.78 772.41 95.93 767.55 96.26 762.00 C 96.26 758.36 96.53 754.59 96.15 750.98 C 94.70 747.00 94.32 743.55 96.95 739.96 C 98.76 738.32 101.53 736.63 104.01 736.61 Z" fill="#ec1c24" />
<path d="M 509.14 737.89 C 511.67 739.08 514.68 738.24 517.51 738.67 C 521.26 739.51 524.83 739.80 528.23 741.77 C 534.30 746.01 539.47 750.79 541.93 758.00 C 545.03 766.33 544.08 774.34 544.18 783.01 C 543.41 787.71 540.59 792.17 538.27 796.28 C 535.36 801.66 531.14 805.77 528.24 811.15 C 527.26 814.91 530.74 817.58 533.02 819.98 C 536.76 823.37 538.57 827.55 541.35 831.64 C 544.13 835.59 546.78 839.69 549.04 843.98 C 551.00 847.16 554.88 849.81 554.32 853.99 C 554.47 858.51 550.59 862.80 546.01 862.84 C 540.89 863.37 536.91 858.33 534.58 854.42 C 531.40 847.79 526.85 842.23 523.10 835.94 C 522.25 834.75 521.16 832.45 519.50 832.42 C 519.06 836.25 519.31 840.17 519.27 844.02 C 519.66 848.24 520.33 852.20 519.37 856.52 C 518.11 859.87 514.66 862.64 511.00 862.47 C 506.10 862.67 501.84 857.85 502.32 853.02 C 502.61 850.23 501.43 847.78 501.64 845.00 C 501.81 836.99 501.23 829.01 501.23 820.99 C 500.41 816.66 500.82 812.37 500.52 808.00 C 500.38 803.36 499.58 798.73 498.66 794.19 C 497.76 786.65 498.87 779.07 497.69 771.52 C 496.55 763.34 496.79 755.22 496.88 746.99 C 497.39 744.76 497.31 742.76 499.00 740.99 C 501.41 737.94 505.42 736.69 509.14 737.89 Z" fill="#2497d6" />
<path d="M 610.85 737.17 C 616.63 738.01 622.20 737.74 627.82 739.20 C 630.80 739.71 633.84 739.75 636.83 740.24 C 645.44 741.67 654.06 740.07 663.00 740.18 C 667.38 740.39 671.50 738.74 675.14 741.85 C 679.74 745.55 679.37 753.22 674.53 756.51 C 670.67 758.75 666.60 759.30 662.42 760.45 C 660.08 762.19 658.45 765.18 657.74 767.96 C 657.50 775.55 658.08 783.47 657.15 791.01 C 656.31 797.84 653.37 804.26 653.63 811.00 C 653.67 820.33 653.59 829.67 653.68 839.00 C 654.53 845.66 654.51 852.33 655.19 859.00 C 655.40 861.77 654.21 864.33 652.15 866.15 C 648.28 869.66 641.55 868.55 639.01 863.98 C 636.60 859.86 637.41 853.70 636.84 849.00 C 635.58 836.00 636.29 823.06 636.09 810.00 C 635.70 800.79 639.91 793.17 640.10 784.00 C 640.09 777.69 640.22 771.34 640.04 765.03 C 638.55 761.96 634.60 758.68 630.97 759.85 C 628.32 760.09 626.90 762.62 625.71 764.69 C 623.54 768.74 624.83 773.22 624.19 778.00 C 624.07 786.14 622.08 793.93 621.92 802.06 C 617.90 801.29 613.00 800.55 609.92 803.92 C 608.12 805.29 608.36 806.99 607.80 808.99 C 607.15 813.16 610.18 815.76 610.15 820.00 C 610.55 824.82 606.34 828.02 603.23 831.02 C 602.98 819.98 604.75 809.04 604.61 797.98 C 604.56 791.55 606.31 785.40 606.52 779.00 C 606.79 773.98 607.37 769.03 606.85 764.00 C 607.04 761.13 605.84 757.00 603.04 755.70 C 600.72 755.65 598.27 755.47 596.00 756.03 C 591.92 757.09 587.47 755.27 585.43 751.56 C 582.87 747.15 584.96 740.61 589.81 738.79 C 594.65 736.97 599.08 738.04 604.02 737.47 C 606.36 737.50 608.51 736.76 610.85 737.17 Z" fill="#6eb56f" />
<path d="M 487.04 738.90 C 490.23 739.71 492.71 742.78 493.28 745.96 C 493.70 751.05 492.91 755.83 492.32 760.84 C 490.52 769.30 490.28 777.40 489.90 786.00 C 489.81 793.16 490.33 800.44 488.68 807.48 C 488.32 811.50 487.87 815.51 487.33 819.51 C 485.55 827.38 485.97 835.93 483.75 843.81 C 482.66 848.67 480.85 854.63 477.10 858.12 C 474.18 861.03 469.71 860.38 465.97 860.18 C 461.25 859.23 458.09 855.13 455.76 851.23 C 452.65 846.48 452.26 840.53 450.82 835.18 C 450.00 829.69 449.45 823.73 447.73 818.40 L 447.27 818.15 C 445.94 825.34 443.37 832.77 443.48 840.02 C 443.22 844.12 441.80 848.30 439.98 851.96 C 437.72 855.86 434.82 859.62 430.03 860.23 C 425.96 860.46 422.18 860.62 418.53 858.49 C 416.38 857.17 413.91 856.60 411.85 855.17 C 408.88 853.22 407.17 849.58 405.48 846.53 C 403.18 841.47 402.45 835.47 401.73 830.00 C 401.39 824.42 399.76 819.05 399.36 813.47 C 397.99 808.04 397.62 802.53 395.81 797.18 C 394.90 791.87 395.17 786.29 393.98 781.02 C 392.23 773.34 393.49 765.63 391.77 758.01 C 391.78 754.68 391.44 751.28 391.69 747.96 C 392.90 741.35 401.83 738.39 406.42 743.55 C 410.71 748.11 408.50 753.49 409.77 759.02 C 411.00 764.76 409.73 770.26 411.02 776.01 C 411.72 779.51 412.57 783.00 413.33 786.49 C 414.18 792.72 414.25 798.66 416.41 804.66 C 418.02 808.90 423.25 811.98 427.55 809.50 C 431.84 803.77 431.13 794.47 435.47 788.53 C 437.10 783.94 439.38 779.25 442.44 775.44 C 444.73 772.82 447.77 771.58 451.16 772.80 C 455.42 774.93 455.60 780.38 457.85 784.14 C 461.93 791.66 463.15 799.75 463.75 808.17 C 464.63 811.18 464.64 817.84 467.99 819.16 C 468.70 818.90 469.24 818.40 469.61 817.68 C 470.96 813.79 470.60 809.95 469.74 806.01 C 469.51 801.30 468.55 796.72 468.78 792.00 C 468.87 787.58 468.19 783.40 469.20 779.01 C 470.19 770.96 470.97 763.03 473.26 755.20 C 474.36 750.72 475.06 746.46 477.39 742.39 C 479.41 739.23 483.47 737.86 487.04 738.90 Z" fill="#564392" />
<path d="M 561.00 738.52 C 565.88 738.32 570.18 742.27 570.47 747.13 C 570.71 757.22 570.01 767.17 571.25 776.99 C 571.71 782.25 570.81 787.84 572.10 792.87 C 573.09 800.61 572.03 808.28 573.20 816.00 C 573.20 826.65 573.68 836.16 574.35 846.72 C 573.34 847.54 572.41 848.43 571.63 849.47 C 571.23 852.98 572.48 855.84 569.93 858.78 C 565.99 860.96 560.85 859.05 558.90 855.05 C 555.05 847.72 554.49 837.79 552.69 829.84 C 551.59 818.57 552.72 806.77 553.83 795.53 C 554.86 790.79 554.12 785.93 554.30 781.00 C 553.79 769.50 552.53 758.51 552.24 746.98 C 552.28 742.36 556.37 738.39 561.00 738.52 Z" fill="#29b1ab" />
<path d="M 697.01 739.60 C 701.31 738.56 705.65 738.34 710.05 738.71 C 712.26 739.32 714.17 740.57 715.37 742.55 C 718.31 746.86 716.66 753.66 711.74 755.72 C 708.68 757.44 704.64 755.76 701.34 757.35 C 699.72 758.90 698.65 760.74 698.39 762.98 C 697.59 771.72 695.71 780.39 694.06 789.00 C 693.54 792.88 692.81 796.21 695.46 799.51 C 698.29 800.57 701.50 800.85 704.50 800.86 C 707.75 801.53 710.66 804.20 711.42 807.47 C 712.45 811.81 710.40 816.52 706.21 818.28 C 702.89 819.38 699.33 818.68 695.97 818.21 C 691.71 818.97 688.11 823.73 687.84 827.98 C 687.58 830.85 686.90 834.25 687.61 837.04 C 689.45 839.20 692.12 840.55 695.00 840.33 C 698.36 840.17 701.81 840.78 704.92 842.04 C 708.99 843.99 710.75 848.78 709.39 853.00 C 708.95 854.84 709.69 856.51 707.63 857.56 C 705.67 857.92 704.01 858.78 702.20 859.54 C 697.05 860.94 691.36 859.41 686.15 860.55 C 682.49 861.03 678.67 860.76 674.98 860.75 C 669.67 860.10 665.97 855.49 666.70 850.16 C 667.63 846.53 667.70 842.99 669.25 839.49 C 669.86 834.06 669.76 828.58 670.74 823.16 C 671.19 818.37 672.75 813.82 673.23 809.01 C 674.37 790.06 680.96 772.12 681.52 752.99 C 682.10 748.16 682.91 743.17 687.48 740.48 C 690.69 738.42 693.52 739.59 697.01 739.60 Z" fill="#ffd748" />
<path d="M 219.98 741.57 C 224.26 741.78 227.82 740.69 231.44 743.56 C 235.65 746.00 238.83 749.74 240.94 754.09 C 243.32 759.17 243.77 765.01 245.92 770.08 C 249.26 778.99 251.50 787.90 253.68 797.13 C 254.26 799.24 254.59 801.26 255.93 803.05 C 256.81 804.72 259.91 803.82 259.87 801.95 C 260.04 794.69 258.89 785.06 258.71 777.99 C 257.59 772.14 256.14 765.76 255.23 759.81 C 254.37 757.41 254.89 754.51 254.75 751.97 C 254.02 746.81 258.66 741.43 264.02 742.10 C 267.99 741.94 271.35 745.27 272.27 748.95 C 272.54 751.54 272.08 754.30 272.58 756.84 C 273.95 762.88 274.68 768.96 276.18 774.99 C 276.58 783.32 277.30 791.69 277.44 800.00 C 277.58 810.70 278.63 821.29 278.60 832.00 C 278.42 840.53 279.34 847.96 277.24 856.19 C 274.59 860.92 270.94 865.09 265.00 864.71 C 258.21 865.07 253.40 860.15 250.56 854.53 C 248.86 850.20 248.28 845.54 246.63 841.18 C 244.72 836.04 244.17 830.72 242.47 825.58 C 241.62 822.02 240.18 818.45 239.65 814.85 C 239.46 811.68 238.48 808.55 237.66 805.50 C 235.87 798.26 234.27 791.20 232.01 784.08 C 230.98 781.44 228.84 779.66 225.95 779.53 C 224.34 779.86 223.42 781.38 223.57 782.97 C 223.56 787.41 223.58 791.85 223.55 796.29 C 219.72 797.81 215.69 797.56 211.82 798.95 C 210.12 799.85 207.93 799.78 206.08 799.44 C 206.18 786.65 205.98 773.78 206.18 761.00 C 207.16 756.55 209.15 752.14 210.91 747.93 C 212.45 744.21 215.86 741.51 219.98 741.57 Z" fill="#ea6ea4" />
<path d="M 517.22 760.26 C 520.48 758.57 524.64 761.07 525.51 764.44 C 527.10 769.33 526.68 773.97 526.71 779.01 C 526.43 782.82 523.69 786.74 519.86 787.70 C 518.07 788.24 516.83 785.42 515.79 784.33 C 515.70 778.27 515.87 772.00 514.80 766.01 C 514.65 763.96 515.17 761.23 517.22 760.26 Z" fill="#010103" />
<path d="M 305.97 765.94 C 311.23 771.27 313.93 777.65 316.52 784.54 C 320.75 792.09 318.96 801.46 319.34 810.01 C 318.82 813.16 318.09 816.94 317.07 819.95 C 314.74 824.20 313.29 828.77 311.14 833.10 C 310.36 834.89 308.68 835.40 306.87 835.68 C 305.46 834.39 304.77 831.87 304.71 830.01 C 304.79 825.02 304.43 819.97 303.85 815.01 C 303.74 811.66 303.93 808.35 303.59 805.00 C 303.77 799.58 302.42 794.41 302.24 789.02 C 302.26 782.02 302.23 775.02 302.25 768.03 C 301.88 766.04 304.48 764.95 305.97 765.94 Z" fill="#010001" />
<path d="M 527.14 768.26 L 527.74 768.38 C 528.53 772.32 528.68 776.86 527.81 780.80 L 527.26 780.58 C 526.41 776.64 526.86 772.26 527.14 768.26 Z" fill="#3d90bd" />
<path d="M 159.83 779.24 C 162.51 780.38 162.58 782.95 162.82 785.46 C 163.87 788.08 163.31 791.25 163.34 794.08 C 162.69 795.89 160.40 797.76 158.42 797.57 C 157.06 796.50 155.30 794.88 155.26 793.04 C 155.23 789.19 156.54 785.14 157.56 781.44 C 158.01 780.21 158.16 778.89 159.83 779.24 Z" fill="#030002" />
<path d="M 367.02 786.56 C 370.65 787.74 374.21 788.78 378.01 789.25 C 380.17 789.39 382.14 790.97 383.99 792.04 C 388.12 794.92 388.96 800.93 385.86 804.88 C 384.11 807.50 381.62 807.91 378.81 808.72 C 376.07 810.37 373.90 809.02 371.00 809.10 C 365.37 809.16 360.36 807.69 354.97 807.09 C 350.72 806.01 347.35 802.50 347.12 798.02 C 346.50 793.97 348.88 790.28 352.47 788.58 C 357.06 787.20 362.27 786.87 367.02 786.56 Z" fill="#7e7db9" />
<path d="M 223.55 796.29 C 226.25 796.47 228.60 796.58 230.89 798.17 C 235.39 800.67 235.71 807.89 232.47 811.52 C 229.97 814.39 226.78 814.65 223.29 815.35 L 223.07 816.56 C 218.31 815.52 215.04 817.59 210.60 818.72 C 208.48 820.09 206.37 821.51 204.23 822.82 C 198.73 827.78 193.31 833.93 190.67 840.94 C 190.49 841.60 190.31 842.26 190.14 842.93 C 186.65 845.62 187.91 852.44 184.61 855.48 C 181.43 857.57 178.33 857.15 174.82 857.71 C 172.18 857.42 170.63 854.27 169.91 852.03 C 168.16 847.25 172.69 841.10 171.86 836.52 L 173.39 835.44 C 174.97 829.31 178.65 824.22 182.36 819.22 C 184.07 816.28 187.30 815.23 188.91 812.18 C 193.67 807.04 199.62 803.91 205.80 800.85 L 206.08 799.44 C 207.93 799.78 210.12 799.85 211.82 798.95 C 215.69 797.56 219.72 797.81 223.55 796.29 Z" fill="#2ab1ab" />
<path d="M 621.92 802.06 C 628.02 807.96 628.74 815.97 628.30 824.02 C 628.00 830.56 624.41 834.84 620.77 839.85 C 615.74 844.47 610.42 849.22 604.72 853.01 C 598.59 856.44 592.21 859.20 585.48 861.24 C 582.83 861.99 580.20 861.74 577.53 861.25 C 575.78 859.97 574.35 858.38 572.94 856.75 C 573.55 856.74 574.14 856.66 574.71 856.51 C 574.55 853.60 574.54 850.79 574.71 847.88 C 575.78 844.20 579.79 843.99 582.82 842.81 C 590.44 840.36 597.40 836.53 603.23 831.02 C 606.34 828.02 610.55 824.82 610.15 820.00 C 610.18 815.76 607.15 813.16 607.80 808.99 C 608.36 806.99 608.12 805.29 609.92 803.92 C 613.00 800.55 617.90 801.29 621.92 802.06 Z" fill="#fed747" />
<path d="M 223.07 816.56 C 223.63 820.47 222.33 824.09 222.62 828.00 C 222.74 836.32 222.41 844.71 222.79 853.01 C 224.07 857.56 222.10 862.70 217.52 864.41 C 214.13 865.53 210.29 864.90 207.98 862.04 C 205.57 859.74 205.53 856.11 205.19 853.02 C 205.21 843.67 205.19 834.32 205.19 824.97 C 205.33 823.84 205.01 823.12 204.23 822.82 C 206.37 821.51 208.48 820.09 210.60 818.72 C 215.04 817.59 218.31 815.52 223.07 816.56 Z" fill="#ea6ea4" />
<path d="M 620.77 839.85 C 621.21 842.96 621.13 846.08 621.75 849.17 C 622.80 853.81 619.82 859.06 615.00 859.93 C 610.30 860.98 605.43 857.84 604.72 853.01 C 610.42 849.22 615.74 844.47 620.77 839.85 Z" fill="#6eb56f" />
<path d="M 190.67 840.94 C 189.44 844.47 191.40 847.37 191.99 851.00 C 192.90 855.33 193.49 860.58 189.85 863.86 C 185.84 867.52 179.57 866.51 176.60 862.09 C 176.28 858.68 179.34 860.04 181.51 859.34 C 183.84 858.21 185.91 856.65 187.23 854.37 C 188.57 852.29 187.97 849.91 188.85 847.73 C 189.53 846.14 190.01 844.66 190.14 842.93 C 190.31 842.26 190.49 841.60 190.67 840.94 Z" fill="#e20e7e" />
<path d="M 190.14 842.93 C 190.01 844.66 189.53 846.14 188.85 847.73 C 187.97 849.91 188.57 852.29 187.23 854.37 C 185.91 856.65 183.84 858.21 181.51 859.34 C 179.34 860.04 176.28 858.68 176.60 862.09 C 176.06 860.61 175.47 859.15 174.82 857.71 C 178.33 857.15 181.43 857.57 184.61 855.48 C 187.91 852.44 186.65 845.62 190.14 842.93 Z" fill="#925b94" />
<path d="M 574.35 846.72 L 574.71 847.88 C 574.54 850.79 574.55 853.60 574.71 856.51 C 574.14 856.66 573.55 856.74 572.94 856.75 C 571.85 857.32 570.95 858.11 569.93 858.78 C 572.48 855.84 571.23 852.98 571.63 849.47 C 572.41 848.43 573.34 847.54 574.35 846.72 Z" fill="#a3ca78" />
<path d="M 761.06 878.15 C 764.90 876.80 768.73 878.90 770.98 881.99 C 772.71 885.03 772.61 888.55 770.80 891.56 C 769.62 894.68 769.61 897.94 767.94 900.92 C 764.46 908.52 760.64 915.33 759.19 923.47 C 758.02 926.30 756.45 928.92 755.38 931.79 C 753.68 935.84 751.04 938.43 750.66 942.99 C 750.60 949.01 750.02 954.98 750.14 961.00 C 749.08 966.83 750.91 972.14 750.72 978.01 C 751.60 981.98 751.38 986.02 752.17 989.99 C 752.43 994.17 753.94 997.73 753.66 1002.02 C 755.10 1008.32 755.35 1014.64 756.25 1021.00 C 756.31 1025.82 752.45 1028.93 748.03 1029.73 C 745.78 1030.01 743.49 1028.48 741.63 1027.34 C 737.37 1023.43 738.27 1017.38 737.62 1011.98 C 737.77 1009.79 736.52 1008.12 736.44 1006.02 C 736.25 999.49 734.59 993.45 734.09 986.99 C 733.18 982.48 734.08 977.42 732.73 973.00 C 732.34 969.68 731.53 966.45 730.63 963.24 C 730.11 959.80 729.24 956.30 727.92 953.09 C 726.90 951.26 724.56 950.24 724.30 947.99 C 723.19 943.47 720.64 939.80 717.72 936.27 C 713.78 930.16 709.81 922.86 709.35 915.48 C 708.40 912.70 707.79 909.83 706.91 907.04 C 705.32 900.37 702.07 895.34 703.57 888.13 C 701.84 889.29 703.84 893.71 702.59 895.76 C 702.77 893.02 702.50 890.29 702.77 887.55 C 704.31 885.85 705.77 884.12 707.57 882.69 C 709.77 882.20 711.70 881.42 713.92 882.24 C 717.31 882.92 719.07 885.82 720.50 888.67 C 721.94 890.35 721.19 892.94 722.07 894.99 C 724.03 899.33 724.65 904.68 727.11 908.84 C 729.24 912.64 730.25 916.82 733.44 919.57 C 734.97 920.97 736.78 922.12 738.88 921.07 C 744.07 919.10 745.57 913.39 746.83 908.56 C 748.71 905.37 748.07 901.91 749.56 898.65 C 750.65 895.13 753.50 892.97 753.38 889.01 C 754.26 885.03 756.56 879.11 761.06 878.15 Z" fill="#de0635" />
<path d="M 592.61 880.46 C 596.78 881.93 601.17 883.57 604.74 886.25 C 613.09 891.31 621.21 898.69 625.36 907.67 C 628.13 914.89 627.26 921.48 627.35 929.00 C 627.40 932.91 625.13 937.00 623.47 940.46 C 621.84 943.81 619.20 946.18 616.11 948.15 C 611.18 951.77 605.68 953.75 600.12 956.10 C 600.08 959.78 600.63 963.52 601.09 967.17 C 600.92 973.22 602.10 978.96 602.65 985.01 C 603.43 990.01 603.31 994.73 605.10 999.54 C 605.13 1002.90 605.68 1005.77 603.75 1008.73 C 600.89 1013.57 593.78 1014.13 590.24 1009.74 C 587.08 1006.28 587.80 1001.26 586.93 997.00 C 585.87 988.54 584.98 979.96 583.90 971.47 C 584.17 958.66 580.30 947.50 578.53 934.99 C 576.73 922.26 571.98 908.88 572.49 896.00 C 572.61 891.83 570.86 886.55 574.35 883.37 C 578.61 878.56 586.96 880.04 592.61 880.46 Z" fill="#f3a842" />
<path d="M 684.50 883.46 C 686.49 885.89 687.75 888.79 687.48 891.97 C 687.72 903.30 690.07 914.65 690.56 926.02 C 692.48 937.32 690.51 948.95 693.02 959.99 C 694.20 966.21 694.47 972.68 694.35 979.00 C 694.88 985.01 695.61 990.96 695.58 997.00 C 695.58 999.75 696.17 1002.33 696.72 1004.99 C 697.59 1009.83 693.86 1014.77 689.03 1015.35 C 685.32 1015.86 681.45 1013.46 679.93 1010.09 C 678.72 1005.82 678.04 1001.44 678.16 997.00 C 677.89 991.32 677.54 985.67 676.93 980.02 C 676.89 974.06 676.81 967.70 675.53 961.85 C 674.51 956.60 674.19 951.31 674.16 945.96 C 673.45 942.59 670.97 939.53 669.00 936.76 C 667.71 935.93 665.48 937.59 664.45 938.45 C 660.34 941.57 661.46 947.36 661.09 952.00 C 662.36 960.98 662.64 969.97 663.43 979.00 C 663.27 984.70 663.74 990.33 664.36 995.99 C 664.82 999.37 663.03 1003.37 659.90 1004.92 C 655.94 1007.30 650.47 1005.80 648.19 1001.81 C 646.20 998.26 646.86 995.00 646.29 990.99 C 645.82 976.64 644.90 962.37 642.91 948.13 C 642.56 940.86 641.75 933.70 640.84 926.48 C 640.68 921.90 639.50 917.35 638.17 912.98 C 636.56 906.76 637.06 901.25 637.18 894.98 C 637.27 891.68 640.39 888.45 643.47 887.61 C 647.50 886.40 651.64 888.86 653.90 892.09 C 655.44 894.54 654.94 897.43 655.34 900.15 C 656.33 905.83 656.47 911.01 660.28 915.68 C 663.69 917.22 668.48 914.33 670.37 911.52 C 671.53 905.70 670.00 899.10 669.85 893.15 C 668.67 888.89 669.29 884.77 673.06 882.10 C 676.69 879.33 681.56 880.13 684.50 883.46 Z" fill="#f09080" />
<path d="M 269.48 886.73 C 273.86 888.16 278.70 886.05 282.04 888.99 C 286.36 891.94 289.45 896.76 290.53 901.85 C 292.64 908.08 292.38 915.48 292.23 922.00 C 292.11 925.61 290.42 928.43 289.56 931.85 C 288.77 934.79 286.67 937.51 285.15 940.14 C 282.42 944.98 277.49 947.10 273.42 951.38 C 270.39 952.80 266.58 951.79 263.77 954.80 C 262.49 956.74 262.60 958.77 262.57 961.00 C 262.61 971.00 262.57 981.00 262.60 991.00 C 262.59 994.10 262.89 996.97 262.05 1000.01 C 261.34 1004.64 256.88 1008.85 251.98 1007.93 C 248.82 1008.01 247.32 1005.73 245.57 1003.50 C 243.28 1000.50 244.91 996.34 245.24 993.01 C 245.11 975.66 245.50 958.35 244.73 941.03 C 244.03 933.13 244.76 924.89 244.17 916.99 C 243.75 912.33 243.96 907.68 243.91 903.00 C 243.94 899.74 243.69 896.54 244.43 893.36 C 245.49 890.70 247.61 888.28 250.44 887.48 C 256.10 885.05 263.29 886.74 269.48 886.73 Z" fill="#1b3d87" />
<path d="M 543.06 891.93 C 545.64 894.45 547.78 897.54 549.17 900.87 C 550.44 904.32 552.18 907.18 551.69 911.02 C 553.29 918.28 552.48 925.42 553.48 932.84 C 555.35 937.29 555.71 942.04 557.50 946.53 C 560.08 952.44 558.89 959.74 559.72 966.01 C 560.43 973.78 563.83 980.41 563.81 988.01 C 564.53 991.97 564.67 995.85 564.45 999.86 C 564.01 1004.76 559.00 1008.68 554.14 1007.58 C 549.80 1006.69 546.68 1002.42 547.08 998.00 C 546.88 991.72 545.95 985.26 545.39 979.00 C 544.53 971.98 544.24 965.00 542.87 958.03 L 542.08 957.50 C 537.16 957.45 532.53 955.94 528.01 957.21 C 526.99 958.07 527.53 960.18 527.17 961.47 C 525.72 969.66 525.90 978.27 524.19 986.47 C 523.29 990.67 523.37 994.82 522.96 999.02 C 522.42 1003.40 518.45 1007.01 514.00 1006.77 C 507.83 1006.56 502.98 1000.16 505.44 994.16 C 506.13 988.18 508.72 982.94 509.62 976.99 C 510.94 969.13 510.08 960.94 510.43 952.99 C 511.52 944.98 514.35 937.43 517.27 930.02 C 518.73 923.22 520.75 916.13 520.89 909.16 C 522.03 903.66 522.36 898.82 526.74 894.74 C 530.72 890.11 537.82 888.67 543.06 891.93 Z" fill="#ffd748" />
<path d="M 398.87 892.39 C 406.55 894.50 414.38 898.24 420.04 903.96 C 422.78 907.09 425.32 910.66 425.20 915.01 C 425.27 918.67 423.22 922.11 419.85 923.56 C 415.21 925.47 410.72 922.24 406.65 920.34 C 403.79 917.55 401.21 915.03 397.02 914.55 C 392.94 914.22 388.44 913.01 385.15 916.17 C 380.20 921.18 379.78 927.67 377.69 933.98 C 377.22 937.03 376.34 939.97 375.71 942.98 C 375.08 946.21 375.43 949.17 375.20 952.48 C 374.40 958.24 374.38 964.21 374.71 970.01 C 375.46 974.66 375.98 979.36 378.53 983.47 C 380.34 986.33 382.45 989.83 385.48 991.49 C 387.63 992.86 390.51 993.15 393.00 993.15 C 396.70 992.91 400.10 992.66 402.80 989.81 C 404.57 987.63 406.66 985.43 407.90 982.90 C 408.84 979.40 409.04 975.59 408.68 971.99 C 407.69 967.51 407.23 963.64 403.72 960.30 C 399.36 958.92 395.00 957.97 390.44 957.51 C 387.02 956.55 384.12 952.57 384.35 949.00 C 384.07 944.59 387.60 940.49 391.99 940.01 C 398.90 939.42 406.06 940.05 413.00 939.86 C 418.92 939.51 425.64 937.84 431.52 939.38 C 437.89 941.26 440.75 949.85 435.68 954.68 C 433.07 957.93 429.19 956.47 426.79 960.02 C 426.03 967.35 427.36 975.46 425.75 982.83 C 425.38 985.93 425.00 988.98 424.03 991.97 C 420.66 999.87 417.85 1007.32 410.89 1012.87 C 406.88 1016.91 401.43 1017.61 396.00 1016.95 C 388.80 1016.25 382.27 1012.65 376.44 1008.57 C 369.73 1005.32 366.35 999.71 362.13 993.92 C 359.53 990.25 358.56 986.11 357.03 981.97 C 355.72 978.28 356.22 974.85 356.15 971.00 C 356.12 964.63 356.04 958.34 356.97 952.01 C 357.46 948.71 357.55 945.32 357.64 941.98 C 358.09 935.89 360.14 930.67 362.06 925.02 C 362.98 919.25 364.74 913.73 366.15 908.07 C 367.68 901.05 372.98 894.29 379.82 891.78 C 386.08 891.05 392.62 891.60 398.87 892.39 Z" fill="#29b2ab" />
<path d="M 446.13 891.53 C 451.50 891.40 456.27 890.33 461.54 891.54 C 465.47 892.72 467.90 896.84 471.15 898.83 C 476.17 902.19 480.72 905.83 483.99 911.01 C 486.47 914.56 487.11 918.74 487.04 923.00 C 486.89 928.80 488.07 934.15 485.59 939.63 C 482.13 946.88 475.94 952.71 469.99 957.95 C 467.91 959.22 468.07 962.93 469.32 964.68 C 472.85 967.83 476.34 970.94 479.42 974.56 C 482.16 977.80 485.46 980.57 488.17 983.83 C 492.37 988.84 497.24 993.67 500.86 999.13 C 503.91 1003.81 501.50 1010.58 496.20 1012.30 C 492.72 1013.44 488.90 1012.25 486.58 1009.45 C 479.43 1000.11 471.47 992.02 463.49 983.48 C 462.30 981.98 459.99 981.74 458.29 982.32 C 457.76 982.84 457.37 983.43 457.12 984.08 C 456.80 992.37 457.35 1000.74 456.84 1009.02 C 456.69 1012.70 454.75 1015.68 451.51 1017.41 C 446.00 1019.79 439.83 1015.90 439.34 1010.02 C 439.25 997.02 439.37 984.00 439.29 971.00 C 437.98 956.03 438.52 941.16 438.36 926.15 C 437.86 921.06 436.75 916.16 437.09 911.00 C 437.41 906.33 436.06 900.81 438.92 896.95 C 440.62 894.67 443.19 891.95 446.13 891.53 Z" fill="#6eb56f" />
<path d="M 321.99 892.16 C 326.08 892.61 330.98 892.78 334.04 895.93 C 340.31 901.51 342.29 909.03 345.28 916.49 C 346.60 922.19 348.67 927.40 349.26 932.99 C 349.55 942.36 349.04 951.64 349.14 961.00 C 348.99 967.25 347.83 972.88 347.08 979.03 C 346.43 983.68 343.42 988.03 341.05 992.03 C 338.63 996.37 334.66 999.52 331.14 1003.14 C 327.43 1006.56 323.53 1010.65 319.03 1012.98 C 315.07 1014.95 311.46 1014.01 307.17 1014.21 C 303.05 1013.48 299.82 1010.70 298.17 1006.86 C 296.79 1003.37 294.52 1000.38 293.03 996.94 C 290.60 990.89 289.03 984.58 289.31 978.00 C 289.58 970.05 288.88 961.79 290.38 953.99 C 291.49 945.14 294.22 936.83 297.23 928.49 C 298.75 922.59 300.61 916.60 303.00 911.00 C 304.93 904.57 308.02 897.62 313.74 893.71 C 315.99 891.94 319.26 892.09 321.99 892.16 Z" fill="#2497d6" />
<path d="M 232.84 894.17 C 235.65 896.07 236.76 899.75 236.48 903.00 C 235.24 912.00 231.27 919.20 227.24 927.14 C 224.14 934.72 219.35 941.55 216.38 949.28 C 215.23 952.94 215.91 957.19 215.81 961.00 C 216.66 966.99 216.51 973.00 217.15 979.00 C 217.35 985.33 217.11 991.68 217.29 998.02 C 217.49 1000.15 218.95 1001.72 218.68 1004.00 C 219.12 1008.07 215.80 1011.85 212.21 1013.28 C 209.14 1014.03 205.80 1013.87 203.30 1011.73 C 199.88 1009.27 199.86 1004.81 199.79 1001.00 C 199.89 989.97 199.86 979.00 198.79 968.01 C 197.93 959.65 199.93 952.44 196.40 944.49 C 191.35 934.85 184.73 926.08 179.34 916.65 C 176.72 912.38 177.07 907.92 177.35 903.12 C 178.03 899.05 181.78 895.58 186.00 895.69 C 189.67 895.57 193.06 898.46 194.27 901.79 C 194.86 904.22 195.06 906.79 195.85 909.15 C 197.69 913.57 200.49 917.43 202.05 922.00 C 202.69 924.33 204.64 926.17 207.04 926.55 C 209.01 925.35 210.17 922.46 211.35 920.49 C 213.35 915.23 215.89 910.20 218.02 905.00 C 219.34 901.58 218.88 897.94 221.32 895.35 C 224.15 892.01 229.37 891.51 232.84 894.17 Z" fill="#564392" />
<path d="M 156.97 900.72 C 160.44 900.54 165.04 899.87 168.00 902.00 C 171.81 904.52 172.91 909.78 170.73 913.74 C 168.84 917.30 165.30 918.43 161.47 918.60 C 157.42 919.80 153.63 921.65 149.47 922.57 C 145.33 923.55 142.16 926.59 141.87 930.98 C 143.36 942.60 145.60 954.29 145.96 966.00 C 146.78 977.59 147.15 989.24 147.60 1000.85 C 148.84 1008.29 148.30 1015.56 148.62 1023.01 C 148.49 1027.94 143.96 1032.15 139.00 1031.78 C 134.79 1031.11 131.20 1027.38 131.20 1023.02 C 131.10 1017.58 131.05 1012.37 129.88 1007.01 C 130.17 997.12 129.48 986.92 129.14 977.00 C 128.52 968.29 128.37 959.63 126.88 951.00 C 126.25 945.33 125.60 939.31 124.32 933.74 C 122.97 931.04 120.57 928.36 117.63 927.42 C 113.78 927.14 109.86 927.40 106.00 927.29 C 99.00 926.76 91.98 925.83 84.98 925.76 C 79.49 925.11 74.79 918.98 76.36 913.49 C 77.38 909.59 80.92 906.68 84.99 906.68 C 92.31 907.20 99.66 908.21 107.00 908.42 C 117.05 907.85 127.82 906.76 138.00 906.09 C 144.48 905.10 150.65 902.37 156.97 900.72 Z" fill="#7e7db9" />
<path d="M 592.90 902.52 C 599.88 901.79 604.07 907.17 608.12 911.92 C 611.35 915.88 610.20 921.29 610.43 926.01 C 610.69 928.28 609.30 930.36 608.34 932.35 C 605.62 934.06 601.29 936.19 598.52 933.49 C 593.68 930.25 594.63 925.62 593.17 920.54 C 592.18 916.76 591.48 912.85 590.86 909.00 C 591.21 907.11 590.92 903.52 592.90 902.52 Z" fill="#010001" />
<path d="M 270.04 905.62 C 272.74 906.20 274.72 909.28 274.65 911.98 C 274.80 915.09 275.19 918.48 274.46 921.53 C 273.18 925.42 271.67 929.69 268.37 932.34 C 267.12 933.28 266.02 934.53 264.35 933.61 C 260.82 929.57 262.16 923.89 261.82 919.00 C 261.71 915.02 260.94 911.31 262.56 907.50 C 264.29 905.32 267.53 905.48 270.04 905.62 Z" fill="#000001" />
<path d="M 459.59 912.43 C 462.54 914.64 466.08 916.68 468.43 919.53 C 470.50 921.89 469.05 926.04 469.68 929.01 C 470.83 933.42 465.66 937.17 463.15 940.14 C 461.26 941.74 459.20 945.12 456.37 943.64 C 455.16 939.39 456.08 934.43 455.80 930.00 C 456.16 924.56 454.81 919.29 455.40 913.90 C 456.03 912.12 458.01 911.48 459.59 912.43 Z" fill="#010101" />
<path d="M 534.31 920.21 C 535.09 920.06 535.89 920.07 536.72 920.23 C 537.10 924.90 538.07 929.41 538.75 934.03 C 539.10 935.95 537.97 937.42 536.76 938.76 C 535.13 939.06 531.90 938.41 531.06 936.92 C 531.39 931.32 533.33 925.76 534.31 920.21 Z" fill="#030100" />
<path d="M 321.45 928.45 C 323.42 927.85 325.96 929.32 327.42 930.56 C 329.26 933.53 331.20 936.44 331.58 939.99 C 332.12 944.29 331.45 948.60 331.60 953.00 C 331.46 957.84 332.05 963.16 330.86 967.85 C 330.25 971.22 330.57 975.67 328.56 978.51 C 327.13 980.86 326.20 983.22 324.16 985.15 C 321.70 987.71 318.83 990.61 314.97 990.14 C 309.57 988.63 308.53 981.49 306.58 977.03 C 306.23 971.79 304.49 967.48 306.02 962.12 C 306.37 955.99 310.19 950.96 311.56 944.85 C 312.86 938.96 315.76 931.39 321.45 928.45 Z" fill="#000001" />
<path d="M 731.93 1043.14 C 736.56 1044.35 738.21 1047.74 740.55 1051.46 C 752.45 1067.06 765.74 1080.61 779.54 1094.46 C 782.76 1097.63 785.76 1100.90 789.43 1103.59 C 792.10 1105.72 795.60 1107.56 797.41 1110.48 C 798.66 1113.58 798.61 1117.00 796.93 1119.91 C 794.40 1124.28 788.12 1125.81 783.84 1123.16 C 772.86 1116.42 763.88 1105.45 754.52 1096.48 C 745.31 1086.99 736.40 1077.21 728.18 1066.85 C 725.27 1063.23 721.93 1059.23 720.27 1054.89 C 718.22 1047.92 725.01 1041.25 731.93 1043.14 Z" fill="#1b3d87" />
<path d="M 280.46 1066.61 C 284.73 1065.98 289.22 1066.36 293.51 1066.69 C 296.45 1067.64 299.26 1068.17 300.80 1071.16 C 302.52 1074.04 301.21 1076.92 299.37 1079.33 C 297.91 1079.63 296.49 1080.32 295.00 1080.32 C 290.52 1079.22 285.48 1078.80 280.95 1079.75 C 270.77 1083.51 265.34 1094.70 261.72 1104.17 C 261.51 1106.50 260.60 1108.66 260.59 1110.99 C 260.30 1115.70 261.62 1120.04 263.66 1124.20 C 265.20 1127.44 263.30 1131.79 259.77 1132.67 C 257.26 1133.01 254.87 1132.96 253.19 1130.80 C 250.82 1127.84 249.71 1123.61 248.59 1120.04 C 247.77 1111.86 247.77 1103.82 251.23 1096.21 C 255.04 1086.42 260.60 1077.66 269.22 1071.44 C 272.72 1069.24 276.51 1067.74 280.46 1066.61 Z" fill="#ec1c24" />
<path d="M 483.97 1066.13 C 487.15 1066.21 490.87 1065.80 493.81 1067.23 C 498.29 1069.22 501.26 1073.50 502.45 1078.17 C 504.68 1084.58 503.68 1092.15 503.87 1099.00 C 504.04 1106.52 501.27 1113.02 499.01 1119.92 C 505.29 1123.80 514.76 1123.63 521.28 1120.26 C 534.15 1111.16 545.70 1099.95 556.48 1088.49 C 558.22 1086.63 559.93 1084.41 562.11 1083.06 C 566.28 1080.69 571.56 1081.73 574.56 1085.44 C 576.25 1087.90 577.15 1091.13 576.14 1094.04 C 575.22 1096.93 573.06 1098.82 570.99 1100.98 C 565.00 1107.91 558.09 1114.09 551.49 1120.46 C 544.51 1126.51 537.45 1132.85 529.55 1137.67 C 517.68 1143.34 503.02 1143.49 491.19 1137.61 C 490.53 1137.23 489.86 1137.05 489.18 1137.07 C 482.46 1146.86 473.92 1157.72 463.13 1163.19 C 458.73 1165.35 453.59 1164.06 450.00 1160.98 C 446.68 1157.70 444.97 1152.57 447.21 1148.21 C 448.98 1144.19 453.90 1142.09 458.07 1143.23 C 459.29 1143.15 460.24 1141.89 461.12 1141.13 C 466.41 1136.09 470.92 1130.20 474.72 1123.98 C 471.48 1119.59 468.34 1115.04 465.98 1110.07 C 461.92 1101.96 461.22 1091.87 464.41 1083.37 C 466.52 1078.48 470.07 1074.48 473.96 1070.93 C 476.92 1068.50 480.05 1066.41 483.97 1066.13 Z" fill="#d8acd0" />
<path d="M 700.02 1066.40 C 703.71 1066.68 705.64 1069.68 707.91 1072.10 C 717.04 1080.98 724.50 1091.44 733.53 1100.47 C 741.81 1108.73 750.30 1117.30 759.64 1124.34 C 762.48 1126.55 763.82 1129.36 763.46 1133.01 C 763.29 1138.05 758.87 1141.70 754.00 1141.74 C 751.29 1141.87 749.11 1140.49 747.01 1138.96 C 740.00 1133.36 733.37 1127.33 726.99 1121.03 C 716.70 1111.64 708.37 1101.09 699.25 1090.75 C 695.37 1085.97 690.11 1083.65 689.18 1077.02 C 688.16 1070.94 694.07 1065.47 700.02 1066.40 Z" fill="#1b3d87" />
<path d="M 103.02 1083.52 C 105.51 1083.28 107.62 1085.02 109.32 1086.61 C 111.43 1089.72 113.42 1092.78 114.19 1096.53 C 114.80 1102.65 114.50 1108.88 114.54 1115.02 C 114.56 1120.66 113.34 1125.98 112.13 1131.44 C 110.68 1136.34 109.96 1141.84 107.50 1146.34 C 103.74 1147.33 101.36 1149.58 97.19 1147.81 C 92.83 1146.20 91.40 1142.10 91.45 1137.75 C 93.53 1129.93 96.29 1121.60 96.23 1113.46 L 95.08 1113.38 C 88.25 1122.29 81.76 1131.34 75.99 1140.99 C 70.37 1150.04 66.12 1159.72 60.95 1168.97 C 58.43 1172.63 56.05 1177.35 52.14 1179.54 C 48.48 1179.69 45.23 1180.43 42.44 1177.60 C 40.57 1176.02 39.12 1173.50 39.44 1171.00 C 39.18 1166.84 43.42 1162.87 45.33 1159.34 C 50.42 1150.04 54.74 1140.41 60.38 1131.39 C 66.33 1121.38 72.80 1112.45 79.76 1103.19 C 75.22 1104.09 70.76 1105.43 66.30 1106.62 C 63.09 1105.99 60.26 1105.63 58.22 1102.78 C 56.26 1100.13 56.35 1097.13 56.81 1094.01 C 57.75 1091.29 60.19 1091.09 62.00 1088.81 C 67.90 1087.17 73.84 1085.61 79.84 1084.36 C 87.69 1082.70 95.04 1083.63 103.02 1083.52 Z" fill="#ffd747" />
<path d="M 484.89 1087.99 C 485.38 1093.28 484.69 1098.46 484.40 1103.71 C 481.88 1100.05 480.92 1095.38 481.96 1091.04 C 482.58 1090.07 483.47 1087.71 484.89 1087.99 Z" fill="#020105" />
<path d="M 62.00 1088.81 C 60.19 1091.09 57.75 1091.29 56.81 1094.01 C 56.35 1097.13 56.26 1100.13 58.22 1102.78 C 60.26 1105.63 63.09 1105.99 66.30 1106.62 C 60.91 1108.55 54.13 1105.19 54.25 1099.00 C 53.41 1093.83 57.18 1089.81 62.00 1088.81 Z" fill="#b39b40" />
<path d="M 669.02 1091.61 C 674.50 1092.32 677.38 1096.39 678.62 1101.44 C 681.69 1107.18 685.65 1112.20 690.07 1116.94 C 698.92 1127.30 708.49 1137.66 716.06 1148.95 C 719.27 1153.24 718.21 1159.77 713.67 1162.70 C 710.80 1165.01 706.78 1164.44 703.54 1163.36 C 700.38 1160.85 698.87 1157.65 696.47 1154.52 C 690.89 1147.18 684.76 1140.24 678.81 1133.20 C 674.03 1127.52 668.57 1122.31 664.98 1116.01 C 662.21 1111.87 659.74 1107.70 658.33 1102.88 C 657.02 1096.62 662.63 1090.51 669.02 1091.61 Z" fill="#1b3d87" />
<path d="M 91.45 1137.75 C 91.40 1142.10 92.83 1146.20 97.19 1147.81 C 101.36 1149.58 103.74 1147.33 107.50 1146.34 C 105.32 1151.10 98.60 1152.00 94.53 1149.35 C 90.94 1146.85 89.84 1141.70 91.45 1137.75 Z" fill="#b3993e" />
</svg>