<?xml version="1.0" encoding="utf-8"?>
<!-- Generator: Adobe Illustrator 24.1.0, SVG Export Plug-In . SVG Version: 6.00 Build 0)  -->
<svg version="1.1" id="Layer_1" xmlns="http://www.w3.org/2000/svg" xmlns:xlink="http://www.w3.org/1999/xlink" x="0px" y="0px"
	 viewBox="0 0 500 600" style="enable-background:new 0 0 500 600;" xml:space="preserve">
<style type="text/css">
	.st0{fill:none;stroke:#FFFFFF;stroke-width:2;stroke-linecap:round;stroke-linejoin:round;stroke-miterlimit:10;}
</style>
<g>
	<path class="st0" d="M395.5,181.8c-3.2-1.8-6.9-1.4-10.2-1.6c-9.7-0.3-19.4-1.4-29.1-2.1c-8-0.6-15.9-1.8-23.9-2.8
		c1.7-8.8,3.4-17.3,4.9-25.9c1.2-7.3,2.1-14.7,3.1-22.1c0.9-6.3,2.2-12.6,2.5-19c0.4-7.9,0.3-15.9-0.7-23.8c-3-23.5-13-42.8-33.1-56
		c-11.8-7.8-24.9-11.8-38.8-13.8c-8.3-1.2-16.6-1.4-24.7-0.6c-16.5,1.6-31.6,7.6-44.1,18.8c-10.8,9.7-18.9,21.1-23.1,35.3
		c-3.8,13-4,25.9-2.4,39.4c2,17.1,11.9,27,25.9,34.4c16.1,8.5,33.3,13.8,50.7,18.6c14.3,4,28.8,6.6,43.3,9.5
		c11.1,2.2,22.3,3.4,33.5,5c0.9,0.1,1.8,0.3,2.6,0.4c-1.1,7.9-4,15.3-5.7,23c-0.3,1.4-1,2.8-3,3.1c-11.2,1.7-22.4,3.5-33.6,5.3
		c-25.5,4.1-51.1,5-76.8,4.3c-10.9-0.3-21.8-1.5-32.7-2.6c-6.7-0.7-13.3-1.9-19.9-3.1c-2.4-0.4-3.9,0-5.9,1.7
		c-3.7,3.1-8.2,5.3-12.2,8.1c-8.8,6.3-13.5,15.7-18.1,25.1c-1.6,3.4-3.5,6.6-3.1,10.6"/>
	<path class="st0" d="M152.7,351.7c0.9,1.4,0.4,3,0.4,4.4c0,29.1-0.5,58.3,0.2,87.4c0.5,19.6,0.8,39.2,0.6,58.7
		c-0.3,23.1-4.6,45.5-15.3,66.2c-1.8,3.5-3.7,6.8-7,9.3c-5.6,4.2-11.3,4.4-17.7,1.8c-17.7-7.3-32.1-18.8-39-36.8
		c-6-15.7-6.8-32.5-3.5-49.4c3.9-20.2,10.9-39.6,15.6-59.6c1-4.2,3.3-8,4.2-12c1.3-6.1,3.2-12,4.7-18c2.8-11,5.7-22,8.3-33.1
		c1.7-7.4,2.7-15,4.1-22.5c3.1-16.1-5.4-26.3-17-34.8c-9.4-7-20.1-11.1-32.2-11.1c-11,0-20.1,4.2-26.9,12.8
		c-8.6,10.8-12.4,23.5-13.7,37.1c-1.7,17.6,3.9,33.8,9.8,49.9c6.1,16.5,13,32.7,17.4,49.9c2,7.9,6.3,9.2,13.8,4.3
		c9-5.9,16.1-14.2,23-22.4c1.4-1.7,2.5-3.7,4.9-4.4"/>
	<path class="st0" d="M261.7,310.7c4.6,9,10.9,16.9,17.3,24.7c18.5,22.7,40,42.1,64.5,58.2c11.9,7.8,24.4,14.7,38.4,18.1
		c6,1.5,12,2.5,18.1-0.3c5.5-2.5,7.9-7.1,8.2-12.4c1.2-16.8-1.2-33.2-9.3-48.1c-7.8-14.3-19.5-23.2-36.5-24.5
		c-9.3-0.7-18.6-0.4-27.8-1.8c-11.1-1.7-22.1-4.3-33.1-6.5c-12.3-2.4-24.4-5.6-36.7-8.1c-3.9-0.8-5-2.1-6.7-5.1
		c-14.5-26.1-29.5-51.9-48.4-75.1c-5.2-6.3-10.3-12.7-15.5-19"/>
	<path class="st0" d="M413.2,180.9c1.1,1.2,2.6,0.8,4,0.9c12.1,0.6,24.2-0.3,36.2-1.1c11.3-0.7,22.8-1.7,33.6-5.8
		c2.4-0.9,4.2-2.3,6.1-3.7c2-1.4,2.6-3.5,2.2-5.7c-0.5-2.7-2.9-4.1-5.3-4.3c-3.6-0.4-7.5-0.7-11,0c-19.8,3.7-39.1,9.5-58.3,15.4
		c-7.7,2.3-15.6,3.9-23.3,6.1c-7.2,2.1-14.5,4.3-21.7,6.3c-14,3.9-28.1,7.6-42.4,10.2c-2.5,0.5-4.9,1.6-7.5,1.3"/>
	<path class="st0" d="M190.7,208.7c-0.5-3.2-3.3-4.6-5.3-6.6c-14.2-13.8-29.5-26.2-46.7-36.3c-18.7-11-38.7-18.6-59.7-23.6
		C68.1,139.6,57,138,45.9,137c-8.6-0.8-17.1-1.3-25.6-1c-3.8,0.1-7.8,0.4-11,3c-3.3,2.5-3.8,4.5-1.7,7.9c3,5,7.6,8.3,12.3,11.5
		c13.8,9.4,29.1,16,44.6,22c14.9,5.7,30,10.8,45.5,14.6c1.1,0.3,1.7,1,2.6,1.4"/>
	<path class="st0" d="M324,202.1c-0.1,5.2-3,9.6-5,14.1c-10.3,23.3-25.5,43.6-41,63.6c-2.6,3.4-5.9,6.4-9.5,9
		c-3.1,2.2-6.1,3.3-9.8,3"/>
	<path class="st0" d="M147.4,262.6c1.9,4.4,3.6,8.9,5.8,13.2c2.7,5.3,4.4,11.1,5,16.8c0.4,4.1-1.1,8.6-2,12.8
		c-3.2,14.3-3.7,28.7-2.6,43.3"/>
	<path class="st0" d="M258.7,308c-3.2,0.5-6.2-0.8-9.3-1.3c-11.3-1.8-22.7-2.8-34-1.2c-10.6,1.5-19.7,6.9-28.2,13.2
		c-12.7,9.4-23.7,20.6-34.6,32.1c-20.3,21.5-38.3,44.8-56.9,67.6c-1,1.2-2.3,2.1-3.5,3.1"/>
	<path class="st0" d="M98,192.4c-2.3,8.1-3.5,16.4-4.8,24.7c-1.4,8.6,1.9,16.4,4.5,24.3c2.4,7.3,4.9,14.6,6.5,22.1"/>
	<path class="st0" d="M130.6,200.7c-6.6,8.4-10.4,18.4-16.6,27c-1.7,2.4-3.7,4-5.9,5.6c-1.9,1.4-4.3,1.5-6.1,0
		c-1.9-1.5-3.3-3.5-1.4-6.1c0.3-0.4,0-1.2,0-1.7"/>
	<path class="st0" d="M148.7,178.7c-7.7-3.5-15.6-4.6-23.8-2.7c-7.4,1.7-14.5,4.6-21.6,7.1"/>
	<path class="st0" d="M151.8,179.6c-3.8-1.2-7.3,0.8-11,1c-6.1,0.3-12.2,1.2-18.1,2.9c-2.4,0.6-3.8,1.8-4.8,3.7
		c-5,9.9-10.1,19.9-13.7,30.4"/>
	<path class="st0" d="M275.4,252c-2.4-1.5-4.7-2.9-7.1-4.4c-2.8-1.9-5.7,0.3-8.4-0.1c-2.8-0.4-4.6-3.5-8-3.5
		c-5.2-0.1-9.5,2.3-14.1,4.1"/>
	<path class="st0" d="M168.2,187.1c-6.2,2.6-13,2.7-19.4,4.4c-6,1.6-12.2,2.6-15.9,8.4"/>
	<path class="st0" d="M237,248.4c-1.8,10,7.1,19.7,17.2,20c9.9,0.3,17.2-3.6,23-11.2"/>
	<path class="st0" d="M114.3,195.9c9.2,3.1,18.8,4.5,28.2,6.7c4.3,1,8.8,0.9,12.8,3"/>
	<path class="st0" d="M165.9,215.8c-5.9,5.6-11.7,11.2-17.7,16.7c-0.8,0.7-1.4,1.2-1.8,2.2c-2.5,6.5-7.5,10.9-13.2,14.6"/>
	<path class="st0" d="M177.4,195.9c-2.9,3.5-6.6,5.6-11,6.7c-1.2,0.3-3.1,0.2-3.6,2.1"/>
	<path class="st0" d="M161.5,180c5.7-1.6,10.4,0.9,15,3.6c3.3,2,3.6,6.9,1.4,11.4"/>
	<path class="st0" d="M237.5,250.2c2.9,2.3,6.7,2.4,9.7,4.4"/>
	<path class="st0" d="M169.5,207.4c0.6,1.8-0.9,3.2-0.9,4.9"/>
	<path class="st0" d="M172.6,182.2c-0.6,1.5-0.7,3.4-2.6,4"/>
	<path class="st0" d="M147.4,229c0,1.2,0,2.4,0,3.5"/>
	<path class="st0" d="M98.8,187.5c-0.1,1-0.3,2.1-0.4,3.1"/>
</g>
</svg>
