<?xml version="1.0" encoding="utf-8"?>
<!-- Generator: Adobe Illustrator 24.1.0, SVG Export Plug-In . SVG Version: 6.00 Build 0)  -->
<svg version="1.1" id="Layer_1" xmlns="http://www.w3.org/2000/svg" xmlns:xlink="http://www.w3.org/1999/xlink" x="0px" y="0px"
	 viewBox="0 0 500 600" style="enable-background:new 0 0 500 600;" xml:space="preserve">
<style type="text/css">
	.st0{fill:#020203;}
	.st1{fill:url(#SVGID_1_);}
	.st2{fill:url(#SVGID_2_);}
	.st3{fill:url(#SVGID_3_);}
	.st4{fill:url(#SVGID_4_);}
	.st5{fill:url(#SVGID_5_);}
	.st6{fill:#447C57;}
	.st7{font-family:'IowanOldStyle-Bold';}
	.st8{font-size:48.3811px;}
	.st9{font-size:29.5662px;}
</style>
<g>
	<g>
		<path class="st0" d="M394.3,251.3c-0.7,1.7-0.9,2.8-1.5,3.9c-5.8,13.2-10.8,26.5-17.3,39.4c-9.4,18.5-34.5,30.8-58.3,40.5
			c-10.8,4.3-18,10.5-24.1,19.1c-4.8,6.9-2.3,17.7-2.6,25.8c0.5,17.7,2.6,25,4.2,41.7c0.3,0.7,0.4,8.1,0.5,9
			c-16.3,0-28.9,0.4-45.3,0c-16.4,0.4-28.9,0-45.3,0c0.1-0.9,0.3-8.3,0.5-9c1.6-16.7,3.6-23.9,4.2-41.7c-0.3-8.1,2.3-18.8-2.6-25.8
			c-6-8.7-13.4-14.8-24.1-19.1c-23.9-9.7-48.9-21.9-58.3-40.5c-6.6-12.9-11.7-26.2-17.3-39.4c-0.4-1.1-0.8-2.3-1.5-3.9
			c9.4,0.8,9.1,9.1,16.9,10.9v-16.8c0.8-0.1,1.5-0.3,2.2-0.5c8.3,6.6,6.2,16.7,11.7,24.2c0.8-1.6,1.2-3.1,1.3-4.7
			c0.4-3.4,0.7-6.6,1.2-9.9c0.1-0.8,1.1-1.6,1.6-2.4c1.1,0.7,2.6,1.1,3,1.9c0.7,1.6,0.8,3.4,1.2,5c1.1,5.6,2,11.2,3.1,16.8
			c0.5,0,0.9,0,1.5,0c1.3-3.1,2.8-6.2,4.3-9.3c0.5,0,1.1,0.1,1.6,0.1c0.3,1.9,0.7,3.8,0.8,5.5c0.4,5,0.3,10.1,1.1,15.1
			c1.6,9.8,6.3,18.3,18.4,23.1c8.2,3.2,16.7,4.6,25.9,1.2c-1.2-1.3-2.2-2.3-3.1-3.2c-5.2-5.4-10.8-10.6-15.9-16.1
			c-1.7-1.9-2.4-4.3-3.5-6.6c0.5-0.3,1.1-0.5,1.5-0.8c1.3,0.5,2.8,0.9,4.2,1.5c7.9,4,16.3,7.8,23.7,12.4
			c23.8,14.9,39.2,33.7,41.4,57.1c2.2-23.4,17.6-42.2,41.4-57.1c7.4-4.6,15.7-8.3,23.7-12.4c1.2-0.7,2.7-1.1,4.2-1.5
			c0.5,0.3,1.1,0.5,1.5,0.8c-1.1,2.2-1.7,4.7-3.5,6.6c-5.1,5.5-10.5,10.8-15.9,16.1c-0.9,0.9-1.9,1.9-3.1,3.2
			c9.3,3.4,17.7,2,25.9-1.2c12.1-4.8,16.8-13.4,18.4-23.1c0.8-5,0.7-10.1,1.1-15.1c0.1-1.9,0.5-3.8,0.8-5.5c0.5,0,1.1-0.1,1.6-0.1
			c1.5,3.1,2.8,6.2,4.3,9.3c0.5,0,0.9,0,1.5,0c1.1-5.6,2-11.3,3.1-16.8c0.3-1.7,0.4-3.5,1.2-5c0.4-0.8,1.9-1.3,3-1.9
			c0.5,0.8,1.5,1.5,1.6,2.4c0.5,3.2,0.8,6.6,1.2,9.9c0.3,1.6,0.5,3.1,1.3,4.7c5.5-7.7,3.4-17.7,11.7-24.2c0.7,0.1,1.5,0.3,2.2,0.5
			v16.8C385.3,260.3,385.1,252,394.3,251.3z"/>
	</g>
	<g>
		
			<linearGradient id="SVGID_1_" gradientUnits="userSpaceOnUse" x1="201.5518" y1="463.6566" x2="283.7133" y2="463.6566" gradientTransform="matrix(1 0 0 -1 0 602)">
			<stop  offset="0" style="stop-color:#FFFFFF"/>
			<stop  offset="8.923128e-02" style="stop-color:#C1E0CA"/>
			<stop  offset="0.1672" style="stop-color:#91CAA2"/>
			<stop  offset="0.2265" style="stop-color:#75BF8A"/>
			<stop  offset="0.2601" style="stop-color:#68BA80"/>
			<stop  offset="0.3908" style="stop-color:#64B77E"/>
			<stop  offset="0.5005" style="stop-color:#61AD78"/>
			<stop  offset="0.6026" style="stop-color:#569B6B"/>
			<stop  offset="0.7001" style="stop-color:#49835B"/>
			<stop  offset="0.7943" style="stop-color:#396445"/>
			<stop  offset="0.8861" style="stop-color:#213C29"/>
			<stop  offset="0.9742" style="stop-color:#090F0D"/>
			<stop  offset="1" style="stop-color:#020203"/>
		</linearGradient>
		<path class="st1" d="M210.8,163.4c3.2-0.7,6.5-1.3,9.5-2.2c2.7-0.7,5.5-1.3,8.2-2.3c0.9-0.4,2.4-1.7,2.3-2.3
			c-0.4-1.5-1.3-3.1-2.6-4.2c-1.1-0.9-2.8-1.2-4-2c-1.6-1.1-2.8-2.4-1.1-4.3c-1.7-0.8-3.6-1.6-5.4-2.6c0.1-0.3,0.1-0.5,0.3-0.8
			c1.1-0.5,2.3-1.1,4.2-1.9c-6.3-0.7-12.4-0.8-14.8-8.3c2.3,0.3,4.2,0.5,6.3,0.8c-5.5-3.9-12.2-6.3-12.2-15.1c2.7,2,4.7,3.6,6.7,5.1
			c-3.8-5.1-7.4-10.1-6.2-17.2c1.7,2.3,3,4.6,4.8,6c6,5.1,13.6,7.3,21,9.3c2,0.5,4.3,0.4,6.3,1.2c2,0.8,4.2,2.2,5.5,3.8
			c4,4.7,7.5,9.7,11.4,14.5c1.2,1.6,2.6,1.7,4.6,0.3c4.3-3.5,7.5-7.5,9.7-12.5c1.1-2.7,2.3-5.2,3.6-8.2c0.5,0.1,1.6,0.3,3,0.5
			c-0.4-1.3-0.7-2.4-1.1-3.8c1.6,0,3.4,0,1.6-3.4c2,1.3,3,2,3.9,2.7c-0.1-1.1-0.1-2.2-0.3-3.5c1.1,0.7,1.7,1.2,2.8,1.7
			c0.1-0.8,0.4-1.6,0.7-3.2c4.3,5.6,4.3,11.4,3.6,17.2c-0.8,6.3-5.4,10.1-10.3,13.2c3.1,2.8,7.1,4.3,9.8,8.2c-1.5,0.4-2.3,0.4-3,0.7
			c-2.4,1.1-5.4,1.9-7.1,3.6c-9.1,9.8-20.4,13-33.3,12.2c-1.1-0.1-2.3,0.3-3.5,0.5c-4.2,1.1-8.5,2.6-12.6,3c-2.3,0.1-4.7-1.6-7-2.7
			c-1.9-0.9-3.8-2-5.5-3.1C210.7,164.1,210.8,163.7,210.8,163.4z"/>
		
			<linearGradient id="SVGID_2_" gradientUnits="userSpaceOnUse" x1="76.9705" y1="508.6314" x2="187.5508" y2="508.6314" gradientTransform="matrix(1 0 0 -1 0 602)">
			<stop  offset="0" style="stop-color:#FFFFFF"/>
			<stop  offset="8.923128e-02" style="stop-color:#C1E0CA"/>
			<stop  offset="0.1672" style="stop-color:#91CAA2"/>
			<stop  offset="0.2265" style="stop-color:#75BF8A"/>
			<stop  offset="0.2601" style="stop-color:#68BA80"/>
			<stop  offset="0.3908" style="stop-color:#64B77E"/>
			<stop  offset="0.5005" style="stop-color:#61AD78"/>
			<stop  offset="0.6026" style="stop-color:#569B6B"/>
			<stop  offset="0.7001" style="stop-color:#49835B"/>
			<stop  offset="0.7943" style="stop-color:#396445"/>
			<stop  offset="0.8861" style="stop-color:#213C29"/>
			<stop  offset="0.9742" style="stop-color:#090F0D"/>
			<stop  offset="1" style="stop-color:#020203"/>
		</linearGradient>
		<path class="st2" d="M109.9,135c3.4-2.2,6.9-4.2,10.2-6.3c3-1.9,5.8-3.8,8.5-5.9c0.9-0.8,2.2-3,1.7-3.5c-1.1-1.5-2.8-3-4.6-3.6
			c-1.6-0.7-3.8-0.1-5.5-0.5c-2.3-0.5-4.2-1.6-3-4.3c-2.4-0.3-4.8-0.4-7.1-0.7c0-0.4,0-0.7-0.1-1.1c1.1-1.1,2.2-2.2,3.9-3.9
			c-7.7,1.9-14.6,4.2-20.4-3.4c2.8-0.7,5-1.1,7.7-1.7c-7.9-2-16.5-2-20-11.8c3.9,1.2,6.9,2.2,9.8,3c-6.3-4.2-12.5-8.3-14-16.8
			c3,1.9,5.2,3.9,7.9,4.8c9,3.2,18.4,2.6,27.8,1.7c2.6-0.3,5.1-1.3,7.7-1.2c2.7,0.1,5.5,0.7,7.8,1.9c6.5,3.6,12.6,7.8,18.9,11.6
			c2.2,1.2,3.6,0.9,5.4-1.6c3.6-5.6,5.6-11.4,6-18c0.3-3.4,0.7-6.9,0.9-10.6c0.7-0.1,2-0.3,3.6-0.5c-0.9-1.3-1.7-2.4-2.8-3.8
			c1.9-0.7,3.9-1.3,0.5-4.4c3,0.7,4.3,1.1,5.6,1.3c-0.5-1.2-1.1-2.4-1.7-3.9c1.5,0.3,2.6,0.5,3.9,0.8c-0.1-1.1-0.3-1.9-0.5-3.9
			c7.1,4.6,9.5,11.2,11,17.9c1.6,7.4-2.2,13.4-6.6,19.1c4.7,1.9,9.9,2,14.6,5.2c-1.5,0.9-2.4,1.3-3.1,2c-2.3,2.3-5.5,4.3-6.7,7
			c-6.6,14.6-18.3,23-33.6,27.3c-1.3,0.4-2.6,1.2-3.8,2c-4.4,2.8-8.6,6.3-13.4,8.5c-2.6,1.1-6,0.1-9.1-0.1c-2.6-0.3-5.1-0.8-7.7-1.2
			C110,136,110,135.5,109.9,135z"/>
		
			<linearGradient id="SVGID_3_" gradientUnits="userSpaceOnUse" x1="301.0686" y1="508.6314" x2="411.6491" y2="508.6314" gradientTransform="matrix(1 0 0 -1 0 602)">
			<stop  offset="0" style="stop-color:#FFFFFF"/>
			<stop  offset="8.923128e-02" style="stop-color:#C1E0CA"/>
			<stop  offset="0.1672" style="stop-color:#91CAA2"/>
			<stop  offset="0.2265" style="stop-color:#75BF8A"/>
			<stop  offset="0.2601" style="stop-color:#68BA80"/>
			<stop  offset="0.3908" style="stop-color:#64B77E"/>
			<stop  offset="0.5005" style="stop-color:#61AD78"/>
			<stop  offset="0.6026" style="stop-color:#569B6B"/>
			<stop  offset="0.7001" style="stop-color:#49835B"/>
			<stop  offset="0.7943" style="stop-color:#396445"/>
			<stop  offset="0.8861" style="stop-color:#213C29"/>
			<stop  offset="0.9742" style="stop-color:#090F0D"/>
			<stop  offset="1" style="stop-color:#020203"/>
		</linearGradient>
		<path class="st3" d="M378.8,135c-3.4-2.2-6.9-4.2-10.2-6.3c-3-1.9-5.8-3.8-8.5-5.9c-0.9-0.8-2.2-3-1.7-3.5c1.1-1.5,2.8-3,4.6-3.6
			c1.6-0.7,3.8-0.1,5.5-0.5c2.3-0.5,4.2-1.6,3-4.3c2.4-0.3,4.8-0.4,7.1-0.7c0-0.4,0-0.7,0.1-1.1c-1.1-1.1-2.2-2.2-3.9-3.9
			c7.7,1.9,14.6,4.2,20.4-3.4c-2.8-0.7-5-1.1-7.7-1.7c7.9-2,16.5-2,20-11.8c-3.9,1.2-6.9,2.2-9.8,3c6.3-4.2,12.5-8.3,14-16.8
			c-3,1.9-5.2,3.9-7.9,4.8c-9,3.2-18.4,2.6-27.8,1.7c-2.6-0.3-5.1-1.3-7.7-1.2c-2.7,0.1-5.5,0.7-7.8,1.9
			c-6.5,3.6-12.6,7.8-18.9,11.6c-2.2,1.2-3.6,0.9-5.4-1.6c-3.6-5.6-5.6-11.4-6-18c-0.3-3.4-0.7-6.9-0.9-10.6c-0.7-0.1-2-0.3-3.6-0.5
			c0.9-1.3,1.7-2.4,2.8-3.8c-1.9-0.7-3.9-1.3-0.5-4.4c-3,0.7-4.3,1.1-5.6,1.3c0.5-1.2,1.1-2.4,1.7-3.9c-1.5,0.3-2.6,0.5-3.9,0.8
			c0.1-1.1,0.3-1.9,0.5-3.9c-7.1,4.6-9.5,11.2-11,17.9c-1.6,7.4,2.2,13.4,6.6,19.1c-4.7,1.9-9.9,2-14.6,5.2c1.5,0.9,2.4,1.3,3.1,2
			c2.3,2.3,5.5,4.3,6.7,7c6.6,14.6,18.3,23,33.6,27.3c1.3,0.4,2.6,1.2,3.8,2c4.4,2.8,8.6,6.3,13.4,8.5c2.6,1.1,6,0.1,9.1-0.1
			c2.6-0.3,5.1-0.8,7.7-1.2C378.5,136,378.7,135.5,378.8,135z"/>
		
			<linearGradient id="SVGID_4_" gradientUnits="userSpaceOnUse" x1="76.9902" y1="405.3967" x2="152.476" y2="405.3967" gradientTransform="matrix(1 0 0 -1 0 602)">
			<stop  offset="0" style="stop-color:#FFFFFF"/>
			<stop  offset="8.923128e-02" style="stop-color:#C1E0CA"/>
			<stop  offset="0.1672" style="stop-color:#91CAA2"/>
			<stop  offset="0.2265" style="stop-color:#75BF8A"/>
			<stop  offset="0.2601" style="stop-color:#68BA80"/>
			<stop  offset="0.3908" style="stop-color:#64B77E"/>
			<stop  offset="0.5005" style="stop-color:#61AD78"/>
			<stop  offset="0.6026" style="stop-color:#569B6B"/>
			<stop  offset="0.7001" style="stop-color:#49835B"/>
			<stop  offset="0.7943" style="stop-color:#396445"/>
			<stop  offset="0.8861" style="stop-color:#213C29"/>
			<stop  offset="0.9742" style="stop-color:#090F0D"/>
			<stop  offset="1" style="stop-color:#020203"/>
		</linearGradient>
		<path class="st4" d="M111.6,236.9c-1.5-3-3-6-4.3-9c-1.2-2.6-2.4-5.2-3.4-7.9c-0.4-0.9-0.3-2.8,0.1-3c1.2-0.3,2.7-0.1,4,0.3
			c1.2,0.5,2.4,1.9,3.6,2.6c1.6,0.8,3.2,1.2,3.2-0.9c1.6,1.2,3.2,2.3,4.7,3.4c0.1-0.1,0.3-0.4,0.4-0.5c-0.4-1.2-0.7-2.4-1.2-4.3
			c4.2,5.1,7.9,10.1,14,8.9c-1.6-1.9-2.8-3.2-4.3-5c5.8,3,11.2,7.5,16.7,3.8c-2.8-1.3-5-2.4-7.3-3.5c5.4,0.9,10.6,1.7,14.4-2.4
			c-2.4-0.5-4.6-0.5-6.7-1.3c-6.7-3-12.5-8.2-18.3-13.7c-1.6-1.5-2.8-3.5-4.4-4.7c-1.7-1.3-3.8-2.6-5.6-3
			c-5.2-1.3-10.6-2.2-15.9-3.4c-1.7-0.4-2.7-1.3-2.8-3.8c-0.4-5.1,0.1-9.7,2.2-13.6c0.9-2.2,1.9-4.3,3-6.7c-0.4-0.4-1.2-1.2-2.2-2.3
			c1.1-0.3,1.9-0.5,3-0.8c-0.9-1.3-2-2.8,1.1-2.8c-2.2-1.1-3.1-1.6-4-2.2c0.7-0.4,1.5-0.8,2.4-1.3c-1.1-0.5-1.7-1.1-2.8-1.6
			c0.4-0.5,0.8-0.9,1.6-2c-6-1.1-9.7,1.3-12.9,4.4c-3.5,3.4-3.1,8.9-2.2,14.5c-3.5-1.3-7-4-11-4.7c0.7,1.3,1.1,2,1.3,2.8
			c0.7,2.6,2,5.4,1.9,7.5c-0.7,12,4,23,12.2,33.5c0.7,0.9,1.2,2.2,1.7,3.2c1.9,4,3.4,8.2,5.6,12c1.2,2,3.8,3.4,5.8,4.8
			c1.7,1.2,3.5,2.3,5.2,3.4C111.1,237.3,111.4,237.2,111.6,236.9z"/>
		
			<linearGradient id="SVGID_5_" gradientUnits="userSpaceOnUse" x1="347.4654" y1="406.3375" x2="422.9513" y2="406.3375" gradientTransform="matrix(1 0 0 -1 0 602)">
			<stop  offset="0" style="stop-color:#FFFFFF"/>
			<stop  offset="8.923128e-02" style="stop-color:#C1E0CA"/>
			<stop  offset="0.1672" style="stop-color:#91CAA2"/>
			<stop  offset="0.2265" style="stop-color:#75BF8A"/>
			<stop  offset="0.2601" style="stop-color:#68BA80"/>
			<stop  offset="0.3908" style="stop-color:#64B77E"/>
			<stop  offset="0.5005" style="stop-color:#61AD78"/>
			<stop  offset="0.6026" style="stop-color:#569B6B"/>
			<stop  offset="0.7001" style="stop-color:#49835B"/>
			<stop  offset="0.7943" style="stop-color:#396445"/>
			<stop  offset="0.8861" style="stop-color:#213C29"/>
			<stop  offset="0.9742" style="stop-color:#090F0D"/>
			<stop  offset="1" style="stop-color:#020203"/>
		</linearGradient>
		<path class="st5" d="M388.4,236c1.5-3,3-6,4.3-9c1.2-2.6,2.4-5.2,3.4-7.9c0.4-0.9,0.3-2.8-0.1-3c-1.2-0.3-2.7-0.1-4,0.3
			c-1.2,0.5-2.4,1.9-3.6,2.6c-1.6,0.8-3.2,1.2-3.2-0.9c-1.6,1.2-3.2,2.3-4.7,3.4c-0.1-0.1-0.3-0.4-0.4-0.5c0.4-1.2,0.7-2.4,1.2-4.3
			c-4.2,5.1-7.9,10.1-14,8.9c1.6-1.9,2.8-3.2,4.3-5c-5.8,3-11.2,7.5-16.7,3.8c2.8-1.3,5-2.4,7.3-3.5c-5.4,0.9-10.6,1.7-14.4-2.4
			c2.4-0.5,4.6-0.5,6.7-1.3c6.7-3,12.5-8.2,18.3-13.7c1.6-1.5,2.8-3.5,4.4-4.7c1.7-1.3,3.8-2.6,5.6-3c5.2-1.3,10.6-2.2,15.9-3.4
			c1.7-0.4,2.7-1.3,2.8-3.8c0.4-5.1-0.1-9.7-2.2-13.6c-0.9-2.2-1.9-4.3-3-6.7c0.4-0.4,1.2-1.2,2.2-2.3c-1.1-0.3-1.9-0.5-3-0.8
			c0.9-1.3,2-2.8-1.1-2.8c2.2-1.1,3.1-1.6,4-2.2c-0.7-0.4-1.5-0.8-2.4-1.3c1.1-0.5,1.7-1.1,2.8-1.6c-0.4-0.5-0.8-0.9-1.6-2
			c6-1.1,9.7,1.3,12.9,4.4c3.5,3.4,3.1,8.9,2.2,14.5c3.5-1.3,7-4,11-4.7c-0.7,1.3-1.1,2-1.3,2.8c-0.7,2.6-2,5.4-1.9,7.5
			c0.7,12-4,23-12.2,33.5c-0.7,0.9-1.2,2.2-1.7,3.2c-1.9,4-3.4,8.2-5.6,12c-1.2,2-3.8,3.4-5.8,4.8c-1.7,1.2-3.5,2.3-5.2,3.4
			C388.8,236.4,388.6,236.1,388.4,236z"/>
	</g>
	<text transform="matrix(1 0 0 1 139.9409 493.5474)" class="st6 st7 st8">ESBJERG</text>
	<text transform="matrix(1 0 0 1 138.4624 537.897)" class="st6 st7 st9">KRISECENTER</text>
</g>
</svg>
