<svg id="Layer_1" data-name="Layer 1" xmlns="http://www.w3.org/2000/svg" xmlns:xlink="http://www.w3.org/1999/xlink" viewBox="0 0 566.52 342.98"><defs><style>.cls-1{fill:none;}.cls-2{clip-path:url(#clip-path);}.cls-3{fill:#869aa7;}.cls-4{fill:#758a94;}.cls-5{fill:#bdb9b9;}.cls-6{fill:#713f13;}.cls-7{fill:#d0a261;}.cls-8{fill:#1f6cb4;}.cls-9{fill:#37a137;}.cls-10{fill:#e35510;}.cls-11{fill:#b53d18;}.cls-12{fill:#c34318;}.cls-13{fill:#d0cecd;}.cls-14{fill:#e7e5e6;}.cls-15{fill:#fff5ae;}.cls-16{fill:#f7b41f;}.cls-17{fill:#e7e1c0;}.cls-18{clip-path:url(#clip-path-2);}.cls-19{fill:#fef9cf;}.cls-20{fill:#299cd8;}.cls-21{fill:#b5ceed;}.cls-22{fill:#352877;}.cls-23{fill:#5d7b94;}.cls-24{fill:#a1c4e9;}.cls-25{fill:#d1e1f5;}.cls-26{fill:#606daa;}.cls-27{fill:#6495cf;}.cls-28{fill:#7f9fbe;}.cls-29{fill:#9ec3e8;}</style><clipPath id="clip-path" transform="translate(-137.61 -127.25)"><rect class="cls-1" x="137.61" y="127.24" width="566.52" height="329.83"/></clipPath><clipPath id="clip-path-2" transform="translate(-137.61 -127.25)"><path class="cls-1" d="M458.28,424c-.36.71-.7,1.42-1,2.12h0c-6.62,13.87-8.27,25.6-3.31,29.55h0l0,0,0,0,.07.06c.16.12.33.23.5.34,4.8,1.76,13-1.42,21.77-8.26a25.22,25.22,0,0,1-3.27-1.29c-.41-.19-.81-.4-1.2-.61-6.63,4.78-12.42,6.51-15.7,4.05-4.34-3.26-3.14-13.09,2.26-24.85-.05-.42-.08-.83-.1-1.25l-.05.09"/></clipPath></defs><g class="cls-2"><path class="cls-3" d="M161.69,135.13a2.37,2.37,0,1,1,1.05,3.29,2.43,2.43,0,0,1-1.05-3.29" transform="translate(-137.61 -127.25)"/><path class="cls-3" d="M151.24,130.87a3.07,3.07,0,0,1,4-1.58,3,3,0,0,1,1.65,2.57,2,2,0,0,0-2.25,1.15,2.05,2.05,0,0,0,.15,2.08,2.89,2.89,0,0,1-2.27-.08,3.08,3.08,0,0,1-1.33-4.14" transform="translate(-137.61 -127.25)"/><path class="cls-4" d="M156.62,133.43a3.26,3.26,0,0,0,.32-1.57,1.63,1.63,0,0,1,.37.13,2,2,0,0,1-1.76,3.69,2,2,0,0,1-.71-.59,3.27,3.27,0,0,0,1.78-1.66" transform="translate(-137.61 -127.25)"/><path class="cls-4" d="M154.69,133a2,2,0,0,1,2.25-1.15,3.38,3.38,0,0,1-.32,1.57,3.27,3.27,0,0,1-1.78,1.66,2.06,2.06,0,0,1-.15-2.08" transform="translate(-137.61 -127.25)"/><path class="cls-4" d="M168.67,140.42a2.08,2.08,0,0,1,1,1.1c-1.18,0-2.57,0-4,0a2.24,2.24,0,0,1,2.94-1.14" transform="translate(-137.61 -127.25)"/><path class="cls-4" d="M169.7,141.52a2.36,2.36,0,0,1-.06,1.91,2.17,2.17,0,1,1-3.91-1.86h0c1.4,0,2.79,0,4,0" transform="translate(-137.61 -127.25)"/><path class="cls-5" d="M164.91,133.88a2.52,2.52,0,1,0,1.05,3.29,2.43,2.43,0,0,0-1.05-3.29m-13.67-3a3.08,3.08,0,0,0,1.33,4.14,2.89,2.89,0,0,0,2.27.08,2,2,0,0,0,.71.59,2,2,0,0,0,1.76-3.69,1.63,1.63,0,0,0-.37-.13,3,3,0,0,0-1.65-2.57,3.07,3.07,0,0,0-4,1.58m.71,4.42c-.61-.45-3-2-8.15-1.37-1.61.18-4.13,7.83-5.33,7.21l-.22,0a18.88,18.88,0,0,1,1.22-3.28c4.29-9,14.64-13,23.1-9a16.63,16.63,0,0,1,9.18,12.5,16.93,16.93,0,0,1-2.05.2,2.08,2.08,0,0,0-1-1.1,2.24,2.24,0,0,0-2.94,1.14,63.32,63.32,0,0,0-6.5.11,1.59,1.59,0,0,1-1.72-1.09c-.36-1-.72-2-1.18-2.05-.09,0-.21,0-1.34,1.15-.86.86-1,1-1.17,1-.74,0-.78-2-1.56-2.11-.61-.11-1.37.9-1.93,1.77l-.18-.17c.82-1.74,2.2-4.6,1.8-4.89" transform="translate(-137.61 -127.25)"/><path class="cls-4" d="M149.83,140a2.14,2.14,0,0,1,.32.2,6.45,6.45,0,0,0-.57,1.32,7.8,7.8,0,0,0,.75-1.15,1.9,1.9,0,0,1,.3,2.12,1.79,1.79,0,1,1-.8-2.49" transform="translate(-137.61 -127.25)"/><path class="cls-5" d="M150.15,140.18l.18.17a7.8,7.8,0,0,1-.75,1.15,6.72,6.72,0,0,1,.57-1.32" transform="translate(-137.61 -127.25)"/><path class="cls-3" d="M156.66,153a2.8,2.8,0,1,0,1.17,3.66,2.73,2.73,0,0,0-1.17-3.66m13.47-.62,0,.05-.08-.05a6.7,6.7,0,0,1-1.33.61,2,2,0,0,0-1-2.05,2,2,0,0,0-2.61,1,2,2,0,0,0,.36,2.33l-1.77.66c-.75.92-2.73,1.07-4.21,2.5-.52.5-2.63,4.11-4.73,3.36-.62-.22-1.62-1.83-2.29-2.51-1.16-1.18-1.17-1.85-2-2.09-.62-.19-1.23.05-2.29.48s-1,.63-1.95,1-1.87.68-2.54.15c-.43-.34-.5-.93-.59-1.65a14.26,14.26,0,0,1,.09-2.26,3.89,3.89,0,0,0-1.07-2.72c-.91-.74-2.38-.44-3.67.09a18.46,18.46,0,0,1-.16-10.22l.22,0c1.2.62,3.72-7,5.33-7.21,5.1-.6,7.54.92,8.15,1.37.4.29-1,3.15-1.8,4.89a2.14,2.14,0,0,0-.32-.2,1.91,1.91,0,1,0,.8,2.49,1.9,1.9,0,0,0-.3-2.12c.56-.87,1.32-1.88,1.93-1.77.78.15.82,2.11,1.56,2.11.21,0,.31-.15,1.17-1,1.13-1.12,1.25-1.15,1.34-1.15.46,0,.82,1,1.18,2.05a1.59,1.59,0,0,0,1.72,1.09,63.32,63.32,0,0,1,6.5-.11h0a2.17,2.17,0,1,0,3.91,1.86,2.36,2.36,0,0,0,.06-1.91,16.93,16.93,0,0,0,2.05-.2,18.64,18.64,0,0,1-1.62,11.1" transform="translate(-137.61 -127.25)"/><path class="cls-5" d="M170,152.42l.08.05c-4.3,9-14.63,13-23.08,8.93a16.43,16.43,0,0,1-8.62-10.1c1.29-.53,2.76-.83,3.67-.09a3.89,3.89,0,0,1,1.07,2.72,14.26,14.26,0,0,0-.09,2.26c.09.72.16,1.31.59,1.65.67.53,1.76.13,2.54-.15s.93-.56,1.94-1,1.68-.67,2.3-.48c.8.24.81.91,2,2.09.67.68,1.67,2.29,2.29,2.51,2.1.75,4.21-2.86,4.73-3.36,1.48-1.43,3.46-1.58,4.21-2.5l1.77-.66a1.75,1.75,0,0,0,.49.35,2,2,0,0,0,2.62-1,2.17,2.17,0,0,0,.19-.63,6.7,6.7,0,0,0,1.33-.61" transform="translate(-137.61 -127.25)"/><path class="cls-4" d="M165,152a2,2,0,0,1,2.61-1,2,2,0,0,1,1,2.05c-1,.4-2.26.9-3.3,1.3A2,2,0,0,1,165,152" transform="translate(-137.61 -127.25)"/><path class="cls-4" d="M168.7,153a2.17,2.17,0,0,1-.19.63,2,2,0,0,1-2.62,1,1.75,1.75,0,0,1-.49-.35c1-.4,2.34-.9,3.3-1.3" transform="translate(-137.61 -127.25)"/><path class="cls-4" d="M153.08,154.43a2.64,2.64,0,1,1,1.17,3.66,2.73,2.73,0,0,1-1.17-3.66" transform="translate(-137.61 -127.25)"/><path class="cls-6" d="M186.5,219.92a24.59,24.59,0,0,1,14.25,8.64,99.74,99.74,0,0,0-21.34,45.2h0a24.1,24.1,0,0,1-6.78-.88Z" transform="translate(-137.61 -127.25)"/><path class="cls-6" d="M186.5,219.92l-13.87,53a110.84,110.84,0,0,1,3.12-25.26,113.48,113.48,0,0,1,10.75-27.7" transform="translate(-137.61 -127.25)"/><path class="cls-7" d="M200.75,228.56l-21.34,45.2a99.74,99.74,0,0,1,21.34-45.2" transform="translate(-137.61 -127.25)"/><path class="cls-7" d="M179.5,219.53a25,25,0,0,1,7,.39,113.48,113.48,0,0,0-10.75,27.7,110.84,110.84,0,0,0-3.12,25.26,24.73,24.73,0,0,1-16.52-15.07,81.66,81.66,0,0,0,23.39-38.28" transform="translate(-137.61 -127.25)"/><path class="cls-6" d="M179.5,219.53l-23.39,38.28a28.11,28.11,0,0,1,1-22.34,27.75,27.75,0,0,1,22.43-15.94" transform="translate(-137.61 -127.25)"/><path class="cls-6" d="M156.11,257.81l23.39-38.28a81.66,81.66,0,0,1-23.39,38.28" transform="translate(-137.61 -127.25)"/><path class="cls-6" d="M196.46,266.87A32.36,32.36,0,0,1,205,236.72l.19-.08a28.27,28.27,0,0,1-1.42,21.09,28.81,28.81,0,0,1-7.1,9.37Z" transform="translate(-137.61 -127.25)"/><path class="cls-7" d="M196.46,266.87l.18.23-.39.33a1.91,1.91,0,0,0-.36.29,26.65,26.65,0,0,1-16.48,6h0l21.34-45.2a26.06,26.06,0,0,1,4.41,8.08l-.19.08a32.36,32.36,0,0,0-8.51,30.15" transform="translate(-137.61 -127.25)"/><path class="cls-8" d="M260.49,298.8c2.66,2,4.05,5.15,4.85,8.36h0a23.3,23.3,0,0,1-2.14,12.92c-5.38,11.28-18.47,16.27-29.23,11.14A20.75,20.75,0,0,1,228,327c4.22.63,2.54-.41,4-1.67,1.83-1.59,1.7-3.28,3.49-4a4.52,4.52,0,0,1,1.82-.26,6.94,6.94,0,0,1,5.08,2.76c.71,1,1,2.24,2.18,2.72a3.21,3.21,0,0,0,2,0c8.35-1.61,14.31-3.36,14.31-4.66,0-.37-2.1-.44-2.75-.77a3.63,3.63,0,0,1-1.77-2.09,10.82,10.82,0,0,0-4.69-6.13c-.71-.41-4.26-2.46-6.71-.93-2.61,1.64-1.27,5.66-4,7.45a5.24,5.24,0,0,1-3.39.74A3.84,3.84,0,0,1,235,319c-1.76-2.09.59-6.61-1.34-7.45-.58-.26-1.13,0-1.92-.52-1.23-.81-.89-2.08-1.91-2.69-1.29-.77-3.24.42-3.34.48-1.65,1-1.49,2.48-2.8,3.31-.77.48.67,1.5-1.77.43a22.87,22.87,0,0,1,.77-7l.41-.3h0a6.73,6.73,0,0,0,.79-.47c3.47-2.81,7.23-5.48,10.56-8.73,1.3-1.24,3.61-1.62,4,.44.29,2.37-.14,4.77,1,6.81,1.87,2.76,4.91,4.58,8.38,3.26,2.31-1.13,2.89-3.83,5.06-4.66,4.62-1.52,6.43,3,8.34,6.44.14.26.33.67.62.81.26-3.58-2.45-6.74-1.45-10.36" transform="translate(-137.61 -127.25)"/><path class="cls-9" d="M245,312c2.45-1.53,6,.52,6.71.93a10.82,10.82,0,0,1,4.69,6.13,3.66,3.66,0,0,0,1.77,2.09c.65.33,2.75.4,2.75.76,0,1.31-6,3.06-14.31,4.67a3.21,3.21,0,0,1-2,0c-1.22-.48-1.47-1.68-2.18-2.72a6.94,6.94,0,0,0-5.08-2.76l.19-.87a5.24,5.24,0,0,0,3.39-.74c2.76-1.79,1.42-5.81,4-7.45" transform="translate(-137.61 -127.25)"/><path class="cls-9" d="M226.52,308.85c.1-.06,2-1.25,3.34-.48,1,.61.68,1.88,1.91,2.69.79.51,1.34.26,1.92.52,1.93.84-.42,5.36,1.34,7.45a3.82,3.82,0,0,0,2.51,1.18l-.19.87a4.52,4.52,0,0,0-1.82.26c-1.79.68-1.66,2.37-3.49,4-1.46,1.26.22,2.3-4,1.67A22,22,0,0,1,222,312.59c2.44,1.07,1,.05,1.77-.44,1.31-.82,1.15-2.26,2.8-3.3" transform="translate(-137.61 -127.25)"/><path class="cls-8" d="M223.13,305.26s.68-.51,0,0Z" transform="translate(-137.61 -127.25)"/><path class="cls-9" d="M223.92,304.79a6.73,6.73,0,0,1-.79.47c.68-.51,0,0,0,0l-.41.3a23.57,23.57,0,0,1,1.51-4.07c5.38-11.29,18.47-16.28,29.23-11.14a21.32,21.32,0,0,1,11.88,16.81c-.8-3.21-2.19-6.39-4.85-8.36-1,3.63,1.71,6.78,1.45,10.36-.29-.14-.48-.55-.62-.81-1.91-3.42-3.72-8-8.34-6.44-2.17.83-2.75,3.53-5.06,4.66-3.47,1.32-6.51-.5-8.38-3.26-1.16-2-.73-4.44-1-6.81-.43-2.06-2.74-1.68-4-.44-3.33,3.25-7.09,5.92-10.56,8.73" transform="translate(-137.61 -127.25)"/><path class="cls-10" d="M311.31,348.72a11,11,0,0,1,2.35,1.51,12.25,12.25,0,0,1,2.83,14.65c-2.93,6.16-10,8.91-15.82,6.14s-8.13-10-5.19-16.16a12.16,12.16,0,0,1,14.07-6.8,10.18,10.18,0,0,1,1.76.66" transform="translate(-137.61 -127.25)"/><path class="cls-11" d="M308,355.74a2.17,2.17,0,1,1-3,1,2.25,2.25,0,0,1,3-1" transform="translate(-137.61 -127.25)"/><path class="cls-11" d="M306.46,351.23a1.16,1.16,0,0,1,.35,1.58,1,1,0,1,1-.35-1.58" transform="translate(-137.61 -127.25)"/><path class="cls-11" d="M309.49,367.18a1.4,1.4,0,1,1-2,.58,1.49,1.49,0,0,1,2-.58" transform="translate(-137.61 -127.25)"/><path class="cls-11" d="M313.4,365.23a1.25,1.25,0,1,1-1.42.68,1.12,1.12,0,0,1,1.42-.68" transform="translate(-137.61 -127.25)"/><path class="cls-11" d="M313.09,357.67a1.26,1.26,0,1,1-1.43.68,1.14,1.14,0,0,1,1.43-.68" transform="translate(-137.61 -127.25)"/><path class="cls-11" d="M302.17,360.25a.94.94,0,0,1,.26,1.29,1,1,0,0,1-1.17.61,1,1,0,0,1-.26-1.3,1,1,0,0,1,1.17-.6" transform="translate(-137.61 -127.25)"/><path class="cls-11" d="M311.31,348.72a11,11,0,0,1,2.35,1.51,2.33,2.33,0,0,1-4.19-2l.08-.14a10.18,10.18,0,0,1,1.76.66" transform="translate(-137.61 -127.25)"/><path class="cls-12" d="M392.8,365.21a32.71,32.71,0,0,1,7,2.44,33.14,33.14,0,0,1,6.46,4l0,.05c-.41,13.55-3.91,27.79-14.13,37.73-1.85,1.44-4.06.79-6.15-.16a5.71,5.71,0,0,0-7.18,2.06l-.07.11a6.81,6.81,0,0,0,2,9.08c.57.4,1.15.81,1.71,1.27,3.15,2.6-.56,5.77-1.28,8.78l0,.26a33.2,33.2,0,0,1-10-3,33.67,33.67,0,0,1-7.09-4.55c1.38-4.7,4.3-8.8,6.88-13.05,4.75-6.51,9.52-11.92,12.48-19.28a9.51,9.51,0,0,1,3.48-3.83c3.06-1.83,4.91,2.34,7.36,3,3.12,1.49,4.83-2.08,5.66-5,.19-1.55,1-4.44-1.42-5.06-2-.41-3.73,2.06-5.53.1-3.41-4.36-1.17-9.88-.1-15" transform="translate(-137.61 -127.25)"/><path class="cls-7" d="M406.24,371.73l0-.05a33.22,33.22,0,0,1,9.61,12.42l-.09,0c-1.5,4.07-1.21,8.05-1.13,12.48-.34,5.32-.69,10.64-4.37,14.92-1.09,1.13-3.71,3.17-5.07,1.42-2.27-3.28,1-6.66,1.14-10.43,0-1.1-1.83-3.06-3.58-1.7-2.83,2.49-3.64,6.49-4.9,10.28-1.2,7.11-1.29,14.19-6.33,19.34l0,.12a32.88,32.88,0,0,1-10.53.28l0-.26c.72-3,4.43-6.18,1.28-8.78-.56-.46-1.14-.87-1.71-1.27a6.81,6.81,0,0,1-2-9.08l.07-.11A5.71,5.71,0,0,1,386,409.3c2.09.95,4.3,1.6,6.15.16,10.22-9.94,13.72-24.18,14.13-37.73" transform="translate(-137.61 -127.25)"/><path class="cls-12" d="M379.43,365l-5.83,12.81-.73.88c-.29.35-.58.69-.84,1-1.1,1.38-1.87,2.59-1.78,3.8a2.38,2.38,0,0,0,.15.73v0l.12.28-4.12,9.05-.2,0a2,2,0,0,0-.88.36,5.85,5.85,0,0,0-1.37,1.37,7.59,7.59,0,0,0-1.37,4.3v.17a8.21,8.21,0,0,0,.08,1.75l0,.2-5.94,13.08A33.39,33.39,0,0,1,379.43,365" transform="translate(-137.61 -127.25)"/><path class="cls-12" d="M373.6,377.76,379.43,365a24.84,24.84,0,0,1-3.37,9.47,31.78,31.78,0,0,1-2.46,3.34" transform="translate(-137.61 -127.25)"/><path class="cls-12" d="M415.8,384.14l.09,0a33.38,33.38,0,0,1-24.3,46.48l0-.12c5-5.15,5.13-12.23,6.33-19.34,1.26-3.79,2.07-7.79,4.9-10.28,1.75-1.36,3.56.6,3.58,1.7-.15,3.77-3.41,7.15-1.14,10.43,1.36,1.75,4-.29,5.07-1.42,3.68-4.28,4-9.6,4.37-14.92-.08-4.43-.38-8.41,1.13-12.49" transform="translate(-137.61 -127.25)"/><path class="cls-12" d="M372.65,386.85c2.16,1.19,3.88-.22,4.83.65,1.76,1.64-1.15,9.47-5.25,10.4-.3.07-2.09.47-2.91-.42-.38-.42-.21-.76-.57-1.63-.11-.26-.87-2.08-2.12-2.27l-.22,0,4.12-9.05a5.16,5.16,0,0,0,2.12,2.34" transform="translate(-137.61 -127.25)"/><path class="cls-7" d="M372,379.66c.26-.33.55-.67.84-1l.73-.88-3.07,6.75-.12-.28v0a2.38,2.38,0,0,1-.15-.73c-.09-1.21.68-2.42,1.78-3.8" transform="translate(-137.61 -127.25)"/><path class="cls-7" d="M362.69,401.73l3.72-8.17.22,0c1.25.19,2,2,2.12,2.27.36.87.19,1.21.57,1.63.81.89,2.61.49,2.9.42,4.11-.93,7-8.76,5.26-10.4-1-.87-2.67.54-4.83-.65a5.16,5.16,0,0,1-2.12-2.34l3.07-6.75a31.78,31.78,0,0,0,2.46-3.34,24.77,24.77,0,0,0,3.37-9.47,33.14,33.14,0,0,1,13.37.26c-1.07,5.12-3.31,10.64.09,15,1.81,2,3.54-.51,5.54-.1,2.44.62,1.61,3.51,1.42,5.06-.83,2.9-2.54,6.47-5.67,5-2.44-.62-4.29-4.79-7.36-3a9.55,9.55,0,0,0-3.47,3.83c-3,7.36-7.73,12.77-12.48,19.28-2.58,4.25-5.5,8.35-6.88,13.05a33.29,33.29,0,0,1-7.24-8.54,18.63,18.63,0,0,0,2.09-2.06c1.42-1.63,4.32-5,4.14-9.08a11.93,11.93,0,0,0-.29-1.94" transform="translate(-137.61 -127.25)"/><path class="cls-7" d="M362.59,399.61a7.63,7.63,0,0,1,1.37-4.3,5.85,5.85,0,0,1,1.37-1.37,2,2,0,0,1,.88-.36l.2,0-3.72,8.17,0-.2a8.21,8.21,0,0,1-.08-1.75Z" transform="translate(-137.61 -127.25)"/><path class="cls-12" d="M356.75,414.81l5.94-13.08a11.93,11.93,0,0,1,.29,1.94c.18,4.1-2.72,7.45-4.14,9.08a18.63,18.63,0,0,1-2.09,2.06" transform="translate(-137.61 -127.25)"/><path class="cls-13" d="M477.86,394.13c11.65-12.32,23.21-18.73,29-15.27-5.84-2.1-16.21,3.78-26.81,14.67Z" transform="translate(-137.61 -127.25)"/><path class="cls-13" d="M506.84,378.86a6.22,6.22,0,0,1,1.56.85c4.43,3.32,4.48,12.91.45,24.64l-.27.77c-.09-.16-.19-.32-.29-.48s-.34-.54-.51-.8c4-11.73,4-21.32-.45-24.64a5.36,5.36,0,0,0-.49-.34" transform="translate(-137.61 -127.25)"/><path class="cls-14" d="M480,393.53l1.19-.34c9.38-8.94,18.22-13.14,22.6-9.85,3.29,2.48,3.4,8.73.9,16.74a25.79,25.79,0,0,1,3.08,3.76c4-11.73,4-21.32-.45-24.64a5.36,5.36,0,0,0-.49-.34h0c-5.84-2.1-16.21,3.78-26.81,14.67" transform="translate(-137.61 -127.25)"/><path class="cls-13" d="M482.35,393c7.61-6.71,14.59-9.67,18.18-7,2.53,1.9,3.23,6.42,2.2,12.28a25.87,25.87,0,0,0-3.81-2.56c-.1-2.66-.85-4.67-2.26-5.73-2.4-1.8-6.56-.66-11.36,2.65-.53,0-1.07.07-1.6.13h0c-.45.06-.9.12-1.35.2" transform="translate(-137.61 -127.25)"/><path class="cls-15" d="M497.63,395.05c.44.21.87.43,1.29.67a30.76,30.76,0,0,1-2,10.79A67.59,67.59,0,0,1,475.89,436a29.76,29.76,0,0,1-10,5.48,26.71,26.71,0,0,1-3.55-4.54,72.89,72.89,0,0,0,17.68-16.27,75.7,75.7,0,0,0,13.37-27.16,25.67,25.67,0,0,1,4.2,1.56" transform="translate(-137.61 -127.25)"/><path class="cls-13" d="M497,406.51a30.76,30.76,0,0,0,2-10.79,25.87,25.87,0,0,1,3.81,2.56,46.56,46.56,0,0,1-1.85,7A73.84,73.84,0,0,1,492,422.63c-.34.5-.69,1-1,1.49a75.43,75.43,0,0,1-14.67,15.56,45,45,0,0,1-7.07,4.59,25.39,25.39,0,0,1-3.29-2.81,29.76,29.76,0,0,0,10-5.48A67.59,67.59,0,0,0,497,406.51" transform="translate(-137.61 -127.25)"/><path class="cls-16" d="M490.14,392.82a25.25,25.25,0,0,1,3.29.67,75.7,75.7,0,0,1-13.37,27.16,72.89,72.89,0,0,1-17.68,16.27,26.48,26.48,0,0,1-1.56-2.93,72.92,72.92,0,0,0,16.31-15.35,75.6,75.6,0,0,0,13-25.82" transform="translate(-137.61 -127.25)"/><path class="cls-15" d="M502.73,398.28a26,26,0,0,1,2,1.8,91,91,0,0,1-11.78,23.2l-.92-.65a74.22,74.22,0,0,0,8.88-17.35,46.56,46.56,0,0,0,1.85-7" transform="translate(-137.61 -127.25)"/><path class="cls-15" d="M486.62,392.6a24.47,24.47,0,0,1,3.52.22,75.6,75.6,0,0,1-13,25.82A72.7,72.7,0,0,1,460.82,434a29.27,29.27,0,0,1-1.38-3.66,65.88,65.88,0,0,0,15.73-14.74,68,68,0,0,0,11.45-23" transform="translate(-137.61 -127.25)"/><path class="cls-16" d="M485.3,392.64c.44,0,.88,0,1.32,0a68,68,0,0,1-11.45,23,65.88,65.88,0,0,1-15.73,14.74c-.09-.31-.17-.62-.25-.94.34-1.24.77-2.54,1.28-3.89a72.91,72.91,0,0,0,11.89-12.07,74.48,74.48,0,0,0,10.8-19.21c.72-.57,1.44-1.1,2.14-1.58" transform="translate(-137.61 -127.25)"/><path class="cls-14" d="M471.87,445.93c.39.21.79.42,1.2.61a25.22,25.22,0,0,0,3.27,1.29,97.35,97.35,0,0,0,18.75-19.89l.26-.37a102,102,0,0,0,8.82-15h0a80.72,80.72,0,0,0,3.48-8.4l0-.12.06-.16a.19.19,0,0,0,0-.08,25.72,25.72,0,0,0-3.07-3.76c0,.07-.05.14-.07.22a69.8,69.8,0,0,1-3.63,9.06h0a104.43,104.43,0,0,1-7.82,13.52v0l-.25.37c-.46.68-.94,1.36-1.42,2-6.38,8.93-13.38,16.12-19.63,20.62" transform="translate(-137.61 -127.25)"/><path class="cls-17" d="M492.92,423.29h0l.25-.38-.25.38m.26-.4A104.43,104.43,0,0,0,501,409.37a104.43,104.43,0,0,1-7.82,13.52m11.52-22.81c0,.07-.05.14-.07.22,0-.08.05-.15.07-.22m-3.7,9.28h0" transform="translate(-137.61 -127.25)"/><path class="cls-16" d="M483.7,392.77c.53-.06,1.06-.11,1.6-.13-.7.48-1.42,1-2.14,1.58.19-.49.37-1,.54-1.45Z" transform="translate(-137.61 -127.25)"/><path class="cls-13" d="M507.78,403.84c.17.26.35.53.51.8-.24,1.09-.53,2.26-.86,3.51a98.68,98.68,0,0,1-11.27,20.3,97,97,0,0,1-18.56,19.74c-.42-.1-.84-.23-1.26-.36a97.35,97.35,0,0,0,18.75-19.89,96.3,96.3,0,0,0,12.69-24.1" transform="translate(-137.61 -127.25)"/><path class="cls-13" d="M508.29,404.64c.1.16.2.32.29.48-.35,1-.74,2-1.15,3,.33-1.25.62-2.42.86-3.51" transform="translate(-137.61 -127.25)"/><path class="cls-15" d="M482.35,393c.45-.08.9-.14,1.35-.2-.17.48-.35,1-.54,1.45a58.1,58.1,0,0,0-6.25,5.78l-.37-.28,2.84-4c1-1,2-1.91,3-2.77" transform="translate(-137.61 -127.25)"/><path class="cls-15" d="M481.2,393.19c.38-.08.76-.16,1.15-.22-1,.86-2,1.79-3,2.77Z" transform="translate(-137.61 -127.25)"/><path class="cls-15" d="M480,393.53l1.19-.34-1.82,2.55-2.84,4-14.37,20.16c0-.3,0-.6,0-.89-.55,1-1.07,2-1.55,3l-1.26,1.77c0-.63,0-1.27,0-1.92-.35.67-.7,1.34-1,2-.05-.83-.06-1.67,0-2.51a127.26,127.26,0,0,1,8.74-14,123.39,123.39,0,0,1,10.83-13.22Z" transform="translate(-137.61 -127.25)"/><path class="cls-16" d="M483.64,449a25.26,25.26,0,0,1-3.68-.31,72.94,72.94,0,0,0,14.23-13.87,75.7,75.7,0,0,0,13.24-26.67c.41-1,.8-2,1.15-3a28.37,28.37,0,0,1,1.74,3.49h0a75.73,75.73,0,0,1-13.46,27.47A73,73,0,0,1,483.91,449Z" transform="translate(-137.61 -127.25)"/><path class="cls-15" d="M510.32,408.62a27.54,27.54,0,0,1,1.55,5.17,75.61,75.61,0,0,1-13,25.77,73.12,73.12,0,0,1-7.7,8.43h0a26.36,26.36,0,0,1-7.27,1,73,73,0,0,0,12.95-12.91,75.56,75.56,0,0,0,13.46-27.47" transform="translate(-137.61 -127.25)"/><path class="cls-15" d="M462.24,421.36c0-.49-.07-1-.07-1.49l14.37-20.15.37.28a58.1,58.1,0,0,1,6.25-5.78,74.48,74.48,0,0,1-10.8,19.21,72.91,72.91,0,0,1-11.89,12.07q.76-2,1.77-4.14" transform="translate(-137.61 -127.25)"/><path class="cls-15" d="M496.16,428.45a98.68,98.68,0,0,0,11.27-20.3,75.7,75.7,0,0,1-13.24,26.67A72.94,72.94,0,0,1,480,448.69c-.79-.13-1.58-.29-2.36-.5a97,97,0,0,0,18.56-19.74" transform="translate(-137.61 -127.25)"/><path class="cls-15" d="M477.86,394.13A123.39,123.39,0,0,0,467,407.35a127.26,127.26,0,0,0-8.74,14,30,30,0,0,1,2.94-12.08,29.41,29.41,0,0,1,16.63-15.16" transform="translate(-137.61 -127.25)"/><path class="cls-16" d="M511.87,413.79a28.08,28.08,0,0,1,.54,6A74.84,74.84,0,0,1,501,440.59c-1.49,1.91-3,3.67-4.54,5.28h0a27.24,27.24,0,0,1-5.31,2.12,73.12,73.12,0,0,0,7.7-8.43,75.61,75.61,0,0,0,13-25.77" transform="translate(-137.61 -127.25)"/><path class="cls-15" d="M512.41,419.82a30.07,30.07,0,0,1-2.94,12.48,29.65,29.65,0,0,1-13,13.57c1.52-1.61,3.05-3.37,4.54-5.28a74.84,74.84,0,0,0,11.38-20.77" transform="translate(-137.61 -127.25)"/><path class="cls-15" d="M492,422.63l.92.65c-.46.68-.93,1.36-1.42,2-6.38,8.93-13.38,16.12-19.63,20.62a26.3,26.3,0,0,1-2.65-1.66,45,45,0,0,0,7.07-4.59A75.43,75.43,0,0,0,491,424.12c.35-.49.7-1,1-1.49" transform="translate(-137.61 -127.25)"/><path class="cls-15" d="M462.18,419c0,.29,0,.59,0,.89L460.63,422c.48-1,1-2,1.55-3" transform="translate(-137.61 -127.25)"/><path class="cls-15" d="M459.42,424.69c.37-.87.78-1.76,1.21-2.66l1.54-2.15c0,.49,0,1,.07,1.48q-1,2.13-1.77,4.14c-.61.49-1.22,1-1.81,1.41l0-.29c.25-.64.51-1.28.8-1.93" transform="translate(-137.61 -127.25)"/><path class="cls-15" d="M460.63,422c-.43.9-.84,1.79-1.21,2.66,0-.29,0-.59-.05-.89Z" transform="translate(-137.61 -127.25)"/><path class="cls-15" d="M458.33,423.88c.33-.66.68-1.33,1-2,0,.65,0,1.29,0,1.92l-.94,1.33c-.05-.42-.08-.83-.1-1.25" transform="translate(-137.61 -127.25)"/><path class="cls-13" d="M458.29,421.37c0,.84,0,1.68,0,2.51-7.58,14.95-9.65,27.82-4.26,31.87.16.12.33.23.5.34a6.53,6.53,0,0,1-1.58-.86c-5.63-4.22-3.11-18.07,5.3-33.86" transform="translate(-137.61 -127.25)"/><path class="cls-15" d="M459.37,423.8c0,.3,0,.6.05.89-.29.65-.55,1.29-.8,1.93-.08-.5-.15-1-.19-1.49Z" transform="translate(-137.61 -127.25)"/></g><g class="cls-18"><rect class="cls-14" x="575.57" y="440.33" width="27.91" height="24.19" transform="translate(-210.23 662.49) rotate(-64.5)"/></g><g class="cls-2"><path class="cls-13" d="M457.24,426.09h0m0,0c.34-.7.68-1.41,1-2.12-.36.71-.7,1.42-1,2.12m-3.31,29.55h0m0,0,0,0,0,0m.1.08h0c.16.12.33.23.5.34-.17-.11-.34-.22-.5-.34" transform="translate(-137.61 -127.25)"/><path class="cls-16" d="M458.66,426.91c.59-.45,1.2-.92,1.81-1.41-.51,1.35-.94,2.65-1.28,3.89-.22-.82-.39-1.64-.53-2.48" transform="translate(-137.61 -127.25)"/><path class="cls-13" d="M458.62,426.62l0,.29c.14.84.31,1.66.53,2.48-1.52,5.53-1.29,9.79,1.06,11.55,1.34,1,3.31,1.14,5.68.52a25.39,25.39,0,0,0,3.29,2.81c-4.78,2.42-8.83,3-11.18,1.2-3.47-2.6-3-9.86.58-18.85" transform="translate(-137.61 -127.25)"/><path class="cls-13" d="M477.6,448.19l-.19.15c-9.46,7.38-18.25,10.5-22.84,7.75,4.8,1.76,13-1.42,21.77-8.26.42.13.84.26,1.26.36" transform="translate(-137.61 -127.25)"/><path class="cls-19" d="M575.92,404.19a16.7,16.7,0,0,1,5.31-1.53c3.36-3.44,6.57-5.05,8.77-4,1.94.92,2.77,3.76,2.55,7.7-.25,4.68-2,10.92-5,17.33s-6.81,11.67-10.29,14.81c-2.92,2.65-5.65,3.79-7.59,2.87-2.2-1.05-3-4.56-2.41-9.34a16.39,16.39,0,0,1-2.15-5.08c-2.62,9.74-2,17.62,2.1,19.58,3.65,1.75,9.18-1.6,14.53-8.09l13.62-28.57c1.68-8.23.8-14.64-2.85-16.38-4.12-2-10.62,2.53-16.55,10.7" transform="translate(-137.61 -127.25)"/><path class="cls-20" d="M581.23,402.66a14.3,14.3,0,0,1,7.78,1.28,14.14,14.14,0,0,1,3.54,2.42Z" transform="translate(-137.61 -127.25)"/><path class="cls-20" d="M581.23,402.66l11.32,3.7c-.25,4.68-2,10.92-5,17.32s-6.81,11.67-10.29,14.82l-10-6.47a16.39,16.39,0,0,1-2.15-5.08l10.85-22.76a16.44,16.44,0,0,1,5.31-1.53" transform="translate(-137.61 -127.25)"/><path class="cls-19" d="M595.32,409.87,581.7,438.44a66.6,66.6,0,0,0,8.43-13.51c.54-1.12,1-2.23,1.5-3.34l1.6-4.17a58,58,0,0,0,2.09-7.55" transform="translate(-137.61 -127.25)"/><path class="cls-20" d="M575.92,404.19,565.07,427a20.54,20.54,0,0,1,10.85-22.76" transform="translate(-137.61 -127.25)"/><path class="cls-20" d="M595.32,409.87a20,20,0,0,1-13.62,28.57,66.6,66.6,0,0,0,8.43-13.51c.54-1.12,1-2.23,1.5-3.34.59-1.4,1.12-2.8,1.6-4.17a58,58,0,0,0,2.09-7.55" transform="translate(-137.61 -127.25)"/><path class="cls-20" d="M567.22,432l10,6.47a14,14,0,0,1-4.11-1.23,14.38,14.38,0,0,1-5.89-5.24" transform="translate(-137.61 -127.25)"/></g><polygon class="cls-21" points="433 298.58 431.96 301.37 429.31 302.04 427.71 299.91 428.75 297.12 431.4 296.45 433 298.58"/><polygon class="cls-21" points="439.65 282.87 438.57 287.23 434.66 288.8 431.83 286 432.91 281.64 436.82 280.08 439.65 282.87"/><polygon class="cls-21" points="436.06 292.74 436.31 294.53 434.99 295.83 433.42 295.34 433.17 293.56 434.49 292.26 436.06 292.74"/><polygon class="cls-21" points="441.65 290.58 440.75 293.25 438.26 293.98 436.67 292.05 437.57 289.38 440.06 288.65 441.65 290.58"/><polygon class="cls-21" points="440.65 304.8 440.33 306.27 439.04 306.84 438.05 305.94 438.37 304.48 439.67 303.9 440.65 304.8"/><g class="cls-2"><path class="cls-21" d="M593.94,416.92l2.28,1.28-.09,2.93-2.37,1.65-2.13-1.19c.59-1.4,1.12-2.8,1.6-4.17Z" transform="translate(-137.61 -127.25)"/><path class="cls-22" d="M693.81,369.08a17.71,17.71,0,0,1,3,1.81,74.5,74.5,0,0,0-17.92,33.33,15.75,15.75,0,0,1-1.54-.65,17.81,17.81,0,0,1-7.28-6.38h0a16.74,16.74,0,0,1,2-5.3c1.66-2.74,3-3,5.07-5.91.49-.68,1.77-2.54,4.1-10,.72-2.27,1.56-5.14,2.39-8.52a17.81,17.81,0,0,1,10.14,1.57" transform="translate(-137.61 -127.25)"/><path class="cls-8" d="M696.81,370.89a11.8,11.8,0,0,1,1,.84A84.14,84.14,0,0,0,680,404.58c-.37-.11-.73-.23-1.09-.36a74.5,74.5,0,0,1,17.92-33.33" transform="translate(-137.61 -127.25)"/><path class="cls-22" d="M697.84,371.73a17.77,17.77,0,0,1,3.1,3.5,60.48,60.48,0,0,1-5.34,9.62c-4.49,6.56-8.06,8.91-10,14.83a22,22,0,0,0-1,5.63,18,18,0,0,1-4.64-.73,84.14,84.14,0,0,1,17.86-32.85" transform="translate(-137.61 -127.25)"/><path class="cls-8" d="M695.6,384.85a60.48,60.48,0,0,0,5.34-9.62,18.5,18.5,0,0,1,2,3.91h0a85.19,85.19,0,0,0-13.81,25.7h0a18.85,18.85,0,0,1-4.5.46,22.11,22.11,0,0,1,1-5.64c1.9-5.91,5.47-8.26,10-14.82" transform="translate(-137.61 -127.25)"/><path class="cls-8" d="M679,368.79a18.68,18.68,0,0,1,4.68-1.28c-.83,3.38-1.67,6.25-2.39,8.52-2.33,7.41-3.61,9.27-4.1,10-2.07,2.87-3.41,3.17-5.07,5.91a16.74,16.74,0,0,0-2,5.3,18.34,18.34,0,0,1-2.11-4.45,85.18,85.18,0,0,0,6.66-12,83.87,83.87,0,0,0,4.37-12" transform="translate(-137.61 -127.25)"/><path class="cls-22" d="M702.94,379.14a19.57,19.57,0,0,1-13.82,25.7,85.19,85.19,0,0,1,13.81-25.7Z" transform="translate(-137.61 -127.25)"/><path class="cls-22" d="M679,368.79a83.87,83.87,0,0,1-4.37,12,85.18,85.18,0,0,1-6.66,12,19.64,19.64,0,0,1,11-23.95" transform="translate(-137.61 -127.25)"/><path class="cls-23" d="M673.43,394.26c-.67,1.39-1.86,2.21-2.67,1.83s-.92-1.83-.25-3.23,1.86-2.22,2.67-1.83.92,1.83.25,3.23" transform="translate(-137.61 -127.25)"/><path class="cls-24" d="M677.66,393.16c-.34.7-.93,1.11-1.34.92s-.46-.91-.13-1.61.94-1.11,1.34-.92.46.92.13,1.61" transform="translate(-137.61 -127.25)"/><path class="cls-24" d="M676.51,398.34c-.41.87-1.15,1.37-1.65,1.14s-.57-1.14-.16-2,1.15-1.38,1.65-1.14.58,1.13.16,2" transform="translate(-137.61 -127.25)"/><path class="cls-24" d="M689,395.05c-.52,1.09-1.45,1.73-2.08,1.43s-.72-1.42-.2-2.51,1.45-1.73,2.08-1.43.72,1.43.2,2.51" transform="translate(-137.61 -127.25)"/><path class="cls-23" d="M685.93,371c-.33.7-.93,1.11-1.33.92s-.46-.92-.13-1.62.93-1.11,1.33-.91.46.91.13,1.61" transform="translate(-137.61 -127.25)"/><path class="cls-24" d="M686.24,375.61c-.41.86-1.15,1.37-1.65,1.13s-.57-1.13-.16-2,1.16-1.38,1.66-1.14.57,1.13.15,2" transform="translate(-137.61 -127.25)"/><path class="cls-24" d="M691.36,372.42c-.67,1.4-1.87,2.22-2.67,1.83s-.93-1.83-.26-3.23,1.86-2.21,2.67-1.83.92,1.83.26,3.23" transform="translate(-137.61 -127.25)"/><path class="cls-25" d="M681.25,376.15l0,0,0,0m0,.16h0m-.08.24c-.47,1.47-.89,2.7-1.28,3.75.39-1.05.81-2.28,1.28-3.75" transform="translate(-137.61 -127.25)"/><path class="cls-26" d="M682.65,371.41c-.48,1.74-.94,3.28-1.37,4.62l0,.12,0,0,0,.12h0c0,.08-.05.16-.07.23-.47,1.47-.89,2.7-1.27,3.75a43.09,43.09,0,0,0,5.91.67,18.59,18.59,0,0,0,3.13,0c1.41-2.16,2.85-4.12,4.25-5.87a3.42,3.42,0,0,0-2-1.59l-.43-.13c-.65.76-1.44,1.11-2,.83a1.61,1.61,0,0,1-.69-1.63l-.37-.25a7.11,7.11,0,0,0-2-.85c-.33.38-.73.57-1,.43a.69.69,0,0,1-.34-.64,6,6,0,0,0-1.61.1m3.59,4.2c-.41.86-1.15,1.37-1.65,1.13s-.57-1.13-.16-2,1.16-1.38,1.66-1.14.57,1.13.15,2" transform="translate(-137.61 -127.25)"/><path class="cls-27" d="M688.89,381a4,4,0,0,0,2.15-.68,3.75,3.75,0,0,0,.33-.26c.61-.9,1.23-1.76,1.84-2.59a3.14,3.14,0,0,0,0-2.2s-.05-.1-.07-.14c-1.4,1.75-2.84,3.71-4.25,5.87" transform="translate(-137.61 -127.25)"/><path class="cls-26" d="M691.37,380.07A6,6,0,0,0,693,378c.08-.17.15-.35.22-.53-.61.83-1.23,1.69-1.84,2.59" transform="translate(-137.61 -127.25)"/><path class="cls-27" d="M678,375.45a4.28,4.28,0,0,0-.37,3.4c.31.73,1,1.16,2.22,1.45.38-1.05.8-2.28,1.27-3.75,0-.07,0-.15.07-.23h0l0-.12,0,0,0-.12c.43-1.34.89-2.88,1.37-4.62l-.13,0a7.42,7.42,0,0,0-4.52,4" transform="translate(-137.61 -127.25)"/><path class="cls-28" d="M684.26,371.31a.69.69,0,0,0,.34.64c.29.14.69-.05,1-.43a8.32,8.32,0,0,0-1.36-.21" transform="translate(-137.61 -127.25)"/><path class="cls-29" d="M684.43,374.75c-.41.86-.34,1.76.16,2s1.24-.27,1.65-1.13.35-1.76-.15-2-1.24.27-1.66,1.14" transform="translate(-137.61 -127.25)"/><path class="cls-29" d="M688,372.62a1.61,1.61,0,0,0,.69,1.63c.58.28,1.37-.07,2-.83l-2.67-.77,0,0" transform="translate(-137.61 -127.25)"/><path class="cls-23" d="M697.86,382.71c-1.61,3.39-4,5.63-5.32,5s-1.08-3.89.54-7.28,4-5.64,5.32-5,1.08,3.9-.54,7.29" transform="translate(-137.61 -127.25)"/></g></svg>