<svg id="Capa_1" data-name="Capa 1" xmlns="http://www.w3.org/2000/svg" viewBox="0 0 435.24 435.24"><defs><style>.cls-1{fill:#fab48f;}.cls-2{font-size:63px;font-family:DawningofaNewDay, Dawning of a New Day;}</style></defs><path class="cls-1" d="M81.77,413.61V322.7c-45.64-32.61-71.65-79.49-71.65-129.63,0-94.53,93.09-171.44,207.5-171.44s207.5,76.91,207.5,171.44S332,364.51,217.62,364.51A250.12,250.12,0,0,1,177,361.17ZM217.62,49.26C118.6,49.26,38,113.77,38,193.07c0,43,23.85,83.43,65.44,110.93l6.2,4.1v58.52l62.45-34.39,5,.91a221.88,221.88,0,0,0,40.53,3.75c99,0,179.59-64.52,179.59-143.82S316.65,49.26,217.62,49.26Z"/><text class="cls-2" transform="translate(110.39 141.56)">Click here <tspan x="23.81" y="75.6">to send </tspan><tspan x="46.14" y="151.2">email!</tspan></text></svg>